<svg width="51" height="51" viewBox="0 0 51 51" fill="none" xmlns="http://www.w3.org/2000/svg">
<path d="M11.0206 7.13596C11.1095 7.13571 11.1984 7.13545 11.2901 7.13519C11.5892 7.1347 11.8884 7.13634 12.1875 7.13798C12.4015 7.13806 12.6155 7.13801 12.8295 7.13784C13.4115 7.13776 13.9934 7.13952 14.5754 7.1416C15.1832 7.14346 15.791 7.14364 16.3988 7.144C17.5503 7.14493 18.7017 7.14738 19.8532 7.15038C21.1639 7.15372 22.4746 7.15536 23.7852 7.15686C26.4819 7.15999 29.1785 7.16525 31.8751 7.1719C31.7822 7.28143 31.6891 7.39082 31.5959 7.50016C31.5441 7.56109 31.4923 7.62202 31.4389 7.6848C31.1822 7.97787 30.9074 8.25148 30.6308 8.52558C30.5425 8.61364 30.5425 8.61364 30.4524 8.70348C30.267 8.88838 30.0812 9.07293 29.8954 9.25747C29.7685 9.38384 29.6417 9.51023 29.5148 9.63665C29.2061 9.94424 28.8972 10.2515 28.588 10.5586C28.3283 10.4555 28.0706 10.3508 27.8149 10.238C26.373 9.60658 25.024 9.46152 23.5079 9.96096C22.1664 10.5359 21.0382 11.4299 20.4761 12.8002C19.9225 14.3085 19.7996 15.7624 20.4675 17.2644C21.2471 18.7986 22.2995 19.6477 23.913 20.2273C24.248 20.334 24.551 20.4001 24.9024 20.4199C24.9708 20.4261 25.0391 20.4323 25.1094 20.4386C26.518 20.5132 27.9099 19.9942 28.9685 19.0822C29.331 18.7345 29.6642 18.4141 29.8767 17.9546C30.103 17.598 30.2014 17.555 30.5708 17.3826C31.2806 17.0094 31.7856 16.4742 32.3296 15.9002C32.476 15.7474 32.6229 15.5951 32.7703 15.4433C32.9019 15.3074 33.0324 15.1705 33.1629 15.0335C33.3692 14.8418 33.3692 14.8418 33.5685 14.8418C33.5685 14.7761 33.5685 14.7103 33.5685 14.6426C33.6342 14.6426 33.6999 14.6426 33.7677 14.6426C33.8006 14.544 33.8334 14.4454 33.8673 14.3438C34.0105 14.1757 34.0105 14.1757 34.1661 14.0449C34.2319 14.0449 34.2976 14.0449 34.3653 14.0449C34.4023 13.9587 34.4023 13.9587 34.44 13.8706C34.5828 13.6137 34.7423 13.4412 34.963 13.2481C35.0287 13.2481 35.0945 13.2481 35.1622 13.2481C35.1622 13.1823 35.1622 13.1166 35.1622 13.0489C35.228 13.0489 35.2937 13.0489 35.3614 13.0489C35.3943 12.9502 35.4272 12.8516 35.461 12.75C35.5268 12.75 35.5925 12.75 35.6603 12.75C35.6603 12.6843 35.6603 12.6185 35.6603 12.5508C35.726 12.5508 35.7917 12.5508 35.8595 12.5508C35.8595 12.4851 35.8595 12.4193 35.8595 12.3516C36.0225 12.2298 36.0225 12.2298 36.2579 12.1524C36.5276 12.2897 36.5276 12.2897 36.8369 12.5072C37.8718 13.1989 39.0352 13.5219 40.2734 13.6029C40.4608 13.6154 40.4608 13.6154 40.652 13.6282C40.7469 13.6343 40.8418 13.6403 40.9396 13.6465C40.9465 14.7955 40.9518 15.9445 40.955 17.0935C40.9566 17.627 40.9587 18.1605 40.9621 18.694C40.9653 19.2088 40.9671 19.7235 40.9679 20.2383C40.9685 20.4348 40.9695 20.6313 40.9712 20.8278C40.9733 21.1028 40.9736 21.3777 40.9735 21.6527C40.9751 21.7749 40.9751 21.7749 40.9767 21.8996C40.9743 22.3382 40.9556 22.5968 40.6407 22.9102C40.4085 22.96 40.4085 22.96 40.1288 22.96C40.0222 22.961 39.9156 22.962 39.8058 22.963C39.6883 22.962 39.5707 22.9611 39.4496 22.9601C39.3251 22.9607 39.2006 22.9612 39.0723 22.9618C38.726 22.9633 38.3798 22.9622 38.0335 22.9608C37.6603 22.9597 37.2872 22.9609 36.914 22.9618C36.1826 22.9632 35.4513 22.9624 34.72 22.9609C33.8689 22.9592 33.0178 22.9596 32.1667 22.9599C30.6484 22.9605 29.1302 22.9591 27.6119 22.9567C26.1376 22.9543 24.6634 22.9536 23.189 22.9546C21.5849 22.9557 19.9807 22.9559 18.3765 22.9545C18.2055 22.9543 18.0346 22.9542 17.8636 22.954C17.7374 22.9539 17.7374 22.9539 17.6087 22.9538C17.015 22.9533 16.4213 22.9535 15.8276 22.954C15.1044 22.9544 14.3812 22.9539 13.6579 22.9519C13.2887 22.9509 12.9195 22.9504 12.5503 22.9512C12.1506 22.952 11.751 22.9505 11.3513 22.9488C11.2338 22.9494 11.1163 22.95 10.9952 22.9506C10.8886 22.9498 10.782 22.9489 10.6722 22.9481C10.5799 22.948 10.4876 22.9479 10.3925 22.9478C10.1148 22.9028 10.0258 22.8365 9.86143 22.6114C9.82383 22.339 9.82383 22.339 9.82349 22.0026C9.82264 21.8753 9.8218 21.7479 9.82093 21.6166C9.82151 21.4752 9.82213 21.3338 9.82277 21.1923C9.82236 21.0436 9.82183 20.8949 9.82118 20.7461C9.81981 20.3419 9.82035 19.9378 9.82129 19.5336C9.82205 19.1109 9.82135 18.6883 9.82088 18.2657C9.82033 17.556 9.82105 16.8462 9.82247 16.1365C9.8241 15.3154 9.82357 14.4943 9.82193 13.6733C9.82057 12.9689 9.82038 12.2644 9.82116 11.56C9.82163 11.1391 9.82169 10.7181 9.8207 10.2972C9.81984 9.90145 9.82044 9.50576 9.82217 9.11005C9.82256 8.96464 9.82245 8.81924 9.82179 8.67384C9.82098 8.47571 9.82218 8.27758 9.82349 8.07945C9.82366 7.91297 9.82366 7.91297 9.82383 7.74312C9.91768 7.06327 10.45 7.13002 11.0206 7.13596ZM12.2645 13.4037C11.7665 14.1019 11.7806 14.9161 11.8536 15.7383C12.0602 16.5709 12.6419 17.2502 13.3478 17.718C14.0705 18.13 14.8045 18.2565 15.6127 18.064C16.5303 17.7682 17.2687 17.1935 17.7306 16.336C18.0523 15.526 18.0666 14.6066 17.7555 13.7897C17.3463 12.9217 16.685 12.3982 15.7882 12.0652C14.3722 11.6561 13.1296 12.267 12.2645 13.4037Z" fill="#EA591C"/>
<path d="M16.9176 37.6197C19.0755 39.2193 21.418 39.0797 23.9912 39.0924C24.3577 39.0945 24.7242 39.0984 25.0907 39.1025C25.2027 39.1026 25.3148 39.1026 25.4302 39.1026C26.0876 39.1109 26.5742 39.1517 27.0782 39.6165C27.1258 39.6751 27.1735 39.7337 27.2225 39.794C27.2715 39.8525 27.3204 39.9111 27.3708 39.9714C27.7061 40.452 27.6521 41.0789 27.5898 41.6368C27.3777 42.2047 27.026 42.543 26.4941 42.8321C26.1481 42.9474 25.8761 42.9455 25.5109 42.9474C25.4417 42.9479 25.3725 42.9484 25.3013 42.9489C25.1511 42.95 25.0009 42.9508 24.8507 42.9515C24.6129 42.9527 24.3751 42.9546 24.1373 42.9568C23.4611 42.9629 22.7849 42.9683 22.1087 42.9717C21.695 42.9737 21.2814 42.9773 20.8677 42.9817C20.7102 42.9831 20.5527 42.984 20.3952 42.9843C20.1746 42.9848 19.9541 42.9871 19.7336 42.9898C19.5455 42.991 19.5455 42.991 19.3536 42.9922C18.9977 43.0343 18.8078 43.1128 18.5254 43.3301C18.4141 43.6194 18.4013 43.7605 18.5067 44.0523C18.6144 44.2416 18.6144 44.2416 18.8242 44.3262C19.0477 44.3374 19.2716 44.3421 19.4954 44.3438C19.5644 44.3445 19.6334 44.3451 19.7046 44.3458C19.9338 44.3478 20.163 44.3489 20.3923 44.3499C20.5101 44.3505 20.5101 44.3505 20.6303 44.3512C21.047 44.3532 21.4636 44.3547 21.8803 44.3556C22.3081 44.3567 22.7358 44.3601 23.1636 44.3641C23.4945 44.3667 23.8254 44.3675 24.1563 44.3679C24.3138 44.3684 24.4713 44.3695 24.6288 44.3714C25.5869 44.382 26.3928 44.2936 27.291 43.9278C27.4578 43.8682 27.6249 43.8093 27.7922 43.7511C27.9596 43.691 28.1269 43.6306 28.2941 43.5702C28.3873 43.5366 28.4806 43.503 28.5766 43.4684C28.7778 43.3959 28.9789 43.3233 29.18 43.2507C29.5016 43.1347 29.8234 43.0192 30.1451 42.9037C31.2466 42.508 32.3464 42.1084 33.4429 41.699C33.9003 41.5283 34.3581 41.3589 34.8161 41.1898C35.1332 41.0726 35.45 40.9546 35.7661 40.8347C36.1213 40.7004 36.4773 40.5688 36.8337 40.4375C36.9376 40.3975 37.0414 40.3574 37.1485 40.3161C37.9191 40.0366 38.7983 39.8398 39.5939 40.1362C40.0907 40.4021 40.4537 40.8052 40.6387 41.3379C40.7188 41.9114 40.7499 42.5047 40.4768 43.0313C39.9451 43.703 39.2552 44.0723 38.5157 44.4818C38.4055 44.543 38.2953 44.6041 38.1817 44.667C31.5961 48.2793 23.2349 51.2928 15.7363 49.2071C14.8296 48.9332 13.9369 48.6165 13.0428 48.3044C10.6603 47.4763 8.39923 46.9847 5.875 46.8164C5.875 43.6608 5.875 40.5052 5.875 37.2539C7.606 36.3307 7.606 36.3307 8.24072 36.1209C8.30557 36.0976 8.37041 36.0744 8.43722 36.0505C11.4225 35.0244 14.4591 35.7822 16.9176 37.6197Z" fill="#EA591C"/>
<path d="M15.2081 26.2856C15.3217 26.2856 15.4354 26.2856 15.5525 26.2856C15.6746 26.2861 15.7967 26.2866 15.9226 26.2871C16.048 26.2873 16.1735 26.2874 16.3028 26.2876C16.6355 26.288 16.9683 26.2889 17.301 26.29C17.6409 26.291 17.9807 26.2915 18.3206 26.292C18.9869 26.2931 19.6531 26.2948 20.3194 26.2969C20.3209 26.3798 20.3209 26.3798 20.3225 26.4644C20.3333 27.0396 20.3447 27.6148 20.3565 28.1901C20.3608 28.4048 20.365 28.6194 20.3689 28.8341C20.3747 29.1427 20.381 29.4513 20.3875 29.7598C20.3892 29.8558 20.3908 29.9518 20.3925 30.0507C20.3955 30.1853 20.3955 30.1853 20.3986 30.3226C20.4009 30.4407 20.4009 30.4407 20.4032 30.5612C20.4189 30.7773 20.4595 30.9697 20.5186 31.1777C21.0545 31.2913 21.342 31.2692 21.8295 31.0221C21.9414 30.9674 22.0533 30.9127 22.1686 30.8563C22.3411 30.7689 22.3411 30.7689 22.517 30.6797C22.7458 30.5641 22.9752 30.4499 23.2053 30.3373C23.3063 30.286 23.4072 30.2348 23.5112 30.182C23.9541 30.0317 24.2503 30.1161 24.6721 30.2967C24.7611 30.3433 24.8502 30.39 24.9419 30.438C25.0406 30.4881 25.1394 30.5381 25.2411 30.5896C25.4468 30.6956 25.652 30.8024 25.8567 30.9102C25.9554 30.9598 26.0542 31.0095 26.1559 31.0606C26.2449 31.1069 26.334 31.1532 26.4257 31.201C26.7788 31.3013 26.9637 31.2301 27.2921 31.0781C27.4092 30.8439 27.4071 30.6969 27.4121 30.4357C27.4141 30.3439 27.4161 30.2522 27.4181 30.1577C27.4198 30.0585 27.4215 29.9593 27.4232 29.8571C27.4263 29.705 27.4263 29.705 27.4295 29.5498C27.436 29.225 27.4418 28.9002 27.4477 28.5754C27.452 28.3556 27.4563 28.1357 27.4607 27.9159C27.4714 27.3762 27.4815 26.8366 27.4913 26.2969C28.2325 26.2899 28.9737 26.2846 29.715 26.2814C30.0592 26.2798 30.4034 26.2777 30.7477 26.2743C31.144 26.2704 31.5404 26.269 31.9367 26.2677C32.0595 26.2661 32.1823 26.2646 32.3088 26.263C33.4433 26.2628 33.4433 26.2628 33.9659 26.5957C34.4742 27.1477 34.4184 27.7096 34.4096 28.4316C34.4096 28.5561 34.4097 28.6805 34.4097 28.8087C34.4095 29.1487 34.4075 29.4886 34.4047 29.8285C34.4022 30.1843 34.402 30.54 34.4015 30.8958C34.4003 31.5689 34.397 32.2419 34.393 32.915C34.3886 33.6815 34.3864 34.4481 34.3844 35.2146C34.3802 36.7909 34.3732 38.3671 34.3643 39.9434C33.8866 40.1171 33.4087 40.2906 32.9307 40.4638C32.769 40.5224 32.6074 40.5811 32.4457 40.6399C31.2982 41.0573 30.1457 41.4554 28.9854 41.8359C28.9885 41.7468 28.9916 41.6576 28.9948 41.5657C29.0317 40.3109 28.7835 39.5001 27.9337 38.5799C27.0928 37.7734 26.0353 37.6943 24.9236 37.7018C24.7276 37.7003 24.5315 37.6989 24.3354 37.6974C24.0636 37.6957 23.7917 37.6957 23.5199 37.6958C23.0446 37.696 22.5693 37.6953 22.094 37.6919C21.842 37.6902 21.5899 37.6899 21.3379 37.6912C19.9273 37.6828 18.7506 37.3421 17.6323 36.4796C16.9755 35.9738 16.3124 35.569 15.5631 35.2119C15.4783 35.1712 15.3936 35.1305 15.3063 35.0885C14.8655 34.8853 14.4318 34.7254 13.9622 34.6012C13.8651 34.5754 13.7681 34.5495 13.668 34.5229C13.5949 34.5037 13.5217 34.4846 13.4464 34.4648C13.4371 33.5401 13.43 32.6153 13.4257 31.6905C13.4236 31.2611 13.4208 30.8316 13.4163 30.4022C13.412 29.9876 13.4096 29.5729 13.4085 29.1583C13.4078 29.0003 13.4064 28.8423 13.4042 28.6844C13.4013 28.4626 13.4009 28.2409 13.4011 28.0192C13.4002 27.8931 13.3993 27.767 13.3984 27.6371C13.4663 27.1497 13.6832 26.8418 14.044 26.5148C14.4212 26.2908 14.7756 26.2846 15.2081 26.2856Z" fill="#EA591C"/>
<path d="M30.8863 1.08373C31.0053 1.08359 31.1243 1.08345 31.2469 1.08331C31.4407 1.08385 31.4407 1.08385 31.6384 1.0844C31.7768 1.08443 31.9153 1.08441 32.0538 1.08435C32.4285 1.08433 32.8032 1.08491 33.1779 1.08561C33.57 1.08623 33.962 1.08629 34.3541 1.08641C35.0959 1.08672 35.8378 1.08753 36.5797 1.08853C37.4245 1.08965 38.2693 1.09019 39.1141 1.09069C40.8515 1.09173 42.5888 1.09349 44.3262 1.09571C44.347 2.34341 44.3629 3.59108 44.3726 4.83893C44.3773 5.41839 44.3836 5.99773 44.3938 6.57712C44.4036 7.13644 44.4089 7.69565 44.4112 8.25505C44.4129 8.46829 44.4161 8.68152 44.421 8.89471C44.4574 10.5634 44.4574 10.5634 44.1373 11.0378C43.9061 11.2225 43.7007 11.3389 43.4297 11.4551C43.2717 11.5459 43.1139 11.6371 42.9565 11.729C41.5498 12.3898 40.1183 12.3893 38.6484 11.9531C37.8921 11.6574 37.2885 11.2599 36.6913 10.7119C36.3716 10.5027 36.236 10.4807 35.8594 10.5586C35.2053 11.029 34.6535 11.6551 34.0896 12.2274C33.9311 12.3881 33.7722 12.5484 33.6132 12.7085C33.1618 13.1633 32.7108 13.6185 32.2608 14.0747C31.9841 14.3551 31.7066 14.6348 31.4287 14.9141C31.3235 15.0201 31.2185 15.1265 31.1139 15.2331C30.9678 15.3818 30.8208 15.5295 30.6736 15.6771C30.5488 15.8034 30.5488 15.8034 30.4215 15.9322C29.9862 16.3034 29.577 16.3814 29.0206 16.3675C28.5004 16.2972 28.1158 16.0664 27.7537 15.6947C27.4303 15.1848 27.3206 14.7506 27.3926 14.1445C27.724 13.0529 28.7578 12.2743 29.5508 11.4991C29.8812 11.1755 30.21 10.8503 30.539 10.5253C30.9561 10.1136 31.3736 9.7025 31.793 9.29317C32.1338 8.9605 32.4728 8.62616 32.8107 8.29063C32.9394 8.16351 33.0686 8.03703 33.1986 7.91119C33.3797 7.73553 33.5587 7.5578 33.7372 7.37944C33.7911 7.32824 33.8449 7.27705 33.9004 7.2243C34.169 6.95117 34.2634 6.78785 34.3236 6.40561C34.292 6.08198 34.292 6.08198 34.1241 5.88587C33.7335 5.72088 33.3642 5.7336 32.9441 5.73428C32.8508 5.73326 32.7575 5.73225 32.6613 5.7312C32.353 5.7282 32.0448 5.72728 31.7365 5.72638C31.5227 5.7247 31.3088 5.72289 31.095 5.72096C30.5323 5.71622 29.9697 5.71325 29.407 5.71065C28.8328 5.70769 28.2586 5.70305 27.6844 5.69855C26.5578 5.68998 25.4313 5.68327 24.3047 5.67774C24.9332 4.93795 24.9332 4.93795 25.2196 4.64563C25.2741 4.58978 25.3287 4.53392 25.3849 4.47638C25.4704 4.38981 25.4704 4.38981 25.5576 4.30149C25.6185 4.23978 25.6794 4.17807 25.7422 4.11448C25.8703 3.98502 25.9985 3.8557 26.1269 3.72653C26.2566 3.59572 26.3858 3.46446 26.5145 3.33276C27.7844 2.03401 28.9879 1.08204 30.8863 1.08373Z" fill="#EA591C"/>
<path d="M1 34.6641C2.16258 34.6641 3.3252 34.7056 4.48633 34.7637C4.48633 39.3985 4.48633 44.0333 4.48633 48.8086C3.33584 48.8086 2.18535 48.8086 1 48.8086C1 44.1409 1 39.4732 1 34.6641Z" fill="#EA591C"/>
<path d="M45.7188 1.0957C47.1322 1.0957 48.5457 1.0957 50.002 1.0957C50.002 4.11984 50.002 7.14398 50.002 10.2598C48.5885 10.2598 47.175 10.2598 45.7188 10.2598C45.7188 7.23562 45.7188 4.21148 45.7188 1.0957Z" fill="#EA591C"/>
<path d="M27.2953 11.4551C27.2953 11.9047 27.267 11.9266 26.9715 12.227C26.2266 13.0353 26.0615 13.7999 26.0727 14.8807C26.1317 15.6598 26.4458 16.2813 26.975 16.8511C27.3971 17.1994 27.8918 17.4145 28.391 17.6309C27.869 18.3559 27.0967 18.8739 26.1996 19.0254C24.8237 19.119 23.715 18.9237 22.6136 18.0293C21.917 17.3834 21.452 16.4941 21.3946 15.5449C21.3646 14.3039 21.49 13.3404 22.3175 12.3582C23.6536 10.9586 25.545 10.6083 27.2953 11.4551Z" fill="#EA591C"/>
<path d="M21.8125 26.2969C23.226 26.2969 24.6394 26.2969 26.0957 26.2969C26.0957 27.3159 26.0957 28.3349 26.0957 29.3848C25.5697 29.2796 25.178 29.0795 24.7183 28.8221C24.4628 28.6866 24.2606 28.587 23.9681 28.5914C23.5642 28.739 23.1743 28.9127 22.7837 29.0922C22.6214 29.1661 22.459 29.2399 22.2965 29.3136C22.2251 29.3463 22.1537 29.3791 22.0801 29.4128C21.9121 29.4844 21.9121 29.4844 21.8125 29.4844C21.8125 28.4325 21.8125 27.3806 21.8125 26.2969Z" fill="#EA591C"/>
<path d="M15.4429 13.4473C15.8863 13.6649 16.1589 13.9393 16.439 14.3437C16.6043 14.8399 16.5982 15.2704 16.4265 15.757C16.1686 16.1439 15.8639 16.4242 15.4429 16.6348C14.9193 16.6869 14.4821 16.701 14.0048 16.4667C13.5252 16.0339 13.2696 15.7163 13.2266 15.0597C13.2352 14.5895 13.3533 14.2392 13.6962 13.9009C14.2688 13.4109 14.7044 13.372 15.4429 13.4473Z" fill="#EA591C"/>
</svg>
