<svg width="51" height="51" viewBox="0 0 51 51" fill="none" xmlns="http://www.w3.org/2000/svg">
<path d="M4.35938 16.0438C19.3661 16.0438 34.3729 16.0438 49.8344 16.0438C49.8344 29.6077 49.8344 29.6077 48.8449 30.6531C48.1382 31.1806 47.4294 31.4081 46.555 31.3949C46.4652 31.3952 46.3755 31.3956 46.283 31.396C45.9849 31.3967 45.6869 31.3943 45.3889 31.392C45.1741 31.3919 44.9594 31.392 44.7447 31.3922C44.1636 31.3923 43.5827 31.3898 43.0016 31.3869C42.3937 31.3842 41.7858 31.3839 41.1779 31.3834C40.0276 31.3821 38.8773 31.3786 37.727 31.3744C36.4171 31.3696 35.1071 31.3673 33.7972 31.3652C31.1033 31.3607 28.4095 31.3532 25.7156 31.3438C25.6286 31.19 25.6286 31.19 25.5399 31.0332C25.4629 30.8976 25.3858 30.762 25.3088 30.6264C25.2706 30.559 25.2325 30.4916 25.1933 30.4221C23.463 27.3815 20.4428 25.1921 17.0903 24.2693C13.4095 23.3206 9.62635 23.9046 6.35442 25.808C5.93671 26.0669 5.5506 26.366 5.16538 26.6708C4.89062 26.8813 4.89062 26.8813 4.35938 27.2C4.35938 23.5184 4.35938 19.8369 4.35938 16.0438ZM26.5656 23.5875C26.4771 23.9063 26.4771 23.9063 26.5656 24.225C27.0519 24.6589 27.6315 24.5898 28.2457 24.5861C28.3569 24.5864 28.4681 24.5867 28.5826 24.587C28.8173 24.5872 29.052 24.5867 29.2867 24.5853C29.6456 24.5836 30.0044 24.5853 30.3632 24.5873C30.5915 24.5871 30.8198 24.5867 31.048 24.5861C31.1552 24.5867 31.2623 24.5874 31.3727 24.5881C32.107 24.5882 32.107 24.5882 32.7281 24.225C32.8167 23.9063 32.8167 23.9063 32.7281 23.5875C32.2418 23.1536 31.6622 23.2227 31.048 23.2264C30.9369 23.2261 30.8257 23.2258 30.7111 23.2255C30.4764 23.2253 30.2417 23.2259 30.007 23.2272C29.6481 23.2289 29.2894 23.2272 28.9305 23.2252C28.7022 23.2254 28.474 23.2258 28.2457 23.2264C28.1386 23.2258 28.0314 23.2251 27.921 23.2245C27.1868 23.2244 27.1868 23.2244 26.5656 23.5875ZM36.7656 23.5875C36.6771 23.9063 36.6771 23.9063 36.7656 24.225C37.1662 24.5361 37.4732 24.5839 37.973 24.585C38.1074 24.586 38.2417 24.587 38.3802 24.5881C38.526 24.5875 38.6718 24.5868 38.8176 24.5861C38.968 24.5863 39.1184 24.5866 39.2689 24.587C39.5836 24.5875 39.8983 24.5868 40.213 24.5853C40.6157 24.5835 41.0183 24.5845 41.4209 24.5865C41.7314 24.5876 42.0419 24.5872 42.3523 24.5864C42.5007 24.5862 42.6492 24.5865 42.7976 24.5872C43.0053 24.588 43.2131 24.5866 43.4208 24.585C43.5388 24.5848 43.6568 24.5845 43.7784 24.5842C44.1397 24.5383 44.3414 24.4477 44.6281 24.225C44.7167 23.9063 44.7167 23.9063 44.6281 23.5875C44.2276 23.2764 43.9205 23.2286 43.4208 23.2275C43.2864 23.2265 43.152 23.2255 43.0135 23.2245C42.8678 23.225 42.722 23.2257 42.5762 23.2264C42.4257 23.2262 42.2753 23.2259 42.1249 23.2255C41.8102 23.225 41.4954 23.2257 41.1807 23.2272C40.778 23.229 40.3755 23.228 39.9728 23.2261C39.6623 23.2249 39.3519 23.2253 39.0414 23.2261C38.893 23.2263 38.7446 23.2261 38.5961 23.2253C38.3884 23.2245 38.1807 23.226 37.973 23.2275C37.855 23.2278 37.7369 23.228 37.6153 23.2283C37.254 23.2742 37.0523 23.3648 36.7656 23.5875Z" fill="#EA591C"/>
<path d="M13.4665 24.9356C13.5367 24.9358 13.6068 24.936 13.6791 24.9363C17.1185 24.9543 20.0994 26.2792 22.5509 28.6676C24.8903 31.0377 26.0785 34.1735 26.0638 37.4797C26.0634 37.5849 26.0634 37.5849 26.0631 37.6923C26.0451 41.1316 24.7202 44.1126 22.3317 46.5641C19.9617 48.9033 16.8257 50.0919 13.5196 50.077C13.4494 50.0767 13.3792 50.0764 13.3069 50.0762C9.90066 50.0564 7.0375 48.7559 4.56807 46.4313C4.50398 46.374 4.43988 46.3168 4.37384 46.2578C2.37528 44.3993 1.09046 41.4274 0.933967 38.7272C0.923371 38.3288 0.920598 37.9314 0.922372 37.5328C0.922601 37.4627 0.92283 37.3925 0.923066 37.3203C0.941064 33.8809 2.26597 30.9 4.6544 28.4485C7.0245 26.1091 10.1603 24.9208 13.4665 24.9356ZM17.9595 34.2043C17.6513 34.5135 17.3453 34.8249 17.0397 35.1366C16.6932 35.4896 16.3451 35.841 15.9972 36.1927C15.5564 36.6386 15.116 37.0851 14.6773 37.5331C14.3208 37.897 13.9628 38.2593 13.6037 38.6207C13.4675 38.7584 13.3318 38.8967 13.1967 39.0355C13.0085 39.2288 12.8185 39.4201 12.6278 39.6109C12.5725 39.6688 12.5171 39.7266 12.4601 39.7862C12.214 40.0288 12.0792 40.1616 11.7255 40.1658C11.4477 40.0446 11.2924 39.9227 11.0828 39.7045C11.0104 39.6304 10.9381 39.5563 10.8635 39.48C10.7869 39.3995 10.7103 39.319 10.6314 39.2361C10.4665 39.0675 10.3017 38.8988 10.1369 38.7302C9.87861 38.4634 9.62081 38.1961 9.36331 37.9285C9.1142 37.6704 8.8635 37.414 8.61263 37.1576C8.53624 37.0772 8.45986 36.9967 8.38116 36.9138C7.95051 36.4737 7.95051 36.4737 7.39571 36.2257C7.11905 36.2082 7.11905 36.2082 6.91886 36.3508C6.75856 36.618 6.76472 36.7727 6.79932 37.0813C6.95666 37.3167 6.95666 37.3167 7.1844 37.53C7.26846 37.6147 7.35252 37.6994 7.43913 37.7867C7.53109 37.8766 7.62306 37.9665 7.71781 38.0591C7.81138 38.1524 7.90496 38.2458 8.00137 38.3419C8.25026 38.5895 8.5003 38.8358 8.75088 39.0817C8.95511 39.2827 9.15795 39.4852 9.36075 39.6877C9.60271 39.929 9.84561 40.1695 10.0885 40.4099C10.1798 40.5006 10.2711 40.5914 10.3652 40.6849C10.4503 40.7682 10.5354 40.8516 10.623 40.9375C10.6978 41.0112 10.7726 41.0848 10.8496 41.1607C11.1955 41.4561 11.5401 41.4572 11.9811 41.4828C12.6216 41.3605 13.1174 40.7833 13.5619 40.3404C13.6294 40.274 13.6968 40.2076 13.7663 40.1392C13.9877 39.9209 14.2082 39.7019 14.4286 39.4827C14.5825 39.33 14.7364 39.1773 14.8904 39.0246C15.2121 38.7051 15.5333 38.3851 15.8543 38.0648C16.2659 37.6544 16.6795 37.246 17.0935 36.838C17.4117 36.5237 17.7286 36.208 18.045 35.8918C18.1969 35.7406 18.3493 35.5899 18.5023 35.4397C18.7157 35.2299 18.927 35.0182 19.138 34.8059C19.2015 34.7442 19.2651 34.6826 19.3306 34.6191C19.6112 34.3328 19.7542 34.1582 19.8133 33.7562C19.788 33.457 19.788 33.457 19.5626 33.2695C18.9318 32.9356 18.3813 33.7852 17.9595 34.2043Z" fill="#EA591C"/>
<path d="M8.35221 1.11333C8.52042 1.11269 8.68863 1.11187 8.85684 1.11087C9.31741 1.10869 9.77795 1.10915 10.2385 1.11006C10.7359 1.11058 11.2333 1.10867 11.7306 1.10708C12.7044 1.10437 13.6782 1.10399 14.652 1.10448C15.4436 1.10486 16.2353 1.10449 17.027 1.10359C17.1397 1.10346 17.2525 1.10333 17.3686 1.1032C17.5976 1.10295 17.8267 1.10269 18.0557 1.10243C20.2031 1.10012 22.3504 1.10058 24.4977 1.10187C26.4611 1.10297 28.4245 1.10058 30.3879 1.09654C32.405 1.09242 34.4221 1.09067 36.4393 1.09147C37.5713 1.09187 38.7033 1.09135 39.8353 1.08834C40.7991 1.08581 41.7628 1.08551 42.7265 1.08808C43.218 1.08933 43.7094 1.08957 44.2008 1.08702C44.6513 1.08471 45.1017 1.08538 45.5522 1.08835C45.7146 1.08891 45.877 1.08841 46.0393 1.08671C47.1543 1.07581 48.0973 1.23592 48.9759 1.97871C50.5077 3.61644 49.8344 5.86653 49.8344 7.96873C34.8276 7.96873 19.8209 7.96873 4.35938 7.96873C4.35938 2.90482 4.35938 2.90482 5.34883 1.85936C6.29762 1.16133 7.20785 1.10713 8.35221 1.11333Z" fill="#EA591C"/>
<path d="M4.35938 9.24377C19.3661 9.24377 34.3729 9.24377 49.8344 9.24377C49.8344 11.067 49.8344 12.8903 49.8344 14.7688C34.8276 14.7688 19.8209 14.7688 4.35938 14.7688C4.35938 12.9455 4.35938 11.1223 4.35938 9.24377Z" fill="#EA591C"/>
<path d="M26.3516 32.6188C32.9784 32.6188 39.6052 32.6188 46.4328 32.6188C46.4328 36.4077 46.4328 36.4077 45.4434 37.4531C44.4918 38.153 43.5834 38.2037 42.436 38.192C42.2694 38.1919 42.1028 38.192 41.9362 38.1922C41.4865 38.1923 41.0368 38.1898 40.587 38.1869C40.1161 38.1842 39.6452 38.184 39.1742 38.1835C38.2836 38.1821 37.3929 38.1787 36.5023 38.1744C35.4878 38.1696 34.4734 38.1673 33.4589 38.1652C31.3731 38.1607 29.2873 38.1533 27.2016 38.1438C27.1994 38.0786 27.1972 38.0135 27.195 37.9464C27.1844 37.6451 27.1727 37.3439 27.1609 37.0427C27.1575 36.9403 27.1541 36.8378 27.1506 36.7323C27.0926 35.3079 26.7259 33.9912 26.3516 32.6188Z" fill="#EA591C"/>
<path d="M3.07858 8.07501C3.11733 10.7109 3.14991 13.3469 3.17519 15.9829C3.18707 17.207 3.20095 18.431 3.21959 19.655C3.23583 20.7222 3.24828 21.7894 3.25621 22.8568C3.26055 23.4216 3.26674 23.9862 3.27749 24.551C3.28757 25.0834 3.29253 25.6157 3.2937 26.1482C3.29501 26.3428 3.29812 26.5374 3.30326 26.7319C3.33372 27.9324 3.21302 28.6785 2.38069 29.5767C2.04215 29.943 1.82015 30.34 1.59108 30.7793C1.18743 31.5349 1.18743 31.5349 0.95358 31.7688C0.938672 28.9924 0.927438 26.2161 0.92055 23.4397C0.917266 22.1505 0.912791 20.8614 0.905487 19.5722C0.899123 18.4483 0.895018 17.3243 0.893599 16.2003C0.892769 15.6055 0.890827 15.0107 0.886177 14.4158C0.88183 13.8552 0.880519 13.2947 0.881474 12.7341C0.881299 12.529 0.880043 12.324 0.877587 12.1189C0.864557 10.9745 0.873559 9.99115 1.59108 9.03126C2.5887 8.07501 2.5887 8.07501 3.07858 8.07501Z" fill="#EA591C"/>
</svg>
