<svg width="51" height="51" viewBox="0 0 51 51" fill="none" xmlns="http://www.w3.org/2000/svg">
<path d="M25.3008 26.1973C25.6487 26.3132 25.6484 26.3495 25.8051 26.658C26.5509 27.8908 28.4393 28.5766 29.7805 28.919C30.1512 29.0018 30.4993 29.0699 30.8789 29.0859C30.9859 29.0911 31.0928 29.0962 31.203 29.1015C33.1119 29.1493 34.8662 28.6654 36.457 27.5918C36.5297 27.5448 36.6024 27.4978 36.6773 27.4494C37.1761 27.1063 37.4701 26.7311 37.752 26.1973C38.2062 26.3461 38.5435 26.6036 38.9099 26.9008C38.9712 26.9497 39.0325 26.9987 39.0957 27.0492C39.2792 27.1962 39.462 27.344 39.6445 27.4922C39.7411 27.5703 39.8376 27.6483 39.9371 27.7288C40.6712 28.3263 40.6712 28.3263 41.0002 28.6237C42.391 29.8574 44.0972 30.6459 45.7791 31.4053C47.5582 32.2283 48.6768 33.567 49.4062 35.3613C49.811 36.4847 49.9229 37.5472 49.9228 38.7319C49.923 38.9504 49.9248 39.169 49.9267 39.3875C49.935 41.4758 49.935 41.4758 49.6055 42.1348C47.2059 42.1348 44.8063 42.1348 42.334 42.1348C42.3011 41.2472 42.2682 40.3597 42.2344 39.4453C41.9697 39.1211 41.9697 39.1211 41.6367 39.1029C41.2859 39.1182 41.2859 39.1182 41.0391 39.5449C41.0062 42.0431 40.9733 44.5413 40.9395 47.1152C35.5157 47.1152 30.092 47.1152 24.5039 47.1152C24.479 39.1091 24.479 39.1091 24.4742 36.5837C24.4709 35.8349 24.4709 35.8349 24.4671 35.0861C24.4654 34.7533 24.4648 34.4205 24.4649 34.0876C24.465 33.6623 24.4631 33.237 24.46 32.8117C24.4591 32.6561 24.4589 32.5005 24.4595 32.3449C24.4626 31.3724 24.3995 30.5405 23.8242 29.7248C23.3615 29.2806 22.9188 29.0004 22.3125 28.7871C22.4672 28.3831 22.753 28.1518 23.0782 27.8844C23.1345 27.8376 23.1908 27.7909 23.2488 27.7427C23.6965 27.3749 24.153 27.0187 24.616 26.6704C24.6796 26.6216 24.7433 26.5728 24.8088 26.5225C24.967 26.4058 25.1334 26.3004 25.3008 26.1973Z" fill="#EA591C"/>
<path d="M2.63814 30.0708C2.80863 30.0708 2.80863 30.0708 2.98256 30.0708C3.10572 30.0713 3.22889 30.0718 3.35578 30.0723C3.48152 30.0725 3.60727 30.0726 3.73682 30.0728C4.07121 30.0732 4.4056 30.0741 4.73999 30.0752C5.08117 30.0762 5.42235 30.0767 5.76353 30.0772C6.43304 30.0783 7.10255 30.08 7.77206 30.0821C7.7736 30.1725 7.7736 30.1725 7.77517 30.2647C7.78594 30.8916 7.79736 31.5186 7.80914 32.1455C7.81346 32.3795 7.81761 32.6135 7.8216 32.8475C7.82735 33.1838 7.83369 33.5201 7.84015 33.8563C7.84182 33.961 7.84348 34.0657 7.8452 34.1736C7.84818 34.3202 7.84818 34.3202 7.85122 34.4696C7.85354 34.5984 7.85354 34.5984 7.85591 34.7297C7.87094 34.9521 7.90968 35.1476 7.97128 35.3614C8.24997 35.4543 8.46999 35.4965 8.7522 35.3952C9.66258 34.9077 10.5101 34.2627 11.3471 33.6598C11.4247 33.605 11.5022 33.5502 11.5821 33.4937C11.6463 33.447 11.7105 33.4002 11.7767 33.3521C12.0189 33.2404 12.1027 33.2813 12.3541 33.3692C12.5431 33.4853 12.7279 33.6083 12.9097 33.7353C13.0172 33.8096 13.1247 33.8839 13.2354 33.9604C13.3484 34.0393 13.4614 34.1182 13.5743 34.1972C14.5644 34.9042 14.5644 34.9042 15.6412 35.461C15.9326 35.4178 15.9326 35.4178 16.1392 35.2618C16.2609 35.0185 16.2545 34.8547 16.2593 34.5827C16.2613 34.483 16.2633 34.3833 16.2653 34.2806C16.267 34.1727 16.2687 34.0648 16.2704 33.9536C16.2735 33.7882 16.2735 33.7882 16.2766 33.6195C16.2832 33.2663 16.289 32.9131 16.2949 32.5599C16.2992 32.3208 16.3035 32.0818 16.3079 31.8427C16.3186 31.2559 16.3287 30.669 16.3385 30.0821C17.0814 30.0728 17.8243 30.0657 18.5673 30.0614C18.9124 30.0594 19.2574 30.0565 19.6024 30.052C19.9995 30.0468 20.3965 30.0449 20.7936 30.0432C20.9169 30.0411 21.0402 30.039 21.1672 30.0369C21.6525 30.0368 22.0229 30.0425 22.4724 30.2339C23.2544 31.0338 23.1689 31.9509 23.1635 32.9935C23.164 33.1682 23.1647 33.3428 23.1656 33.5175C23.1674 33.9902 23.1667 34.4629 23.1654 34.9356C23.1644 35.431 23.1653 35.9264 23.166 36.4219C23.1667 37.2536 23.1657 38.0853 23.1638 38.917C23.1617 39.8779 23.1624 40.8388 23.1646 41.7997C23.1664 42.6256 23.1666 43.4515 23.1656 44.2774C23.165 44.7703 23.1649 45.2631 23.1662 45.756C23.1674 46.2194 23.1666 46.6827 23.1643 47.146C23.1637 47.3158 23.1639 47.4856 23.1648 47.6555C23.1659 47.8877 23.1645 48.1198 23.1625 48.3521C23.1623 48.4819 23.1622 48.6117 23.162 48.7454C23.0832 49.3148 22.8701 49.6833 22.4084 50.0413C21.9428 50.2989 21.5643 50.3176 21.0452 50.3174C20.9658 50.3178 20.8864 50.3182 20.8046 50.3185C20.5375 50.3196 20.2705 50.32 20.0035 50.3204C19.8124 50.321 19.6213 50.3217 19.4302 50.3224C18.9103 50.3241 18.3905 50.3252 17.8706 50.326C17.5458 50.3265 17.221 50.3271 16.8962 50.3277C15.88 50.3296 14.8639 50.3311 13.8477 50.3319C12.6747 50.3329 11.5017 50.3355 10.3286 50.3395C9.42202 50.3425 8.51542 50.344 7.60881 50.3443C7.06731 50.3445 6.52582 50.3454 5.98432 50.3479C5.47472 50.3503 4.96514 50.3507 4.45553 50.3497C4.26874 50.3496 4.08194 50.3502 3.89515 50.3516C3.63957 50.3534 3.38412 50.3527 3.12855 50.3514C3.05511 50.3524 2.98167 50.3535 2.906 50.3547C2.3687 50.348 1.94327 50.2079 1.49667 49.9043C1.03494 49.336 0.98629 48.9157 0.984632 48.1995C0.984336 48.128 0.98404 48.0566 0.983735 47.983C0.982871 47.7436 0.98272 47.5042 0.982571 47.2648C0.98211 47.0931 0.981609 46.9215 0.981072 46.7498C0.979766 46.2835 0.979123 45.8171 0.978681 45.3507C0.978389 45.0593 0.97798 44.7679 0.977535 44.4765C0.976173 43.5647 0.97521 42.6528 0.974825 41.741C0.974379 40.6886 0.97263 39.6362 0.969745 38.5838C0.967591 37.7701 0.966587 36.9565 0.966454 36.1429C0.966349 35.657 0.965761 35.1711 0.963981 34.6853C0.96234 34.2281 0.962125 33.771 0.962999 33.3139C0.963076 33.1464 0.962644 32.9788 0.961659 32.8112C0.960391 32.582 0.960978 32.3529 0.962015 32.1237C0.961869 31.9956 0.961723 31.8675 0.961573 31.7355C1.00987 31.2682 1.13295 30.8664 1.45037 30.5062C1.89046 30.1798 2.09385 30.0696 2.63814 30.0708ZM2.8912 44.8243C2.81647 45.0776 2.81647 45.0776 2.8912 45.3223C3.0775 45.5459 3.22876 45.6903 3.48886 45.8203C3.63367 45.8313 3.77897 45.8362 3.92418 45.838C4.0143 45.8393 4.10441 45.8405 4.19725 45.8419C4.29489 45.8426 4.39253 45.8433 4.49312 45.8441C4.64348 45.8453 4.64348 45.8453 4.79688 45.8465C5.00931 45.8479 5.22175 45.849 5.43418 45.8498C5.75885 45.8515 6.08343 45.8558 6.40807 45.8602C6.61436 45.8612 6.82065 45.8621 7.02693 45.8628C7.12396 45.8645 7.221 45.8662 7.32097 45.868C7.75427 45.8667 8.00193 45.8621 8.37893 45.6337C8.60305 45.3839 8.66854 45.2596 8.66854 44.9239C8.49411 44.5541 8.49411 44.5541 8.1705 44.3262C8.01959 44.3148 7.8682 44.3093 7.71688 44.307C7.62278 44.3054 7.52868 44.3038 7.43172 44.3021C7.00117 44.2977 6.57063 44.2936 6.14006 44.2913C5.91291 44.2897 5.68577 44.287 5.45865 44.2832C5.13133 44.2777 4.80413 44.2755 4.47678 44.2741C4.37539 44.2718 4.274 44.2696 4.16954 44.2672C3.57351 44.269 3.25797 44.3041 2.8912 44.8243ZM3.02016 47.2489C2.85438 47.5893 2.8744 47.7544 2.99081 48.1114C3.15404 48.3254 3.23997 48.4012 3.50752 48.4495C3.63433 48.4507 3.63433 48.4507 3.76371 48.452C3.85979 48.4536 3.95588 48.4552 4.05488 48.4568C4.15854 48.4568 4.2622 48.4569 4.369 48.4569C4.47573 48.4576 4.58246 48.4584 4.69243 48.4592C4.91833 48.4603 5.14424 48.4605 5.37015 48.4601C5.71562 48.46 6.06088 48.4641 6.40632 48.4686C6.62577 48.4691 6.84522 48.4693 7.06468 48.4693C7.16793 48.471 7.27119 48.4726 7.37757 48.4743C7.85619 48.4697 8.0939 48.4664 8.48863 48.1769C8.6977 47.9226 8.6977 47.9226 8.66854 47.6009C8.5664 47.3072 8.51104 47.2019 8.27011 47.0157C8.04232 46.9691 8.04232 46.9691 7.78531 46.9738C7.68691 46.9722 7.5885 46.9707 7.48712 46.969C7.32789 46.969 7.32789 46.969 7.16545 46.969C7.00168 46.9678 7.00168 46.9678 6.83461 46.9667C6.6036 46.9656 6.37258 46.9653 6.14156 46.9658C5.78778 46.9659 5.43422 46.9617 5.08047 46.9573C4.85615 46.9568 4.63183 46.9565 4.40752 46.9565C4.30157 46.9549 4.19562 46.9533 4.08646 46.9516C3.5009 46.9469 3.5009 46.9469 3.02016 47.2489Z" fill="#EA591C"/>
<path d="M22.3099 11.4551C22.5718 11.6874 22.7003 11.9165 22.8453 12.2333C23.2373 13.0311 23.6815 13.4776 24.5013 13.8457C25.3447 14.0953 26.1769 13.9063 27.0102 13.7087C30.2278 12.9968 34.0887 12.8911 37.2513 13.9453C38.172 14.0591 38.8816 13.8821 39.6419 13.3477C40.194 12.8169 40.5244 12.1457 40.8373 11.4551C40.8701 11.4551 40.903 11.4551 40.9369 11.4551C41.0158 12.613 40.5959 13.7932 39.8439 14.6733C39.5534 14.9157 39.3137 14.8484 38.9447 14.8418C38.7204 14.9423 38.7204 14.9423 38.5462 15.1406C38.452 15.4386 38.452 15.4386 38.4124 15.785C38.3833 15.9783 38.3833 15.9783 38.3536 16.1756C38.3347 16.3121 38.3159 16.4485 38.2972 16.585C37.9563 19.0265 36.999 20.3919 35.1478 21.9526C35.0113 22.0696 34.8784 22.1908 34.7479 22.3144C33.732 23.2684 32.6884 23.6591 31.3051 23.6319C29.8205 23.5214 28.8846 22.7553 27.8927 21.7269C27.6561 21.4818 27.4126 21.2516 27.1534 21.03C25.6168 19.7097 25.2002 18.3507 24.927 16.3907C24.8988 16.1909 24.8684 15.9914 24.8379 15.792C24.821 15.6741 24.8041 15.5561 24.7867 15.4346C24.7236 15.1344 24.7236 15.1344 24.5137 14.9489C24.2914 14.8135 24.2914 14.8135 23.9659 14.8667C23.5815 14.8402 23.5396 14.8317 23.2936 14.5679C22.6427 13.7082 22.2546 12.5344 22.3099 11.4551ZM29.0834 18.5273C28.9137 18.7616 28.8793 18.8773 28.9079 19.1662C29.0423 19.6225 29.4031 19.8544 29.7806 20.1211C30.633 20.5849 31.5055 20.7891 32.4654 20.544C33.2536 20.2695 33.8899 19.9265 34.3626 19.2246C34.3626 18.9264 34.3101 18.7925 34.1385 18.5522C33.9094 18.3886 33.7467 18.3535 33.4662 18.3281C33.2249 18.4406 33.2249 18.4406 33.0055 18.6145C32.3589 19.0889 31.7644 19.0959 30.9759 19.0254C30.6934 18.9256 30.5258 18.8071 30.2787 18.627C29.825 18.3383 29.5618 18.2186 29.0834 18.5273Z" fill="#EA591C"/>
<path d="M29.2774 0.667299C29.4693 0.666911 29.6612 0.666479 29.853 0.666005C30.2537 0.665265 30.6544 0.665289 31.0551 0.665815C31.5653 0.666392 32.0756 0.664705 32.5858 0.662394C32.9817 0.660918 33.3775 0.660841 33.7734 0.66115C33.9614 0.661099 34.1493 0.660586 34.3373 0.659575C36.0701 0.6514 37.5126 0.784528 38.8345 2.01708C39.7262 2.95454 39.9828 4.03918 39.9683 5.29797C39.968 5.39191 39.9678 5.48585 39.9675 5.58264C39.9664 5.87998 39.9639 6.17728 39.9613 6.4746C39.9603 6.67732 39.9594 6.88004 39.9586 7.08277C39.9564 7.57732 39.953 8.07186 39.9489 8.5664C38.914 8.25899 38.914 8.25899 38.4497 8.09987C33.708 6.50901 28.6942 6.61527 24.0168 8.39938C23.785 8.47572 23.5539 8.52267 23.3141 8.5664C23.3067 7.99066 23.3013 7.41494 23.2977 6.83916C23.2962 6.64373 23.2942 6.44831 23.2916 6.25289C23.2694 4.54886 23.3706 3.18362 24.5717 1.86767C25.9 0.617822 27.5739 0.665856 29.2774 0.667299ZM29.1325 3.37134C28.9407 3.66386 28.9418 3.8402 28.9918 4.18359C29.1265 4.43277 29.2037 4.55423 29.4763 4.64133C29.8334 4.70895 30.1945 4.69998 30.5568 4.70187C30.641 4.70244 30.7253 4.703 30.8121 4.70359C30.9901 4.70453 31.1681 4.70518 31.3461 4.70556C31.6174 4.70653 31.8886 4.70962 32.1599 4.71276C32.3332 4.71341 32.5064 4.71394 32.6797 4.71432C32.7604 4.71555 32.841 4.71678 32.9241 4.71805C33.4127 4.71613 33.7483 4.65428 34.1715 4.38281C34.3147 4.09646 34.3092 3.90279 34.2711 3.58593C34.0585 3.34395 33.8833 3.20683 33.5613 3.15036C33.3 3.13471 33.0415 3.13228 32.7797 3.13458C32.6841 3.1342 32.5885 3.13381 32.4899 3.13342C32.2882 3.13315 32.0865 3.13388 31.8849 3.13555C31.5761 3.13768 31.2676 3.13557 30.9589 3.13302C30.7628 3.13328 30.5666 3.13379 30.3704 3.13458C30.2782 3.13377 30.1859 3.13296 30.0909 3.13213C29.5775 3.13632 29.5775 3.13632 29.1325 3.37134Z" fill="#EA591C"/>
<path d="M39.75 10.0606C39.7829 10.1263 39.8157 10.1921 39.8496 10.2598C39.7519 10.5259 39.6477 10.7798 39.5321 11.038C39.5017 11.1089 39.4714 11.1799 39.4401 11.253C39.2084 11.778 38.963 12.3193 38.399 12.5446C38.0496 12.6533 37.8071 12.6439 37.45 12.5703C37.3537 12.5511 37.2574 12.5319 37.1582 12.5122C37.0113 12.482 37.0113 12.482 36.8613 12.4512C36.6788 12.4165 36.4962 12.3821 36.3135 12.3481C36.0395 12.2969 35.7655 12.2457 35.4917 12.1934C34.2142 11.9566 32.9522 11.9293 31.6567 11.9282C31.5682 11.9281 31.4796 11.928 31.3883 11.9279C29.8095 11.9292 28.2922 12.0325 26.7467 12.371C26.6563 12.3905 26.566 12.41 26.4729 12.4301C26.304 12.4676 26.1356 12.5074 25.968 12.5501C25.4108 12.6791 25.0078 12.6495 24.5098 12.3516C24.1259 11.9829 23.9416 11.5212 23.7378 11.038C23.7063 10.9659 23.6749 10.8938 23.6425 10.8195C23.4141 10.2881 23.4141 10.2881 23.4141 10.0606C25.0124 9.41379 26.6018 8.90027 28.2949 8.56643C28.4049 8.54469 28.4049 8.54469 28.5172 8.52251C32.053 7.87091 36.5769 8.32586 39.75 10.0606Z" fill="#EA591C"/>
<path d="M42.3281 43.6289C44.7277 43.6289 47.1273 43.6289 49.5996 43.6289C49.8984 46.0195 49.8984 46.0195 49.8984 47.1152C47.4002 47.1152 44.902 47.1152 42.3281 47.1152C42.3281 45.9647 42.3281 44.8143 42.3281 43.6289Z" fill="#EA591C"/>
<path d="M27.6875 23.6074C28.0306 23.7332 28.3072 23.8791 28.6027 24.093C29.8473 24.9365 31.2737 25.16 32.7365 24.8961C33.6021 24.699 34.439 24.3423 35.136 23.7845C35.3574 23.6074 35.3574 23.6074 35.5566 23.6074C35.6937 23.9282 35.8277 24.2502 35.9613 24.5724C36.0001 24.6632 36.039 24.7541 36.079 24.8477C36.1153 24.936 36.1516 25.0242 36.1889 25.1152C36.2228 25.196 36.2567 25.2769 36.2917 25.3602C36.3659 25.6477 36.3469 25.8169 36.2539 26.0977C36.0443 26.2722 35.8564 26.4072 35.6251 26.5459C35.5624 26.5846 35.4997 26.6233 35.4351 26.6632C33.7469 27.6809 31.8355 27.9673 29.8976 27.5918C28.9773 27.3398 28.095 26.8717 27.2976 26.3521C27.2409 26.3154 27.1842 26.2786 27.1258 26.2408C26.9315 26.0356 26.9122 25.8789 26.8906 25.5996C26.9525 25.3602 26.9525 25.3602 27.0552 25.1152C27.0915 25.0269 27.1278 24.9386 27.1651 24.8477C27.2234 24.7114 27.2234 24.7114 27.2828 24.5724C27.3213 24.4796 27.3598 24.3868 27.3994 24.2913C27.4943 24.0628 27.5903 23.8349 27.6875 23.6074Z" fill="#EA591C"/>
<path d="M9.25781 30.082C11.1315 30.082 13.0051 30.082 14.9355 30.082C14.9355 31.1668 14.9355 32.2515 14.9355 33.3691C14.5431 33.2122 14.2878 33.0824 13.9523 32.8454C13.8622 32.7831 13.7721 32.7209 13.6793 32.6567C13.4916 32.5256 13.3043 32.3939 13.1175 32.2614C13.0273 32.1994 12.9371 32.1373 12.8441 32.0734C12.7628 32.0163 12.6815 31.9591 12.5977 31.9002C12.282 31.7438 12.097 31.729 11.748 31.7754C11.4536 31.9182 11.4536 31.9182 11.1702 32.124C11.0648 32.1959 10.9593 32.2678 10.8506 32.3419C10.7409 32.4186 10.6312 32.4954 10.5216 32.5723C10.3044 32.7221 10.0867 32.8713 9.86909 33.0205C9.77326 33.0873 9.67743 33.154 9.5787 33.2228C9.35742 33.3691 9.35742 33.3691 9.25781 33.3691C9.25781 32.2844 9.25781 31.1996 9.25781 30.082Z" fill="#EA591C"/>
</svg>
