<svg width="1440" height="160" viewBox="0 0 1440 160" fill="none" xmlns="http://www.w3.org/2000/svg">
<path d="M14.0049 149.644L0 145.502V0H1440V158.447L1428 155.858L1417.49 158.447H1375.48L1359.97 155.858H1339.97L1331.96 152.233L1317.96 155.858H1306.95L1296.95 152.233H1282.95L1271.94 155.858L1262.94 152.233L1246.93 151.197L1227.93 152.233L1212.42 151.197L1196.92 145.502L1167.91 152.233L1155.4 151.197H1128.39L1120.89 149.644L1110.39 152.233H1096.38L1087.88 155.858H1077.87L1065.87 152.233L1047.36 160L1029.36 155.858L1009.85 160L994.845 155.858H982.341H961.834L954.331 152.233H939.826L919.319 155.858H911.817L906.315 152.233H891.31L878.805 151.197L877.305 152.233L871.803 149.126L847.794 152.233H842.292H829.788L817.284 155.858H803.279H780.771C773.569 152.958 761.098 154.649 755.762 155.858C749.76 154.649 737.256 152.233 735.255 152.233H726.752C725.952 152.233 720.75 154.649 718.249 155.858L691.24 149.644L684.738 152.233L663.23 149.644V153.786L632.72 149.644H618.215H608.711L595.707 143.948H554.192L540.688 149.644H532.185H516.179H506.676C503.175 147.745 495.472 143.948 492.671 143.948C489.87 143.948 481.501 147.745 477.666 149.644H458.659C455.325 146.019 446.455 139.806 437.652 143.948C428.849 148.091 416.311 149.471 411.143 149.644L404.641 154.822C401.806 153.096 395.237 149.644 391.636 149.644C388.035 149.644 382.8 153.096 380.632 154.822C379.298 156.375 373.83 158.55 362.626 154.822C351.422 151.094 339.618 153.269 335.116 154.822H323.612H313.109H307.107L281.598 149.644H255.089H243.084L229.08 154.822H203.071H181.563H163.057L137.548 149.644L131.546 159.482H118.541L95.033 154.822H80.0278H61.5214C58.3203 154.822 45.8493 151.37 40.0139 149.644L22.5078 145.502L14.0049 141.877V149.644Z" fill="url(#paint0_linear_32_141)"/>
<defs>
<linearGradient id="paint0_linear_32_141" x1="746" y1="238" x2="747.5" y2="-419.5" gradientUnits="userSpaceOnUse">
<stop stop-color="#F4F4F4"/>
<stop offset="0.606577" stop-color="#FBFBFB"/>
<stop offset="1" stop-color="white"/>
</linearGradient>
</defs>
</svg>
