<svg width="51" height="51" viewBox="0 0 51 51" fill="none" xmlns="http://www.w3.org/2000/svg">
<g clip-path="url(#clip0_125_11552)">
<path d="M7.16699 16.6122C7.28062 16.6122 7.39425 16.6122 7.51132 16.6122C7.63243 16.6132 7.75354 16.6143 7.87831 16.6153C8.00349 16.6156 8.12867 16.6159 8.25764 16.6162C8.58876 16.6171 8.91985 16.6189 9.25096 16.6211C9.58951 16.6232 9.92806 16.6241 10.2666 16.6251C10.9296 16.6273 11.5927 16.6306 12.2557 16.6348C12.2562 16.8113 12.2562 16.8113 12.2568 16.9914C12.2605 18.0994 12.2662 19.2075 12.274 20.3156C12.2779 20.8853 12.2811 21.4549 12.2827 22.0246C12.2842 22.5743 12.2876 23.1239 12.2924 23.6735C12.2938 23.8834 12.2946 24.0932 12.2947 24.3031C12.2949 24.5967 12.2976 24.8902 12.3009 25.1838C12.3004 25.2708 12.2999 25.3579 12.2994 25.4476C12.3073 25.9331 12.3073 25.9331 12.5396 26.3513C12.8327 26.5495 13.0037 26.5449 13.3514 26.4961C13.6095 26.3803 13.6095 26.3803 13.8498 26.2093C13.94 26.1505 14.0302 26.0916 14.1232 26.0309C14.3105 25.905 14.4978 25.7789 14.685 25.6527C14.7751 25.594 14.8652 25.5353 14.958 25.4747C15.0392 25.42 15.1204 25.3652 15.2041 25.3088C15.5049 25.1734 15.6316 25.196 15.9412 25.3008C16.1712 25.4218 16.1712 25.4218 16.4046 25.572C16.4902 25.6256 16.5758 25.6792 16.664 25.7345C16.842 25.8479 17.0196 25.9618 17.197 26.0761C17.8148 26.4831 17.8148 26.4831 18.5311 26.4961C18.7247 26.344 18.818 26.255 18.8682 26.0112C18.8687 25.9409 18.8691 25.8707 18.8696 25.7983C18.8709 25.7174 18.8721 25.6366 18.8734 25.5533C18.8733 25.4649 18.8731 25.3766 18.873 25.2856C18.874 25.1922 18.875 25.0989 18.876 25.0028C18.8791 24.694 18.88 24.3852 18.8809 24.0763C18.8825 23.8623 18.8844 23.6484 18.8863 23.4344C18.891 22.8709 18.894 22.3074 18.8966 21.744C18.8996 21.1691 18.9042 20.5942 18.9087 20.0194C18.9173 18.8912 18.924 17.763 18.9295 16.6348C19.6577 16.6302 20.386 16.6266 21.1142 16.6245C21.4524 16.6234 21.7906 16.622 22.1289 16.6198C22.5183 16.6172 22.9077 16.6162 23.2971 16.6153C23.478 16.6138 23.478 16.6138 23.6626 16.6122C24.3704 16.6121 24.9536 16.6219 25.5722 16.9959C26.3154 17.7591 26.256 18.6129 26.2462 19.6102C26.2461 19.7729 26.2462 19.9355 26.2464 20.0982C26.2465 20.5322 26.2442 20.9661 26.2413 21.4001C26.2391 21.8079 26.239 22.2158 26.2387 22.6236C26.2366 23.8148 26.231 25.0061 26.2259 26.1973C26.2177 28.8598 26.2095 31.5224 26.201 34.2656C19.1994 34.2656 12.1979 34.2656 4.9842 34.2656C4.97803 31.6544 4.97187 29.0432 4.96552 26.3529C4.9628 25.529 4.96008 24.7051 4.95727 23.8563C4.95592 22.8487 4.95592 22.8487 4.95567 22.3767C4.9554 22.0477 4.95428 21.7187 4.95265 21.3897C4.95059 20.9694 4.94998 20.5491 4.95041 20.1288C4.95032 19.9749 4.94973 19.8211 4.94857 19.6672C4.9358 17.8882 4.9358 17.8882 5.44372 17.2204C5.49958 17.1771 5.55543 17.1338 5.61298 17.0893C5.69561 17.0216 5.69561 17.0216 5.7799 16.9527C6.22481 16.6892 6.65561 16.6099 7.16699 16.6122Z" fill="#EA591C"/>
<path d="M32.5791 19.9059C32.7354 19.9044 32.7354 19.9044 32.8948 19.9029C33.0091 19.9023 33.1233 19.9017 33.241 19.9011C33.3614 19.9001 33.4818 19.8992 33.6058 19.8982C34.005 19.8952 34.4043 19.893 34.8036 19.8912C34.9055 19.8907 34.9055 19.8907 35.0096 19.8902C35.651 19.8871 36.2925 19.8844 36.9339 19.8828C37.7536 19.8806 38.5732 19.8764 39.3928 19.8695C39.9696 19.8648 40.5463 19.8623 41.1231 19.8616C41.4674 19.8611 41.8116 19.8596 42.1559 19.8557C42.5403 19.8513 42.9246 19.8517 43.309 19.8525C43.4224 19.8505 43.5359 19.8485 43.6528 19.8464C44.2807 19.8522 44.6461 19.9138 45.095 20.3692C45.2593 20.5612 45.4192 20.749 45.5645 20.9561C45.6193 21.0333 45.6741 21.1105 45.7306 21.19C45.7852 21.2687 45.8398 21.3474 45.896 21.4285C46.0075 21.5865 46.1191 21.7445 46.2306 21.9024C46.2789 21.9716 46.3271 22.0409 46.3768 22.1122C46.4761 22.2525 46.5796 22.3899 46.686 22.5249C46.8174 22.711 46.8174 22.711 46.8174 22.9102C46.6985 22.9105 46.5797 22.9109 46.4573 22.9113C45.3347 22.915 44.2122 22.9207 43.0896 22.9285C42.5126 22.9324 41.9356 22.9356 41.3585 22.9372C40.8011 22.9387 40.2438 22.9421 39.6864 22.9469C39.4743 22.9483 39.2621 22.9491 39.05 22.9492C38.7517 22.9495 38.4536 22.9522 38.1553 22.9554C38.0685 22.9549 37.9818 22.9544 37.8924 22.9539C37.1828 22.9658 36.4733 23.1246 35.9347 23.611C35.8917 23.6776 35.8486 23.7442 35.8043 23.8129C35.759 23.8798 35.7137 23.9467 35.667 24.0156C35.4426 24.4189 35.4471 24.7646 35.4427 25.2186C35.4419 25.291 35.4411 25.3634 35.4402 25.4381C35.4378 25.6779 35.4361 25.9178 35.4347 26.1576C35.4339 26.2808 35.4339 26.2808 35.4331 26.4065C35.4304 26.8415 35.4285 27.2766 35.427 27.7116C35.4257 28.0707 35.4229 28.4296 35.4189 28.7886C35.4139 29.223 35.4115 29.6573 35.4108 30.0917C35.4101 30.2567 35.4086 30.4217 35.4062 30.5866C35.376 31.8644 35.376 31.8644 35.96 32.9707C36.4082 33.3698 36.8399 33.4809 37.4294 33.4845C37.6085 33.486 37.6085 33.486 37.7913 33.4875C37.988 33.4884 37.988 33.4884 38.1888 33.4892C38.3282 33.4902 38.4676 33.4912 38.607 33.4922C38.9856 33.4949 39.3643 33.497 39.7429 33.499C40.1386 33.5012 40.5342 33.5039 40.9298 33.5066C41.6791 33.5115 42.4284 33.516 43.1777 33.5203C44.0307 33.5252 44.8837 33.5307 45.7367 33.5362C47.4914 33.5476 49.2462 33.5582 51.001 33.5684C51.0079 34.8326 51.0132 36.0967 51.0165 37.3609C51.018 37.9479 51.0201 38.5349 51.0235 39.1219C51.0268 39.6883 51.0286 40.2547 51.0293 40.8211C51.0299 41.0373 51.031 41.2535 51.0326 41.4696C51.0347 41.7723 51.035 42.0748 51.0349 42.3775C51.036 42.467 51.037 42.5564 51.0382 42.6486C51.0351 43.2626 50.9166 43.5868 50.5029 44.0523C50.1215 44.386 49.7137 44.3393 49.2349 44.3359C49.1601 44.3358 49.0854 44.3356 49.0083 44.3355C48.7698 44.3349 48.5313 44.3337 48.2928 44.3324C48.131 44.3319 47.9692 44.3315 47.8074 44.3311C47.411 44.33 47.0146 44.3282 46.6182 44.3262C46.6057 44.2321 46.5933 44.138 46.5805 44.0411C46.5635 43.9167 46.5465 43.7924 46.5291 43.6643C46.5125 43.5415 46.496 43.4186 46.4789 43.292C46.2604 41.9793 45.5536 40.7885 44.5264 39.9434C43.1386 38.9613 41.6289 38.5866 39.9443 38.8477C38.5378 39.1787 37.2807 39.9632 36.4767 41.1761C35.8597 42.2176 35.6953 43.0814 35.4619 44.3262C34.0485 44.3262 32.635 44.3262 31.1787 44.3262C31.1652 41.3306 31.1545 38.3351 31.1482 35.3395C31.1474 34.9858 31.1467 34.632 31.1459 34.2783C31.1457 34.2079 31.1456 34.1375 31.1454 34.0649C31.1428 32.925 31.1381 31.785 31.1326 30.6451C31.127 29.4752 31.1237 28.3054 31.1225 27.1356C31.1217 26.4785 31.1199 25.8215 31.1155 25.1645C31.1115 24.5462 31.1102 23.9279 31.1111 23.3095C31.1109 23.0825 31.1098 22.8555 31.1075 22.6285C31.1045 22.3186 31.1052 22.0088 31.1068 21.6989C31.1042 21.5641 31.1042 21.5641 31.1016 21.4267C31.1096 20.8612 31.2308 20.5629 31.619 20.1493C31.9182 19.9064 32.2102 19.9087 32.5791 19.9059Z" fill="#EA591C"/>
<path d="M1.66022 35.7875C1.83902 35.7867 1.83902 35.7867 2.02143 35.7859C2.35201 35.7851 2.68237 35.787 3.01293 35.79C3.36947 35.7926 3.726 35.7917 4.08254 35.7912C4.70016 35.7909 5.31775 35.7928 5.93536 35.7962C6.82832 35.801 7.72127 35.8026 8.61424 35.8033C10.063 35.8046 11.5118 35.8086 12.9605 35.8143C14.3679 35.8197 15.7752 35.824 17.1826 35.8265C17.3127 35.8268 17.3127 35.8268 17.4454 35.827C17.8806 35.8278 18.3158 35.8285 18.751 35.8293C22.3614 35.8355 25.9717 35.8465 29.5821 35.8593C29.5821 38.6534 29.5821 41.4474 29.5821 44.3261C24.9472 44.3261 20.3124 44.3261 15.5371 44.3261C15.4385 43.8002 15.3399 43.2743 15.2383 42.7324C14.6502 41.0352 13.6889 39.9768 12.0971 39.1943C10.7169 38.6046 9.23279 38.625 7.8423 39.1714C6.31329 39.8614 5.26145 40.9592 4.66647 42.5328C4.49362 43.1243 4.43629 43.7142 4.38088 44.3261C3.85094 44.336 3.32105 44.3432 2.79104 44.348C2.61085 44.35 2.43066 44.3527 2.25048 44.3562C1.99109 44.361 1.73179 44.3633 1.47236 44.3651C1.35202 44.3681 1.35202 44.3681 1.22925 44.3713C0.831826 44.3714 0.642173 44.3557 0.298131 44.1369C-0.045155 43.7786 -0.0162173 43.5365 -0.0211491 43.0479C-0.0219637 42.9779 -0.0227782 42.9079 -0.0236174 42.8358C-0.0260931 42.6036 -0.0277384 42.3715 -0.0291743 42.1394C-0.0297046 42.0601 -0.0302348 41.9808 -0.0307812 41.8991C-0.0334441 41.4793 -0.0353738 41.0594 -0.0368103 40.6396C-0.0384671 40.2064 -0.0429261 39.7732 -0.0480036 39.34C-0.05136 39.0066 -0.0525068 38.6731 -0.0530693 38.3397C-0.0537375 38.18 -0.0552526 38.0204 -0.0576404 37.8608C-0.0607983 37.6368 -0.0607963 37.4131 -0.060059 37.1892C-0.0608645 37.0619 -0.0616701 36.9347 -0.0625 36.8036C-0.0019586 36.4571 0.0825377 36.249 0.316145 35.985C0.707244 35.7119 1.20159 35.7803 1.66022 35.7875Z" fill="#EA591C"/>
<path d="M37.5962 24.4573C37.687 24.4546 37.7779 24.4518 37.8715 24.449C37.971 24.4476 38.0706 24.4462 38.1731 24.4447C38.2781 24.4421 38.3831 24.4395 38.4912 24.4368C38.8396 24.4289 39.1879 24.4235 39.5363 24.4187C39.6554 24.417 39.7745 24.4153 39.8973 24.4135C40.5283 24.4049 41.1594 24.3986 41.7905 24.3938C42.3119 24.3894 42.833 24.3804 43.3542 24.3673C43.9843 24.3514 44.6141 24.3435 45.2444 24.3411C45.4839 24.3389 45.7235 24.334 45.9629 24.3263C47.7862 24.2708 47.7862 24.2708 48.3257 24.66C48.6945 25.0308 48.9584 25.4481 49.2017 25.9086C49.3411 26.1647 49.5122 26.391 49.6906 26.621C49.7945 26.764 49.8983 26.907 50.0019 27.0502C50.0549 27.1227 50.108 27.1952 50.1626 27.2698C50.2143 27.3413 50.2661 27.4128 50.3194 27.4864C50.364 27.5477 50.4085 27.609 50.4544 27.6722C50.8687 28.2958 51.0581 28.6708 51.0369 29.4186C51.0363 29.495 51.0358 29.5714 51.0352 29.6501C51.033 29.8917 51.028 30.1331 51.0229 30.3747C51.0209 30.5394 51.0191 30.7042 51.0175 30.869C51.0131 31.2708 51.0062 31.6725 50.998 32.0742C49.1979 32.0835 47.3978 32.0906 45.5977 32.0949C44.7619 32.0969 43.9261 32.0997 43.0904 32.1043C42.362 32.1083 41.6337 32.1108 40.9054 32.1117C40.5196 32.1122 40.1338 32.1135 39.7481 32.1164C39.3851 32.1191 39.0222 32.1199 38.6593 32.1193C38.4622 32.1195 38.2652 32.1216 38.0681 32.1238C37.9512 32.1233 37.8343 32.1227 37.7139 32.1222C37.612 32.1225 37.5102 32.1229 37.4053 32.1233C37.1523 32.0742 37.1523 32.0742 36.9702 31.8912C36.8061 31.5884 36.8155 31.3478 36.8148 31.0044C36.8143 30.9378 36.8138 30.8712 36.8132 30.8025C36.8119 30.583 36.8128 30.3635 36.8138 30.1439C36.8136 29.9911 36.8133 29.8383 36.8129 29.6855C36.8125 29.3655 36.8131 29.0456 36.8145 28.7257C36.8162 28.3155 36.8152 27.9053 36.8134 27.4951C36.8124 27.1797 36.8127 26.8643 36.8135 26.5489C36.8137 26.3976 36.8134 26.2463 36.8127 26.095C36.812 25.8837 36.8131 25.6726 36.8148 25.4613C36.815 25.341 36.8153 25.2208 36.8155 25.0969C36.8535 24.8028 36.8535 24.8028 36.9775 24.6379C37.1975 24.4693 37.3207 24.4635 37.5962 24.4573Z" fill="#EA591C"/>
<path d="M29.6596 2.6496C30.0719 2.70119 30.2002 2.83639 30.4924 3.12802C30.54 3.17467 30.5875 3.22131 30.6365 3.26937C30.7927 3.42351 30.9467 3.57971 31.1007 3.73614C31.2089 3.84423 31.3173 3.95223 31.4257 4.06013C31.6524 4.28646 31.8781 4.51381 32.1031 4.74196C32.391 5.0339 32.6814 5.32334 32.9726 5.61208C33.1967 5.83471 33.4195 6.05854 33.6419 6.28275C33.7485 6.38993 33.8555 6.49675 33.9628 6.60321C34.1128 6.75243 34.2611 6.90317 34.4091 7.05442C34.4938 7.1398 34.5785 7.22518 34.6657 7.31315C34.8943 7.61733 34.9658 7.78697 34.9586 8.16797C34.7848 8.42825 34.7848 8.42825 34.5206 8.69143C34.449 8.76419 34.449 8.76419 34.3759 8.83842C34.2177 8.99814 34.0571 9.15522 33.8963 9.31231C33.7856 9.42276 33.675 9.53333 33.5645 9.64403C33.3326 9.87562 33.0996 10.106 32.8656 10.3355C32.5659 10.6295 32.2687 10.9259 31.9723 11.2231C31.7441 11.4516 31.5148 11.6791 31.2852 11.9063C31.1753 12.0152 31.0656 12.1244 30.9562 12.2338C30.8029 12.3867 30.6484 12.5382 30.4934 12.6894C30.4058 12.7759 30.3181 12.8623 30.2278 12.9514C29.9651 13.1587 29.8113 13.2266 29.4801 13.2481C29.3025 13.146 29.3025 13.146 29.1812 12.9492C29.1398 12.6517 29.1398 12.6517 29.1338 12.2916C29.1292 12.0983 29.1292 12.0983 29.1244 11.901C29.1225 11.7648 29.1207 11.6286 29.119 11.4924C29.1142 11.2255 29.1085 10.9586 29.1026 10.6917C29.1009 10.5731 29.0991 10.4545 29.0973 10.3323C29.1124 10.0692 29.1124 10.0692 28.982 9.96094C28.8218 9.95125 28.6612 9.94853 28.5007 9.94853C28.3965 9.94828 28.2923 9.94802 28.185 9.94776C28.0121 9.94807 28.0121 9.94807 27.8356 9.94839C27.6547 9.94812 27.6547 9.94812 27.47 9.94783C27.2069 9.94743 26.9439 9.9472 26.6808 9.94719C26.2648 9.94707 25.8487 9.9458 25.4326 9.94424C25.3274 9.94386 25.3274 9.94386 25.22 9.94347C25.0765 9.94294 24.933 9.94241 24.7895 9.94189C23.8206 9.93839 22.8516 9.93574 21.8827 9.93599C21.2296 9.93615 20.5765 9.93455 19.9234 9.93094C19.5777 9.9291 19.2321 9.92817 18.8864 9.92939C18.5005 9.93075 18.1147 9.92825 17.7288 9.92544C17.6143 9.92645 17.4998 9.92747 17.3819 9.92852C16.609 9.9184 16.609 9.9184 16.2107 9.62744C15.9905 9.30044 15.9725 9.11088 15.9772 8.71855C15.9779 8.59612 15.9786 8.47369 15.9793 8.34754C15.9826 8.22049 15.9859 8.09343 15.9892 7.96253C15.9898 7.83509 15.9904 7.70765 15.991 7.57635C16.0048 6.51934 16.0048 6.51934 16.232 6.17579C16.4824 6.05062 16.6552 6.06235 16.9355 6.06042C17.0422 6.05944 17.1489 6.05847 17.2588 6.05746C17.3764 6.05689 17.494 6.05632 17.6151 6.05573C17.7385 6.05474 17.862 6.05375 17.9891 6.05274C18.328 6.05013 18.667 6.04795 19.0059 6.04596C19.3599 6.04379 19.714 6.04106 20.068 6.03839C20.7386 6.03341 21.4092 6.02894 22.0799 6.02464C22.8432 6.01972 23.6066 6.01425 24.37 6.00873C25.9405 5.99739 27.5111 5.98675 29.0816 5.97657C29.0836 5.88407 29.0856 5.79157 29.0876 5.69627C29.0954 5.35356 29.104 5.0109 29.1132 4.66822C29.1171 4.51982 29.1205 4.37141 29.1237 4.223C29.1282 4.00983 29.134 3.79673 29.14 3.58361C29.1431 3.45529 29.1463 3.32696 29.1495 3.19475C29.1911 2.79394 29.2591 2.70678 29.6596 2.6496Z" fill="#EA591C"/>
<path d="M12.281 40.9083C13.0936 41.5821 13.7501 42.3699 13.9495 43.4297C14.03 44.6875 13.9643 45.7832 13.1526 46.8164C12.392 47.6615 11.5277 48.2342 10.3795 48.3487C9.20153 48.4009 8.18507 48.1752 7.27213 47.3993C6.34617 46.5267 5.89932 45.5774 5.84375 44.3012C5.86902 43.1735 6.2957 42.1684 7.05424 41.3449C8.44587 40.0187 10.689 39.7964 12.281 40.9083ZM9.37366 43.7347C9.13465 44.017 9.13465 44.017 9.16199 44.3884C9.24205 44.721 9.24205 44.721 9.43591 44.9176C9.73958 45.0571 9.93314 45.0717 10.2639 45.0234C10.5003 44.8445 10.6271 44.6978 10.7557 44.432C10.7649 44.1299 10.635 43.9703 10.4631 43.7285C10.2769 43.5031 10.2769 43.5031 9.98377 43.4857C9.65094 43.5067 9.65094 43.5067 9.37366 43.7347Z" fill="#EA591C"/>
<path d="M43.4886 40.9613C44.4035 41.6441 44.9437 42.601 45.1209 43.7285C45.2166 44.9102 44.9477 45.9678 44.2244 46.916C43.4617 47.7337 42.583 48.2443 41.4555 48.344C40.1502 48.3569 39.1624 48.0883 38.1482 47.2149C37.2323 46.2497 37.0027 45.1494 37.0249 43.8624C37.0749 42.7123 37.6661 41.8855 38.4719 41.1138C38.9194 40.7284 39.3794 40.5135 39.9412 40.3418C40.0029 40.3227 40.0647 40.3035 40.1283 40.2838C41.3363 40.0458 42.4677 40.3074 43.4886 40.9613ZM40.3396 43.9277C40.2186 44.1958 40.2331 44.3022 40.3147 44.5877C40.43 44.8525 40.43 44.8525 40.738 45.0235C41.1419 45.0849 41.2902 45.0554 41.6283 44.818C41.8673 44.5357 41.8673 44.5357 41.84 44.1643C41.7599 43.8317 41.7599 43.8317 41.566 43.6351C41.0404 43.3937 40.6856 43.4664 40.3396 43.9277Z" fill="#EA591C"/>
<path d="M13.8438 16.6348C15.0271 16.6348 16.2105 16.6348 17.4297 16.6348C17.4297 19.1987 17.4297 21.7627 17.4297 24.4043C16.892 24.2251 16.5476 24.0337 16.0912 23.7214C15.7541 23.5709 15.5906 23.6042 15.2383 23.707C14.9214 23.8663 14.9214 23.8663 14.6157 24.0619C14.0618 24.4043 14.0618 24.4043 13.8438 24.4043C13.8438 21.8404 13.8438 19.2764 13.8438 16.6348Z" fill="#EA591C"/>
</g>
<defs>
<clipPath id="clip0_125_11552">
<rect width="51" height="51" fill="white"/>
</clipPath>
</defs>
</svg>
