<svg width="22" height="23" viewBox="0 0 22 23" fill="none" xmlns="http://www.w3.org/2000/svg">
<path d="M3.91844 0.684458C4.46441 1.0491 5.01469 1.46882 5.39964 2.00473C5.51573 2.13672 5.57887 2.19963 5.75429 2.22964C6.48617 2.21283 7.21414 2.13918 7.94279 2.07182C8.56416 2.01481 9.18321 1.96132 9.80757 1.95856C9.8521 1.95821 9.89663 1.95785 9.94251 1.95749C10.8425 1.96411 11.4602 2.52311 12.0689 3.12523C12.1246 3.18002 12.1802 3.23481 12.2359 3.2896C12.3515 3.40367 12.4668 3.51812 12.5818 3.63279C12.7289 3.77923 12.8774 3.92412 13.0263 4.06871C13.169 4.2079 13.3101 4.34875 13.4514 4.48939C13.5047 4.54091 13.5581 4.59244 13.6131 4.64552C14.0151 5.05186 14.0151 5.05186 14.0162 5.33548C13.9999 5.43737 13.9999 5.43737 13.9833 5.54132C14.0039 6.08437 14.3692 6.47582 14.6855 6.88719C14.7582 6.98278 14.8309 7.07841 14.9035 7.17406C15.0221 7.33003 15.1409 7.48587 15.26 7.64145C15.5283 7.99192 15.7923 8.34522 16.0533 8.7012C16.406 9.18178 16.406 9.18178 16.7628 9.6594C16.8056 9.71658 16.8485 9.77376 16.8926 9.83267C17.1659 10.1518 17.4329 10.3602 17.86 10.4151C18.226 10.4368 18.4578 10.3494 18.7683 10.1582C18.8986 10.1056 18.8986 10.1056 19.0094 10.1475C19.1465 10.231 19.249 10.3232 19.3632 10.4361C19.4077 10.4799 19.4523 10.5237 19.4982 10.5688C19.5458 10.6163 19.5934 10.6638 19.6424 10.7127C19.6919 10.7618 19.7414 10.8109 19.7924 10.8615C19.8971 10.9656 20.0017 11.0699 20.1061 11.1743C20.2648 11.3328 20.4245 11.4903 20.5842 11.6478C20.686 11.7493 20.7878 11.8509 20.8896 11.9525C20.9369 11.999 20.9843 12.0456 21.0331 12.0935C21.6233 12.6885 21.9989 13.3523 22 14.2017C21.921 15.3114 21.2118 15.9343 20.4653 16.683C20.4074 16.7413 20.3495 16.7997 20.2915 16.858C20.1036 17.0471 19.9154 17.2359 19.7272 17.4247C19.6619 17.4902 19.5967 17.5558 19.5314 17.6213C19.2248 17.9289 18.9181 18.2365 18.6113 18.5438C18.2588 18.8969 17.9068 19.2504 17.5552 19.6043C17.2821 19.8793 17.0084 20.1538 16.7345 20.4279C16.5714 20.5911 16.4086 20.7545 16.2462 20.9183C16.0936 21.0723 15.9403 21.2258 15.7867 21.3788C15.7043 21.4612 15.6226 21.5441 15.5408 21.627C14.9664 22.1967 14.4095 22.5348 13.5883 22.533C13.5421 22.5329 13.4958 22.5328 13.4482 22.5327C12.166 22.506 11.3149 21.38 10.4697 20.5426C10.3658 20.44 10.2615 20.3377 10.1569 20.2358C10.0049 20.0878 9.85415 19.9386 9.70356 19.7891C9.63291 19.7209 9.63291 19.7209 9.56082 19.6513C9.51818 19.6085 9.47555 19.5657 9.43162 19.5216C9.39376 19.4844 9.35589 19.4471 9.31688 19.4087C9.24343 19.2927 9.24343 19.2927 9.25859 19.1414C9.27289 19.0947 9.2872 19.0481 9.30195 19.0001C9.43012 18.4913 9.44477 18.1158 9.17372 17.6519C9.00917 17.4316 8.84366 17.3299 8.58718 17.2332C8.53469 17.2131 8.48219 17.193 8.4281 17.1723C8.36824 17.1502 8.36824 17.1502 8.30717 17.1276C8.30683 17.0795 8.30648 17.0314 8.30613 16.9819C8.30273 16.5273 8.29851 16.0728 8.29338 15.6183C8.29077 15.3846 8.28847 15.151 8.2869 14.9173C8.28537 14.6916 8.283 14.4658 8.28007 14.2401C8.2791 14.1542 8.27842 14.0684 8.27805 13.9825C8.27559 13.4583 8.25041 13.0438 7.98167 12.5816C7.51776 12.1414 7.00693 12.1102 6.39396 12.1169C6.31195 12.1168 6.22995 12.1167 6.14794 12.1164C5.97707 12.1163 5.80625 12.1171 5.63539 12.1187C5.41751 12.1207 5.19972 12.1204 4.98184 12.1193C4.81285 12.1187 4.64388 12.1192 4.47489 12.1201C4.3946 12.1204 4.3143 12.1203 4.23401 12.12C3.68309 12.1184 3.27507 12.1496 2.86515 12.5486C2.82653 12.5921 2.78791 12.6355 2.74812 12.6803C2.2289 12.4501 1.80998 11.8802 1.5739 11.377C1.53157 11.2669 1.4957 11.1545 1.46076 11.0419C1.45001 11.0077 1.43926 10.9735 1.42818 10.9383C1.24535 10.0187 1.45617 8.98013 1.53787 8.05461C1.55585 7.84981 1.57331 7.64497 1.59082 7.44013C1.62499 7.04121 1.65972 6.64235 1.69482 6.24351C1.87866 6.33128 2.0358 6.4359 2.19905 6.55812C2.76532 6.9804 3.33851 7.31215 4.03182 7.47601C4.34755 7.55193 4.53435 7.6271 4.7619 7.85523C5.10067 8.16646 5.57962 8.24819 6.02503 8.23307C6.49478 8.15982 6.92618 7.94652 7.24153 7.5871C7.56895 7.13065 7.713 6.66649 7.63812 6.10682C7.54027 5.64661 7.31768 5.26538 6.96129 4.95615C6.50693 4.67401 6.09078 4.55062 5.5569 4.60505C5.19611 4.69815 4.89957 4.82125 4.62064 5.07318C4.58202 5.07318 4.5434 5.07318 4.50361 5.07318C4.48792 5.10577 4.47223 5.13836 4.45606 5.17193C4.38065 5.31879 4.29709 5.459 4.21103 5.59983C4.30238 5.6197 4.39383 5.63912 4.48532 5.65835C4.56169 5.67464 4.56169 5.67464 4.63961 5.69126C4.99892 5.75001 5.14186 5.69659 5.43987 5.4828C5.7557 5.37752 6.03091 5.38363 6.33224 5.51937C6.55678 5.64642 6.67542 5.77114 6.78575 6.00945C6.87729 6.36605 6.87099 6.64369 6.68243 6.96399C6.49508 7.22012 6.27369 7.34759 5.96652 7.41384C5.63258 7.41986 5.40904 7.33542 5.14729 7.12126C5.11463 7.07245 5.08196 7.02365 5.04831 6.97337C4.87286 6.78544 4.70649 6.76307 4.46338 6.72261C3.60816 6.54909 2.88621 6.16068 2.22147 5.59983C2.17116 5.55767 2.12084 5.5155 2.06901 5.47206C1.0375 4.57488 0.161273 3.40342 0.00516186 2.00839C-0.0244783 1.47298 0.068367 0.97223 0.418434 0.553025C1.41479 -0.411126 2.86119 0.071857 3.91844 0.684458ZM1.16817 1.21111C0.930214 1.62562 0.996937 1.98795 1.10966 2.43995C1.17074 2.62683 1.24979 2.79409 1.34372 2.9666C1.3754 3.02536 1.40709 3.08412 1.43973 3.14466C1.6133 3.45445 1.77382 3.7305 2.04592 3.96137C2.06229 3.92389 2.07866 3.8864 2.09552 3.84777C2.36397 3.26857 2.74823 2.86987 3.34242 2.62121C3.66363 2.50754 3.9931 2.44087 4.32806 2.38143C3.86548 1.76026 2.99788 1.17292 2.22147 1.03556C2.09608 1.02723 1.97042 1.02267 1.84477 1.02093C1.77967 1.01942 1.71458 1.01791 1.64751 1.01636C1.43881 1.03781 1.33371 1.08418 1.16817 1.21111ZM8.92891 9.49848C8.82501 9.63305 8.82501 9.63305 8.79359 9.79838C8.85508 10.0891 9.03814 10.2502 9.24343 10.4567C9.29559 10.5101 9.29559 10.5101 9.34881 10.5646C9.42981 10.6466 9.51204 10.7273 9.59453 10.8078C9.52759 10.9423 9.45983 11.0763 9.39132 11.2101C9.36062 11.2704 9.32992 11.3308 9.29829 11.393C9.26744 11.4533 9.23659 11.5136 9.2048 11.5758C8.99492 12.0262 9.02759 12.4795 9.18286 12.9445C9.40324 13.4735 9.75754 13.8371 10.2784 14.0737C10.8155 14.2663 11.2929 14.2393 11.8182 14.0262C12.2572 13.8164 12.5789 13.4526 12.9063 13.102C13.1858 12.8093 13.3902 12.6981 13.8004 12.6584C14.0724 12.6667 14.2903 12.7552 14.5099 12.9144C14.7555 13.2229 14.8286 13.4583 14.8025 13.8506C14.689 14.2178 14.4798 14.4533 14.2173 14.7284C14.1746 14.7748 14.1319 14.8212 14.0879 14.869C13.7699 15.2039 13.5445 15.3976 13.0763 15.4562C12.7563 15.4162 12.5527 15.2571 12.2863 15.0795C12.1081 15.0906 11.9793 15.1115 11.8255 15.2038C11.7169 15.3847 11.7313 15.5174 11.7596 15.7232C12.0355 16.0827 12.4347 16.2749 12.8714 16.3668C13.3116 16.4109 13.7515 16.312 14.1071 16.037C14.1745 15.975 14.2401 15.911 14.303 15.8445C14.3929 15.7817 14.3929 15.7817 14.5005 15.781C14.6886 15.8691 14.8158 16.0131 14.9561 16.162C15.2079 16.4455 15.2079 16.4455 15.5559 16.5607C15.7414 16.5569 15.7414 16.5569 15.8777 16.4473C15.9816 16.3127 15.9816 16.3127 16.013 16.1474C15.9436 15.8191 15.6961 15.6123 15.4558 15.3894C15.3703 15.31 15.2906 15.2244 15.2121 15.138C15.2309 14.947 15.2871 14.8827 15.4096 14.7247C15.6762 14.3654 15.787 13.8829 15.7387 13.441C15.6232 12.8662 15.363 12.3872 14.872 12.0533C14.356 11.7502 13.8812 11.6564 13.2895 11.7786C12.7725 11.9368 12.4423 12.2788 12.0776 12.6629C11.5106 13.255 11.5106 13.255 11.0277 13.27C10.708 13.2529 10.4789 13.1964 10.2382 12.9729C10.0295 12.6787 9.9444 12.3933 10.0041 12.0366C10.143 11.639 10.4058 11.367 10.7027 11.0784C10.7438 11.0369 10.785 10.9953 10.8274 10.9525C11.105 10.6782 11.2965 10.5287 11.6975 10.4969C12.0032 10.5044 12.2121 10.6413 12.4618 10.8078C12.6734 10.8348 12.7741 10.8344 12.9519 10.7127C13.0762 10.531 13.0823 10.4391 13.047 10.2226C12.8751 9.9023 12.5532 9.76784 12.2278 9.63746C11.7556 9.52335 11.3269 9.56166 10.8819 9.75449C10.7531 9.84147 10.6354 9.93269 10.5184 10.035C10.4138 10.1056 10.4138 10.1056 10.1797 10.1056C10.061 10.0024 9.95678 9.90203 9.85054 9.78741C9.59953 9.50136 9.59953 9.50136 9.25075 9.38511C9.06524 9.38889 9.06524 9.38889 8.92891 9.49848Z" fill="#F07F0E"/>
<path d="M3.97674 12.9349C4.04607 12.934 4.11539 12.9331 4.18682 12.9321C4.29838 12.933 4.29838 12.933 4.41219 12.9339C4.48901 12.9336 4.56583 12.9334 4.64498 12.9331C4.80731 12.9326 4.9696 12.9333 5.13193 12.9346C5.33954 12.9363 5.54705 12.9353 5.75466 12.9336C5.95329 12.9323 6.1519 12.9332 6.35054 12.9339C6.42491 12.9333 6.49928 12.9327 6.57591 12.9321C6.64523 12.9331 6.71456 12.934 6.78598 12.9349C6.84683 12.9352 6.90766 12.9354 6.97035 12.9356C7.20431 12.9878 7.28867 13.0729 7.42944 13.2654C7.45695 13.4318 7.46673 13.5625 7.46265 13.7283C7.46269 13.774 7.46274 13.8197 7.46278 13.8668C7.46258 14.0172 7.46031 14.1676 7.45801 14.318C7.45746 14.4225 7.45705 14.527 7.45675 14.6316C7.45564 14.9063 7.45277 15.1809 7.44953 15.4555C7.44653 15.736 7.4452 16.0164 7.44372 16.2969C7.44059 16.8468 7.4356 17.3968 7.42944 17.9467C7.48518 17.944 7.54092 17.9412 7.59836 17.9384C7.67175 17.9363 7.74515 17.9342 7.82076 17.932C7.8934 17.9293 7.96604 17.9266 8.04089 17.9238C8.28273 17.9504 8.37311 18.0085 8.54125 18.1807C8.60342 18.3453 8.60342 18.3453 8.59976 18.5318C8.42071 18.8904 8.17929 19.1964 7.93414 19.512C7.84957 19.6219 7.76507 19.7318 7.68065 19.8418C7.63836 19.8969 7.59607 19.952 7.5525 20.0088C7.37092 20.2471 7.19325 20.4882 7.01616 20.7299C6.72103 21.1318 6.42526 21.5332 6.12745 21.9331C6.08973 21.9841 6.05201 22.0352 6.01314 22.0877C5.97815 22.1346 5.94315 22.1815 5.9071 22.2298C5.86068 22.2923 5.86068 22.2923 5.81332 22.356C5.67934 22.5158 5.60651 22.5118 5.39234 22.5329C5.20901 22.5464 5.15652 22.5187 5.01289 22.3985C4.7977 22.1653 4.61011 21.9084 4.4195 21.6551C4.37832 21.6008 4.33714 21.5464 4.29471 21.4904C3.99542 21.0942 3.69938 20.6957 3.40641 20.2948C3.22527 20.0472 3.04184 19.8018 2.8551 19.5584C2.81468 19.5054 2.77425 19.4525 2.7326 19.3979C2.6545 19.2958 2.57599 19.1941 2.49702 19.0926C2.44424 19.0235 2.44424 19.0235 2.3904 18.9529C2.35915 18.9125 2.3279 18.872 2.2957 18.8304C2.21076 18.6896 2.18171 18.5776 2.16296 18.4148C2.20696 18.2468 2.25276 18.1496 2.37531 18.0264C2.56819 17.9155 2.71765 17.9296 2.93831 17.9357C3.01223 17.9373 3.08615 17.9389 3.16231 17.9405C3.21874 17.9425 3.27516 17.9446 3.33329 17.9467C3.33264 17.8887 3.33199 17.8307 3.33132 17.7709C3.32539 17.2242 3.321 16.6775 3.31813 16.1307C3.31661 15.8496 3.31453 15.5686 3.31122 15.2875C3.30804 15.0162 3.30629 14.745 3.30553 14.4737C3.30499 14.3702 3.30394 14.2667 3.30236 14.1633C3.30023 14.0182 3.29994 13.8733 3.30008 13.7283C3.29902 13.6856 3.29797 13.6429 3.29689 13.5988C3.29912 13.3783 3.32831 13.2722 3.45973 13.0925C3.65147 12.9543 3.74284 12.9358 3.97674 12.9349Z" fill="#F07F0E"/>
<path d="M16.5628 0.00279474C16.6346 0.00187248 16.7065 0.000950212 16.7805 0C16.8587 0.000523713 16.9369 0.0011238 17.0151 0.00179471C17.0956 0.00159752 17.176 0.00131349 17.2565 0.000946462C17.4249 0.000515529 17.5933 0.00114062 17.7617 0.00250902C17.9774 0.00417614 18.193 0.00321608 18.4087 0.00146378C18.5748 0.000405437 18.7408 0.000743479 18.9069 0.00150117C18.9864 0.00169606 19.0659 0.00145783 19.1454 0.000775697C19.2566 3.09949e-05 19.3678 0.00136777 19.479 0.00279474C19.5738 0.00314391 19.5738 0.00314391 19.6706 0.00350012C19.8349 0.0406532 19.8349 0.0406532 19.9725 0.160376C20.0931 0.376451 20.1003 0.555356 20.0955 0.79618C20.0956 0.841882 20.0956 0.887584 20.0956 0.934672C20.0955 1.08509 20.0937 1.23544 20.0918 1.38584C20.0914 1.49038 20.0911 1.59492 20.0908 1.69946C20.0899 1.97412 20.0876 2.24875 20.085 2.5234C20.0826 2.80385 20.0816 3.08431 20.0804 3.36477C20.0779 3.91471 20.0739 4.46462 20.069 5.01454C20.1296 5.01183 20.1903 5.00911 20.2527 5.00632C20.3329 5.00412 20.413 5.00199 20.4932 4.99991C20.5331 4.99795 20.573 4.99599 20.6141 4.99397C20.8168 4.99004 20.9249 4.99798 21.0884 5.1222C21.2115 5.29061 21.2393 5.39039 21.2393 5.59971C21.0741 5.92814 20.8609 6.20564 20.6322 6.49208C20.3427 6.85928 20.0596 7.23003 19.7837 7.60755C19.4792 8.02292 19.1724 8.43639 18.8621 8.84737C18.8225 8.90019 18.783 8.95302 18.7423 9.00744C18.705 9.0566 18.6678 9.10576 18.6294 9.15641C18.5966 9.19989 18.5638 9.24338 18.53 9.28818C18.3773 9.46478 18.2605 9.56769 18.0282 9.60808C17.6995 9.55549 17.5062 9.3129 17.3137 9.05766C17.2491 8.96835 17.185 8.87873 17.1212 8.78885C17.0489 8.68881 16.9765 8.58885 16.9041 8.48895C16.8666 8.43721 16.8291 8.38546 16.7905 8.33215C16.5999 8.07179 16.4033 7.81604 16.2069 7.56001C16.0506 7.35536 15.8946 7.15053 15.7388 6.94558C15.6994 6.89385 15.66 6.84211 15.6195 6.78881C15.5051 6.63788 15.3914 6.48644 15.2779 6.33482C15.2435 6.28948 15.209 6.24415 15.1735 6.19744C15.0028 5.96795 14.8638 5.7677 14.8025 5.48267C14.8552 5.2334 14.8799 5.15798 15.0951 5.01454C15.2474 5.00622 15.393 5.00354 15.5449 5.00723C15.586 5.00776 15.6271 5.00829 15.6694 5.00883C15.7705 5.01021 15.8717 5.0123 15.9728 5.01454C15.9723 4.95655 15.9718 4.89855 15.9712 4.83879C15.9665 4.29207 15.963 3.74534 15.9607 3.1986C15.9595 2.91752 15.9578 2.63645 15.9552 2.35538C15.9526 2.0841 15.9512 1.81283 15.9506 1.54154C15.9502 1.43806 15.9493 1.33459 15.9481 1.23113C15.9464 1.08613 15.9461 0.941191 15.9462 0.79618C15.945 0.732097 15.945 0.732097 15.9437 0.66672C15.9453 0.464409 15.9701 0.338061 16.0693 0.160376C16.2441 0.00827013 16.3329 0.00364111 16.5628 0.00279474Z" fill="#F07F0E"/>
</svg>
