<svg width="122" height="100" viewBox="0 0 122 100" fill="none" xmlns="http://www.w3.org/2000/svg">
<path d="M51 0L32.2903 71.6129L27.129 47.4194C34.6559 47.4194 40.8925 49.785 45.8387 54.5161C50.7849 59.2473 53.2581 65.5914 53.2581 73.5484C53.2581 81.5054 50.7849 87.957 45.8387 92.9032C40.8925 97.6344 34.7634 100 27.4516 100C19.7097 100 13.3656 97.5269 8.41935 92.5806C3.47312 87.6344 1 81.2903 1 73.5484C1 70.9678 1.10753 68.6022 1.32258 66.4516C1.75269 64.086 2.50538 61.2903 3.58064 58.0645C4.65591 54.8387 6.16129 50.7527 8.09677 45.8065L25.1935 0H51ZM119.387 0L100.677 71.6129L95.5161 47.4194C103.043 47.4194 109.28 49.785 114.226 54.5161C119.172 59.2473 121.645 65.5914 121.645 73.5484C121.645 81.5054 119.172 87.957 114.226 92.9032C109.28 97.6344 103.151 100 95.8387 100C88.0968 100 81.7527 97.5269 76.8064 92.5806C71.8602 87.6344 69.3871 81.2903 69.3871 73.5484C69.3871 70.9678 69.4946 68.6022 69.7097 66.4516C70.1398 64.086 70.8925 61.2903 71.9677 58.0645C73.043 54.8387 74.5484 50.7527 76.4839 45.8065L93.5806 0H119.387Z" fill="#F07F0E"/>
</svg>
