<svg width="53" height="53" viewBox="0 0 53 53" fill="none" xmlns="http://www.w3.org/2000/svg">
<g clip-path="url(#clip0_99_7111)">
<path d="M25.5703 34.5742C28.6106 34.5742 31.6508 34.5742 34.7832 34.5742C34.7832 35.7698 34.7832 36.9654 34.7832 38.1973C37.516 38.1973 40.2488 38.1973 43.0645 38.1973C43.0645 37.0017 43.0645 35.8061 43.0645 34.5742C46.2755 34.5742 49.4866 34.5742 52.7949 34.5742C52.7949 40.6547 52.7949 46.7352 52.7949 53C43.8108 53 34.8267 53 25.5703 53C25.5703 46.9195 25.5703 40.839 25.5703 34.5742ZM42.0293 48.7559C42.0293 49.2683 42.0293 49.7807 42.0293 50.3086C42.61 50.3086 43.1907 50.3086 43.7891 50.3086C43.7891 49.7962 43.7891 49.2838 43.7891 48.7559C43.2083 48.7559 42.6276 48.7559 42.0293 48.7559ZM44.9277 48.7559C44.9277 49.2683 44.9277 49.7807 44.9277 50.3086C45.5085 50.3086 46.0892 50.3086 46.6875 50.3086C46.6875 49.7962 46.6875 49.2838 46.6875 48.7559C46.1068 48.7559 45.5261 48.7559 44.9277 48.7559ZM47.8262 48.7559C47.8262 49.2683 47.8262 49.7807 47.8262 50.3086C48.3727 50.3086 48.9193 50.3086 49.4824 50.3086C49.4824 49.7962 49.4824 49.2838 49.4824 48.7559C48.9359 48.7559 48.3893 48.7559 47.8262 48.7559Z" fill="#F07F0E"/>
<path d="M21.6348 8.48828C21.6348 9.68389 21.6348 10.8795 21.6348 12.1113C21.9422 12.1113 22.2496 12.1113 22.5664 12.1113C22.5664 10.9157 22.5664 9.72012 22.5664 8.48828C26.454 8.73126 29.6359 10.1932 32.2447 13.1408C33.9659 15.2407 35.1953 17.9594 35.1953 20.7031C34.1363 20.7031 33.0774 20.7031 31.9863 20.7031C31.9863 21.0106 31.9863 21.318 31.9863 21.6348C33.0453 21.6348 34.1043 21.6348 35.1953 21.6348C35.1953 23.4371 35.1953 23.4371 35.0142 24.2485C34.9957 24.3359 34.9772 24.4233 34.9582 24.5133C34.5949 26.1687 34.5949 26.1687 34.2637 26.5C33.9929 26.5107 33.7249 26.5149 33.4541 26.5147C33.3692 26.515 33.2844 26.5154 33.197 26.5158C33.0121 26.5165 32.8271 26.5171 32.6422 26.5175C32.3494 26.5182 32.0566 26.5198 31.7637 26.5217C30.9309 26.5272 30.0981 26.5321 29.2653 26.5337C28.7564 26.5348 28.2475 26.5378 27.7386 26.5422C27.5447 26.5434 27.3508 26.544 27.1569 26.5437C26.885 26.5435 26.6133 26.5458 26.3414 26.5486C26.2615 26.548 26.1817 26.5473 26.0994 26.5466C25.564 26.5558 25.2426 26.6577 24.8438 27.0176C24.634 27.4555 24.6092 27.8551 24.6037 28.3363C24.6022 28.4364 24.6022 28.4364 24.6006 28.5385C24.5974 28.757 24.5956 28.9754 24.5939 29.1938C24.5919 29.3461 24.5899 29.4984 24.5878 29.6507C24.5825 30.0499 24.5784 30.4491 24.5745 30.8484C24.5704 31.2564 24.5651 31.6644 24.5599 32.0725C24.5499 32.8719 24.5413 33.6713 24.5332 34.4707C23.9866 34.539 23.4401 34.6073 22.877 34.6777C22.877 33.4821 22.877 32.2865 22.877 31.0547C22.5695 31.0547 22.2621 31.0547 21.9453 31.0547C21.9453 32.2503 21.9453 33.4459 21.9453 34.6777C19.984 34.5552 19.984 34.5552 19.3315 34.4125C19.2508 34.395 19.1701 34.3774 19.087 34.3594C17.0686 33.8874 15.2272 32.9275 13.6641 31.5723C13.5805 31.5025 13.497 31.4327 13.4109 31.3608C11.0166 29.3004 9.48753 26.3159 9.10938 23.1875C9.10938 22.7776 9.10938 22.3677 9.10938 21.9453C10.4075 21.9453 11.7055 21.9453 13.043 21.9453C13.043 21.6037 13.043 21.2621 13.043 20.9102C11.7449 20.9102 10.4468 20.9102 9.10938 20.9102C9.10938 20.204 9.12366 19.6225 9.27112 18.9498C9.2985 18.8241 9.2985 18.8241 9.32644 18.6958C10.1148 15.2731 12.1522 12.3505 15.1133 10.4551C17.081 9.25188 19.315 8.48828 21.6348 8.48828ZM28.6027 13.58C28.5307 13.6161 28.4588 13.6522 28.3847 13.6894C27.7292 14.0233 27.0883 14.382 26.4482 14.7445C26.346 14.8019 26.2437 14.8593 26.1384 14.9185C25.684 15.1751 25.2353 15.4342 24.7993 15.721C23.903 16.2985 23.3113 16.4277 22.253 16.296C20.8718 16.148 19.5578 16.7473 18.4816 17.5738C17.2693 18.6388 16.7133 19.9677 16.5576 21.545C16.5491 21.9317 16.5491 21.9317 16.6277 22.2479C16.8297 23.188 16.6868 23.6739 16.1873 24.4814C16.0955 24.6396 16.0955 24.6396 16.0019 24.801C15.875 25.0193 15.7466 25.2366 15.6167 25.453C15.3713 25.8632 15.1354 26.2785 14.8996 26.6943C14.7465 26.9638 14.5916 27.2321 14.4364 27.5004C13.9453 28.2927 13.9453 28.2927 13.8711 29.1914C14.0574 29.4709 14.1903 29.6616 14.4922 29.8125C15.2591 29.9323 15.808 29.5399 16.459 29.172C16.5764 29.1073 16.6938 29.0426 16.8147 28.976C17.4117 28.6467 18.004 28.3092 18.596 27.9711C18.7036 27.9097 18.8113 27.8483 18.9221 27.7851C19.1264 27.6682 19.3302 27.5504 19.5335 27.4318C19.6255 27.3787 19.7175 27.3257 19.8123 27.2711C19.8922 27.2245 19.9721 27.1779 20.0545 27.1299C20.5119 26.9109 20.8389 26.9096 21.3242 27.0176C23.0416 27.1291 24.5478 26.7304 25.866 25.5942C26.7731 24.7224 27.5044 23.4541 27.5489 22.1701C27.5492 22.0176 27.5489 21.865 27.5481 21.7124C27.5485 21.6373 27.5489 21.5622 27.5493 21.4847C27.5486 21.1026 27.5317 20.7927 27.4397 20.4172C27.3523 19.767 27.7993 19.2129 28.1174 18.6781C28.1884 18.5551 28.2591 18.4319 28.3296 18.3086C28.5102 17.9937 28.693 17.6802 28.8767 17.3672C29.1096 16.97 29.3406 16.5719 29.57 16.1727C29.6858 15.9715 29.8028 15.7709 29.9211 15.5712C30.2133 15.0658 30.4177 14.667 30.4336 14.0781C30.2863 13.6969 30.1594 13.5821 29.806 13.3729C29.3066 13.171 29.0577 13.3506 28.6027 13.58Z" fill="#F07F0E"/>
<path d="M33.849 7.76369C33.9371 7.84042 34.0252 7.91714 34.1159 7.99619C34.3754 8.22582 34.6304 8.45942 34.8842 8.69533C34.9583 8.76258 35.0323 8.82984 35.1086 8.89913C38.0465 11.6818 39.9953 16.0272 40.1818 20.0647C40.1888 20.5191 40.1943 20.9733 40.1958 21.4278C40.1962 21.5101 40.1965 21.5925 40.1969 21.6773C40.1991 23.3247 40.0663 24.9283 39.5424 26.5C38.1418 26.5 36.7413 26.5 35.2983 26.5C35.452 25.9364 35.452 25.9364 35.6088 25.3613C36.184 23.1068 36.3456 20.4819 35.7123 18.2188C35.6895 18.136 35.6667 18.0532 35.6432 17.9679C34.6036 14.3182 32.2815 11.2243 28.9591 9.35203C25.7197 7.5983 21.8589 7.13049 18.3094 8.14078C16.3097 8.74601 14.5142 9.70196 12.9389 11.0762C12.8659 11.1354 12.7929 11.1947 12.7177 11.2557C12.1203 11.7487 11.6512 12.328 11.1791 12.9395C11.0732 13.0758 11.0732 13.0758 10.9652 13.2148C8.66251 16.2746 7.81881 20.0069 8.3479 23.7781C8.8817 27.2723 10.8622 30.6092 13.6974 32.7313C13.9908 32.9411 14.2909 33.1385 14.5951 33.332C14.7062 33.404 14.8172 33.4759 14.9316 33.55C17.0994 34.8717 19.604 35.5294 22.1324 35.5188C22.2264 35.5192 22.3204 35.5196 22.4172 35.52C23.1265 35.519 23.8267 35.4702 24.5326 35.4024C24.5352 35.9754 24.5371 36.5485 24.5383 37.1215C24.5388 37.3166 24.5395 37.5117 24.5404 37.7068C24.5417 37.9866 24.5423 38.2664 24.5427 38.5462C24.5433 38.634 24.5438 38.7218 24.5444 38.8122C24.5444 39.0213 24.5391 39.2304 24.5326 39.4395C24.1196 39.8525 22.8252 39.6624 22.2553 39.6659C17.8422 39.6549 13.5503 38.1473 10.2475 35.1953C10.0987 35.068 9.94992 34.9408 9.80106 34.8136C6.37117 31.7696 4.35596 27.2537 4.07144 22.7063C3.85779 18.3688 5.03361 13.9876 7.7631 10.5586C7.8072 10.503 7.8513 10.4474 7.89674 10.39C10.9154 6.61447 15.0416 4.32487 19.8097 3.59719C24.8139 3.04338 30.0332 4.40414 33.849 7.76369Z" fill="#F07F0E"/>
<path d="M35.7109 27.4316C37.8289 27.4316 39.9468 27.4316 42.1289 27.4316C42.1289 30.6769 42.1289 33.9221 42.1289 37.2656C40.011 37.2656 37.893 37.2656 35.7109 37.2656C35.7109 34.0204 35.7109 30.7752 35.7109 27.4316Z" fill="#F07F0E"/>
<path d="M43.0625 27.4316C45.4609 27.4274 45.4609 27.4274 46.4795 27.4265C47.1759 27.4259 47.8722 27.4252 48.5686 27.4238C49.1297 27.4227 49.6908 27.422 50.2519 27.4218C50.4665 27.4216 50.6811 27.4212 50.8956 27.4206C51.1951 27.4199 51.4945 27.4198 51.794 27.4198C51.8836 27.4195 51.9733 27.4191 52.0656 27.4187C52.6776 27.4198 52.6776 27.4198 52.793 27.5351C52.8027 27.7257 52.8051 27.9167 52.8047 28.1075C52.8047 28.2315 52.8047 28.3555 52.8047 28.4832C52.8042 28.6145 52.8036 28.7459 52.8031 28.8812C52.803 29.0012 52.8029 29.1211 52.8028 29.2447C52.8022 29.6949 52.8008 30.1451 52.7994 30.5953C52.7973 31.6009 52.7952 32.6065 52.793 33.6425C49.5819 33.6425 46.3709 33.6425 43.0625 33.6425C43.0625 31.5929 43.0625 29.5433 43.0625 27.4316Z" fill="#F07F0E"/>
<path d="M25.5703 27.4316C28.6106 27.4316 31.6508 27.4316 34.7832 27.4316C34.7832 29.4812 34.7832 31.5309 34.7832 33.6426C31.7429 33.6426 28.7027 33.6426 25.5703 33.6426C25.5703 31.593 25.5703 29.5434 25.5703 27.4316Z" fill="#F07F0E"/>
<path d="M24.7063 17.9794C25.6598 18.6617 26.3883 19.6336 26.6019 20.8066C26.6911 22.1044 26.6031 23.3049 25.7338 24.3468C25.6787 24.4083 25.6236 24.4698 25.5668 24.5332C25.5149 24.5958 25.463 24.6584 25.4095 24.7228C24.6403 25.5819 23.5319 26.014 22.4015 26.1082C21.2123 26.1506 20.2225 25.8319 19.2523 25.1543C19.1434 25.0796 19.0345 25.0048 18.9224 24.9279C17.9829 23.9884 17.5712 22.9496 17.5508 21.6477C17.5591 20.3625 17.9532 19.4462 18.8383 18.5196C20.4471 16.9797 22.8353 16.8428 24.7063 17.9794ZM20.0804 20.2891C19.7189 20.8795 19.5977 21.4291 19.708 22.1127C19.8896 22.8367 20.1869 23.2489 20.7949 23.6816C21.4133 24.0432 21.9634 24.093 22.6683 24.0156C23.3555 23.8268 23.8242 23.3495 24.2211 22.7734C24.5254 22.1526 24.5452 21.4349 24.3606 20.7707C24.0611 20.1035 23.5457 19.6497 22.8754 19.3704C21.7788 19.0161 20.8044 19.4388 20.0804 20.2891Z" fill="#F07F0E"/>
<path d="M9.00781 35.5059C9.38938 35.7902 9.76975 36.0747 10.1432 36.3696C10.8113 36.8964 11.488 37.3703 12.2196 37.805C12.5365 37.9958 12.8422 38.1971 13.1484 38.4043C13.0855 38.7972 12.9702 39.1113 12.793 39.4669C12.7429 39.5676 12.6928 39.6682 12.6412 39.7718C12.5887 39.8757 12.5362 39.9795 12.4821 40.0864C12.4299 40.1918 12.3778 40.2973 12.3242 40.4059C12.2739 40.5059 12.2237 40.606 12.1719 40.7091C12.103 40.8465 12.103 40.8465 12.0326 40.9866C11.9062 41.1992 11.9062 41.1992 11.6992 41.3027C11.44 41.1798 11.1967 41.0511 10.9487 40.9081C10.8746 40.8657 10.8005 40.8233 10.7242 40.7796C9.56754 40.1062 8.53044 39.3069 7.5218 38.4302C7.25051 38.1902 7.25051 38.1902 6.9375 37.9902C6.9979 37.6151 7.14171 37.4331 7.40251 37.1617C7.4755 37.085 7.54849 37.0084 7.6237 36.9294C7.70042 36.8503 7.77715 36.7713 7.8562 36.6898C7.93213 36.6104 8.00805 36.5309 8.08628 36.449C8.39031 36.1314 8.69604 35.8159 9.00781 35.5059Z" fill="#F07F0E"/>
<path d="M11.4922 2.27734C11.7175 2.68436 11.9414 3.09216 12.165 3.50012C12.2613 3.67396 12.2613 3.67396 12.3595 3.85131C12.4202 3.96239 12.481 4.07348 12.5435 4.18793C12.5999 4.29039 12.6563 4.39285 12.7144 4.49841C12.8379 4.76172 12.8379 4.76172 12.8379 5.07227C12.595 5.24132 12.3559 5.39053 12.1003 5.53809C10.9426 6.23295 9.90244 7.06246 8.9043 7.9707C8.49527 7.8028 8.20475 7.51971 7.88855 7.22021C7.77851 7.11755 7.66839 7.01498 7.55819 6.9125C7.5052 6.86311 7.45221 6.81372 7.39761 6.76284C7.11356 6.50106 6.81902 6.25247 6.52344 6.00391C7.13486 4.48066 9.52347 3.28932 10.8711 2.48438C11.1816 2.27734 11.1816 2.27734 11.4922 2.27734Z" fill="#F07F0E"/>
<path d="M3.31445 25.5684C3.50096 25.8481 3.56854 26.004 3.64845 26.3193C3.68314 26.4507 3.68314 26.4507 3.71853 26.5847C3.7555 26.7253 3.7555 26.7253 3.79321 26.8688C4.02558 27.7233 4.31809 28.5188 4.69862 29.3182C4.7325 29.3895 4.76637 29.4608 4.80128 29.5343C4.84658 29.6266 4.84658 29.6266 4.89279 29.7207C4.98612 29.9547 5.03083 30.186 5.07422 30.4336C4.66991 30.6621 4.26409 30.8878 3.85791 31.1129C3.74289 31.178 3.62786 31.243 3.50935 31.31C3.3986 31.3711 3.28785 31.4321 3.17374 31.495C3.07182 31.552 2.96991 31.6089 2.86491 31.6675C2.58984 31.7793 2.58984 31.7793 2.35835 31.7645C2.03182 31.6058 1.92905 31.2614 1.7876 30.9447C1.75255 30.8683 1.71751 30.7919 1.6814 30.7132C0.3125 27.6283 0.3125 27.6283 0.3125 26.1895C1.30799 25.9491 2.30702 25.7507 3.31445 25.5684Z" fill="#F07F0E"/>
<path d="M37.5762 5.90039C39.2128 6.61802 40.5493 9.08334 41.4062 10.5586C40.9673 11.0307 40.4653 11.2802 39.8988 11.5743C39.7996 11.6276 39.7004 11.681 39.5982 11.7359C39.503 11.7857 39.4077 11.8356 39.3097 11.8869C39.2228 11.9325 39.136 11.9781 39.0466 12.0251C38.8184 12.1113 38.8184 12.1113 38.5078 12.0078C38.353 11.7882 38.2125 11.5711 38.0743 11.3414C37.3775 10.2224 36.5421 9.21394 35.6094 8.28125C35.638 7.89449 35.8342 7.71071 36.1043 7.44908C36.2222 7.33339 36.2222 7.33339 36.3425 7.21536C36.4251 7.13583 36.5077 7.0563 36.5928 6.97437C36.7558 6.81581 36.9186 6.65704 37.0812 6.49803C37.1538 6.42803 37.2263 6.35802 37.301 6.2859C37.4809 6.11653 37.4809 6.11653 37.5762 5.90039Z" fill="#F07F0E"/>
<path d="M1.9668 12.1113C2.29703 12.2574 2.62688 12.4042 2.95667 12.5513C3.04934 12.5922 3.14201 12.6332 3.23749 12.6754C3.76398 12.9107 4.26674 13.161 4.76172 13.457C4.6859 13.9523 4.50687 14.396 4.32825 14.861C3.93701 15.8977 3.62189 16.9477 3.3125 18.0117C2.2877 17.8409 1.26289 17.6701 0.207031 17.4941C0.336083 16.7198 0.458874 16.004 0.685791 15.2621C0.725059 15.1321 0.725059 15.1321 0.765121 14.9995C1.53091 12.5472 1.53091 12.5472 1.9668 12.1113Z" fill="#F07F0E"/>
<path d="M5.69141 6.625C6.43183 7.12781 7.03682 7.74601 7.6582 8.38477C7.79599 8.52302 7.93392 8.66113 8.07227 8.79883C7.9912 8.8951 7.9912 8.8951 7.9085 8.99332C6.98169 10.1084 6.08853 11.2564 5.38086 12.5254C4.7676 12.3457 4.20742 12.0652 3.63403 11.7878C3.53315 11.7394 3.43227 11.691 3.32834 11.6411C3.08071 11.5221 2.83325 11.4028 2.58594 11.2832C2.58594 10.7983 2.74677 10.5418 2.99353 10.1445C3.03571 10.0757 3.0779 10.0069 3.12136 9.93593C3.84826 8.76768 4.71477 7.60163 5.69141 6.625Z" fill="#F07F0E"/>
<path d="M41.822 11.5938C42.6325 12.3613 42.9628 13.714 43.3101 14.7445C43.3637 14.9026 43.3637 14.9026 43.4185 15.0638C43.6062 15.6358 43.7387 16.1693 43.7888 16.7695C43.3799 16.8583 42.9709 16.9467 42.5619 17.0349C42.4227 17.0649 42.2835 17.0951 42.1444 17.1253C41.9445 17.1686 41.7446 17.2117 41.5446 17.2548C41.4243 17.2808 41.3039 17.3068 41.18 17.3336C40.8904 17.3906 40.8904 17.3906 40.6834 17.3906C40.6481 17.264 40.6129 17.1374 40.5766 17.0069C40.2792 15.9652 39.9422 14.9692 39.4881 13.9844C39.4535 13.9075 39.419 13.8306 39.3833 13.7514C39.3364 13.6508 39.3364 13.6508 39.2885 13.5482C39.2172 13.293 39.2242 13.1804 39.3377 12.9395C39.5775 12.7689 39.5775 12.7689 39.8912 12.6046C40.0589 12.5156 40.0589 12.5156 40.2299 12.4247C40.3475 12.364 40.4651 12.3033 40.5863 12.2407C40.7043 12.1784 40.8224 12.1161 40.944 12.0519C41.236 11.8979 41.5287 11.7453 41.822 11.5938Z" fill="#F07F0E"/>
<path d="M5.48633 31.2617C5.55465 31.2617 5.62297 31.2617 5.69336 31.2617C5.85903 31.4938 6.01346 31.7262 6.16565 31.9669C6.62228 32.671 7.11272 33.316 7.66016 33.9531C7.72487 34.0293 7.78959 34.1055 7.85627 34.184C7.99712 34.3493 8.13903 34.5136 8.28125 34.6777C8.14792 34.9718 8.00967 35.1807 7.77782 35.4048C7.69126 35.4896 7.69126 35.4896 7.60294 35.5762C7.54283 35.6341 7.48271 35.692 7.42078 35.7517C6.98991 36.1694 6.58753 36.5909 6.21094 37.0586C4.95121 36.5243 3.45464 34.2499 2.89844 33.0215C2.91069 32.8193 2.91069 32.8193 3.00195 32.6074C3.23062 32.448 3.23062 32.448 3.52924 32.2989C3.63585 32.2447 3.74247 32.1904 3.85232 32.1345C3.96454 32.0792 4.07676 32.0239 4.19238 31.9669C4.41349 31.8556 4.63455 31.7441 4.85553 31.6325C5.00335 31.5592 5.00335 31.5592 5.15415 31.4844C5.37406 31.3843 5.37406 31.3843 5.48633 31.2617Z" fill="#F07F0E"/>
<path d="M17.4941 0C17.5813 0.4031 17.6672 0.806442 17.7529 1.20984C17.7776 1.324 17.8023 1.43815 17.8277 1.55577C17.8511 1.66619 17.8744 1.77661 17.8985 1.89037C17.9202 1.99174 17.9419 2.09312 17.9642 2.19756C18.0097 2.47191 18.0206 2.72452 18.0117 3.00195C17.5238 3.16526 17.0355 3.32731 16.5463 3.48678C16.3619 3.54729 16.1776 3.60781 15.9932 3.66833C15.9015 3.69802 15.8098 3.72772 15.7154 3.7583C15.1808 3.93452 14.6749 4.13305 14.1705 4.38367C13.9746 4.45117 13.9746 4.45117 13.6641 4.34766C13.5148 4.12228 13.5148 4.12228 13.362 3.82765C13.307 3.72197 13.2519 3.61629 13.1952 3.5074C13.1386 3.39611 13.0819 3.28483 13.0236 3.17017C12.9657 3.05968 12.9079 2.94919 12.8483 2.83536C12.4219 2.0086 12.4219 2.0086 12.4219 1.65625C16.1758 0 16.1758 0 17.4941 0Z" fill="#F07F0E"/>
<path d="M26.3965 0C27.095 0.0483697 27.7341 0.160741 28.4021 0.368774C28.533 0.408631 28.533 0.408631 28.6664 0.449292C29.6573 0.759741 30.6153 1.15161 31.5723 1.55273C31.3976 2.14787 31.1291 2.6878 30.8541 3.24133C30.8083 3.33641 30.7625 3.43148 30.7152 3.52944C30.6705 3.61971 30.6257 3.70998 30.5796 3.80299C30.5391 3.88523 30.4987 3.96747 30.4571 4.0522C30.3301 4.24414 30.3301 4.24414 30.0195 4.34766C29.7486 4.24374 29.7486 4.24374 29.4114 4.0824C28.6762 3.74511 27.9209 3.52483 27.1416 3.31308C27.0525 3.28887 26.9634 3.26466 26.8716 3.23972C26.7925 3.21873 26.7133 3.19775 26.6318 3.17613C26.3736 3.0986 26.1277 3.00176 25.8789 2.89844C25.9453 2.47352 26.0123 2.04871 26.0795 1.6239C26.1078 1.44266 26.1078 1.44266 26.1367 1.25776C26.155 1.142 26.1734 1.02624 26.1923 0.906975C26.2175 0.746787 26.2175 0.746787 26.2432 0.583362C26.293 0.310547 26.293 0.310547 26.3965 0Z" fill="#F07F0E"/>
<path d="M32.502 2.07031C34.1098 2.78909 35.7297 3.90982 36.9531 5.17578C36.7247 5.42181 36.496 5.66759 36.2673 5.91333C36.2034 5.98218 36.1395 6.05104 36.0736 6.12198C35.6846 6.53971 35.289 6.94846 34.8828 7.34961C34.605 7.21851 34.3659 7.07622 34.1242 6.88702C34.0593 6.83688 33.9943 6.78675 33.9273 6.73509C33.8583 6.68168 33.7893 6.62827 33.7183 6.57324C32.8976 5.94628 32.0408 5.39691 31.1562 4.86523C31.3027 4.55462 31.4495 4.2441 31.5962 3.93359C31.6372 3.84673 31.6781 3.75986 31.7203 3.67036C31.9742 3.13348 32.2344 2.60051 32.502 2.07031Z" fill="#F07F0E"/>
<path d="M14.0797 38.9219C14.5682 39.0587 15.0511 39.2074 15.5281 39.3804C15.6386 39.4204 15.6386 39.4204 15.7513 39.4612C15.8955 39.5138 16.0393 39.567 16.1829 39.6211C16.8477 39.8634 17.5296 40.0142 18.2203 40.1641C18.1515 40.588 18.0815 41.0117 18.0106 41.4353C17.9866 41.5794 17.9629 41.7236 17.9395 41.8678C17.9058 42.0751 17.8711 42.2821 17.8362 42.4891C17.8053 42.6761 17.8053 42.6761 17.7738 42.8669C17.7027 43.166 17.7027 43.166 17.4957 43.373C17.2881 43.3527 17.2881 43.3527 17.0311 43.2865C16.8875 43.2499 16.8875 43.2499 16.741 43.2125C16.6378 43.1843 16.5346 43.1562 16.4282 43.1272C16.3228 43.0989 16.2175 43.0707 16.1089 43.0415C15.3566 42.8332 14.618 42.5951 13.8856 42.325C13.7922 42.2914 13.6987 42.2579 13.6024 42.2233C13.5168 42.1904 13.4312 42.1575 13.343 42.1236C13.2299 42.0807 13.2299 42.0807 13.1145 42.037C12.941 41.9238 12.941 41.9238 12.8494 41.7373C12.8332 41.4275 12.9298 41.2563 13.0728 40.9821C13.1241 40.8821 13.1753 40.7821 13.2281 40.679C13.3102 40.5234 13.3102 40.5234 13.3939 40.3646C13.5005 40.1586 13.607 39.9525 13.7133 39.7464C13.7612 39.6552 13.809 39.5641 13.8583 39.4702C13.9864 39.2255 13.9864 39.2255 14.0797 38.9219Z" fill="#F07F0E"/>
<path d="M29.502 14.3887C29.2814 14.7898 29.0607 15.1908 28.8398 15.5917C28.7651 15.7273 28.6904 15.863 28.6158 15.9988C28.3973 16.3961 28.1778 16.7928 27.9574 17.189C27.843 17.3955 27.7299 17.6027 27.6168 17.8099C27.5433 17.9427 27.4697 18.0755 27.3961 18.2083C27.3307 18.3272 27.2654 18.4462 27.1981 18.5687C27.0176 18.8399 27.0176 18.8399 26.707 18.9434C26.673 18.8932 26.639 18.843 26.6039 18.7913C26.0577 18.0216 25.3715 17.4568 24.6367 16.8731C25.1474 16.5805 25.6583 16.2885 26.1696 15.9972C26.6057 15.7486 27.0403 15.4976 27.4741 15.2451C27.6885 15.1214 27.903 14.9976 28.1174 14.8739C28.2198 14.8138 28.3221 14.7537 28.4276 14.6917C28.523 14.6369 28.6184 14.5822 28.7167 14.5258C28.801 14.4768 28.8853 14.4278 28.9721 14.3773C29.1914 14.2852 29.1914 14.2852 29.502 14.3887Z" fill="#F07F0E"/>
<path d="M17.2891 24.3262C17.5535 24.5849 17.7978 24.8496 18.0331 25.1349C18.3757 25.5334 18.7551 25.8376 19.1811 26.1434C19.2399 26.1927 19.2987 26.2421 19.3594 26.293C19.3594 26.3613 19.3594 26.4296 19.3594 26.5C19.2939 26.5353 19.2284 26.5707 19.1609 26.6071C18.8517 26.774 18.5427 26.9411 18.2336 27.1082C18.0656 27.1989 18.0656 27.1989 17.8941 27.2914C17.3611 27.5797 16.8294 27.8697 16.3024 28.1692C16.2171 28.2175 16.1319 28.2658 16.044 28.3156C15.8844 28.4064 15.7253 28.4979 15.5665 28.5901C15.385 28.6932 15.1987 28.788 15.0117 28.8809C14.9434 28.8467 14.8751 28.8125 14.8047 28.7773C15.6037 27.2758 16.4089 25.7823 17.2891 24.3262Z" fill="#F07F0E"/>
<path d="M23.0781 20.5866C23.3629 20.8448 23.4779 21.0416 23.5233 21.4329C23.542 22.0035 23.4767 22.3283 23.0846 22.7734C22.7026 23.1008 22.3519 23.1377 21.8646 23.1207C21.418 23.049 21.142 22.7931 20.8267 22.4887C20.5604 21.9842 20.5577 21.5693 20.7167 21.0395C20.9518 20.6319 21.1856 20.3978 21.616 20.2049C22.2147 20.1536 22.615 20.2026 23.0781 20.5866Z" fill="#F07F0E"/>
<path d="M40.8887 25.1543C41.2511 25.201 41.6133 25.2487 41.9756 25.2966C42.0773 25.3097 42.1789 25.3228 42.2837 25.3363C42.867 25.414 43.4265 25.5164 43.9941 25.6719C43.96 25.9452 43.9258 26.2184 43.8906 26.5C42.7975 26.5 41.7044 26.5 40.5781 26.5C40.7852 25.3613 40.7852 25.3613 40.8887 25.1543Z" fill="#F07F0E"/>
</g>
<defs>
<clipPath id="clip0_99_7111">
<rect width="53" height="53" fill="white"/>
</clipPath>
</defs>
</svg>
