<svg width="53" height="53" viewBox="0 0 53 53" fill="none" xmlns="http://www.w3.org/2000/svg">
<path d="M3.43365 10.7362C3.52595 10.7361 3.61824 10.7361 3.71333 10.7361C4.01661 10.7362 4.31985 10.7379 4.62312 10.7397C4.8341 10.7401 5.04507 10.7404 5.25605 10.7406C5.81001 10.7415 6.36396 10.7437 6.91791 10.7461C7.48372 10.7484 8.04952 10.7494 8.61533 10.7506C9.72452 10.7529 10.8337 10.7567 11.9429 10.7614C11.9435 10.933 11.9435 10.933 11.9441 11.1081C11.9482 12.1864 11.9547 13.2647 11.9633 14.3431C11.9677 14.8974 11.9713 15.4518 11.973 16.0062C11.9747 16.5412 11.9785 17.0762 11.9839 17.6112C11.9855 17.8153 11.9864 18.0194 11.9865 18.2235C11.9867 18.5095 11.9897 18.7953 11.9934 19.0813C11.9928 19.1656 11.9923 19.2499 11.9917 19.3368C12.0025 19.882 12.1092 20.1655 12.4989 20.5478C12.8219 20.7092 13.028 20.6956 13.3886 20.659C13.6891 20.5244 13.9562 20.3478 14.2296 20.1655C14.3069 20.1159 14.3841 20.0663 14.4637 20.0153C14.8449 19.7685 15.2184 19.5132 15.5858 19.2463C15.6504 19.1997 15.715 19.1532 15.7815 19.1053C15.9576 18.977 16.1317 18.8461 16.3057 18.715C16.6137 18.546 16.6137 18.546 16.8685 18.5648C17.2448 18.6803 17.5212 18.8593 17.8487 19.0777C17.9115 19.1193 17.9744 19.1608 18.0392 19.2036C18.2388 19.3357 18.4375 19.4691 18.6363 19.6025C18.8364 19.7356 19.0366 19.8685 19.2369 20.0014C19.418 20.1216 19.5986 20.2425 19.7793 20.3634C20.2046 20.6416 20.4374 20.7093 20.9508 20.659C21.251 20.4588 21.4559 20.316 21.618 19.9917C21.6317 19.7 21.6387 19.411 21.6409 19.1192C21.642 19.0291 21.6431 18.939 21.6442 18.8462C21.6477 18.5478 21.6505 18.2493 21.6532 17.9509C21.6555 17.7442 21.6579 17.5376 21.6602 17.331C21.6664 16.7865 21.6719 16.2421 21.6772 15.6976C21.6838 15.0447 21.6912 14.3918 21.6984 13.7388C21.7093 12.7464 21.7192 11.7539 21.7292 10.7614C24.6285 10.7614 27.5277 10.7614 30.5147 10.7614C30.5147 11.8991 30.5147 13.0367 30.5147 14.2089C31.0051 16.661 31.8226 18.9642 33.6286 20.7702C33.6562 20.9861 33.6562 20.9861 33.6559 21.2561C33.6564 21.3588 33.6568 21.4615 33.6573 21.5673C33.6566 21.6809 33.656 21.7945 33.6553 21.9115C33.6556 22.0916 33.6556 22.0916 33.6559 22.2754C33.6563 22.6804 33.655 23.0855 33.6538 23.4905C33.6538 23.7798 33.6538 24.0691 33.6539 24.3583C33.654 24.9825 33.6533 25.6067 33.6521 26.2309C33.6503 27.1333 33.6497 28.0358 33.6494 28.9383C33.6489 30.4023 33.6474 31.8664 33.6453 33.3305C33.6433 34.753 33.6417 36.1754 33.6408 37.5979C33.6407 37.6856 33.6407 37.7732 33.6406 37.8635C33.6403 38.3031 33.64 38.7428 33.6398 39.1824C33.6375 42.8313 33.6335 46.4803 33.6286 50.1292C29.7109 50.1394 25.7932 50.1473 21.8755 50.152C21.4127 50.1525 20.9499 50.1531 20.487 50.1537C20.3949 50.1538 20.3028 50.1539 20.2078 50.154C18.7172 50.156 17.2265 50.1595 15.7359 50.1636C14.2056 50.1677 12.6754 50.1702 11.1451 50.1711C10.2013 50.1717 9.25756 50.1736 8.31378 50.1772C7.66605 50.1796 7.01834 50.1803 6.37061 50.1797C5.99723 50.1794 5.62392 50.1801 5.25055 50.1823C4.8448 50.1845 4.43914 50.1839 4.03338 50.1827C3.91666 50.184 3.79993 50.1853 3.67966 50.1867C2.65569 50.1784 1.64198 49.9438 0.877647 49.2218C0.284694 48.4945 0.0302289 47.6828 0.0289675 46.7557C0.0285403 46.6375 0.0281131 46.5194 0.027673 46.3976C0.0277693 46.2684 0.0278658 46.1393 0.027965 46.0062C0.0276346 45.8684 0.0273043 45.7307 0.0269639 45.5888C0.0261661 45.2067 0.0258675 44.8247 0.0257854 44.4426C0.0255793 44.0304 0.0247397 43.6183 0.0239909 43.2061C0.0224813 42.3049 0.0218103 41.4037 0.0213206 40.5026C0.0210132 39.9397 0.020542 39.3768 0.0200413 38.814C0.0186855 37.255 0.0175401 35.6961 0.0171638 34.1372C0.0171394 34.0374 0.0171149 33.9377 0.0170898 33.8349C0.0170655 33.7349 0.0170412 33.6349 0.0170162 33.5319C0.0169668 33.3293 0.0169173 33.1267 0.0168673 32.9241C0.0168426 32.8236 0.016818 32.7231 0.0167926 32.6195C0.0163536 30.9915 0.014413 29.3634 0.011823 27.7354C0.00918435 26.0632 0.00779984 24.3911 0.00767023 22.719C0.00756837 21.7804 0.00693063 20.8418 0.00491 19.9032C0.00319527 19.1039 0.00262898 18.3046 0.00354633 17.5053C0.00398005 17.0977 0.00388091 16.6902 0.0023167 16.2826C0.000634042 15.8401 0.00155453 15.3976 0.00271505 14.9551C0.00181911 14.8272 0.000923091 14.6992 0 14.5674C0.00719938 13.3921 0.215082 12.4099 1.04446 11.5399C1.76593 10.9013 2.47509 10.7272 3.43365 10.7362ZM3.67536 37.6441C3.46039 38.068 3.43468 38.3441 3.43349 38.8179C3.43271 38.8961 3.43193 38.9743 3.43113 39.0549C3.42918 39.3117 3.43046 39.5683 3.43197 39.8251C3.43167 40.0045 3.43124 40.184 3.43068 40.3635C3.43002 40.7389 3.43097 41.1143 3.43305 41.4897C3.43559 41.9698 3.43413 42.4499 3.43147 42.93C3.42985 43.3004 3.43037 43.6708 3.43152 44.0411C3.43182 44.2181 3.43146 44.3951 3.43042 44.5721C3.42928 44.8199 3.43102 45.0676 3.43349 45.3153C3.43384 45.4561 3.4342 45.5968 3.43456 45.7418C3.51951 46.3192 3.74393 46.646 4.20455 46.9987C4.82718 47.1985 5.43736 47.1739 6.08729 47.1715C6.2386 47.1722 6.38991 47.173 6.54122 47.1739C6.9509 47.1758 7.36055 47.1757 7.77023 47.1751C8.11265 47.1747 8.45507 47.1754 8.79749 47.1761C9.60539 47.1777 10.4133 47.1775 11.2212 47.1762C12.0539 47.1749 12.8866 47.1765 13.7193 47.1795C14.4351 47.1819 15.1509 47.1827 15.8668 47.182C16.2939 47.1817 16.7211 47.1819 17.1482 47.1838C17.5499 47.1856 17.9515 47.1851 18.3531 47.183C18.5702 47.1824 18.7874 47.184 19.0045 47.1857C19.9552 47.178 19.9552 47.178 20.7284 46.6818C21.151 46.2009 21.1876 45.7989 21.1911 45.1716C21.1917 45.0978 21.1922 45.024 21.1928 44.9479C21.1944 44.7038 21.1952 44.4597 21.1958 44.2156C21.1964 44.0457 21.1971 43.8757 21.1977 43.7057C21.1989 43.3493 21.1995 42.9928 21.1999 42.6364C21.2005 42.1805 21.2032 41.7247 21.2064 41.2689C21.2084 40.9177 21.209 40.5665 21.2092 40.2153C21.2095 40.0473 21.2104 39.8793 21.2119 39.7114C21.2138 39.4758 21.2136 39.2403 21.2128 39.0048C21.2133 38.8709 21.2137 38.7371 21.2141 38.5992C21.1522 38.0403 20.9707 37.681 20.5546 37.3055C20.1495 37.025 19.9422 36.9924 19.452 36.991C19.2579 36.9901 19.2579 36.9901 19.0599 36.9891C18.9172 36.989 18.7745 36.9888 18.6275 36.9887C18.4762 36.9882 18.325 36.9876 18.1737 36.987C17.7622 36.9856 17.3507 36.9849 16.9391 36.9844C16.682 36.984 16.4249 36.9836 16.1678 36.9831C15.3633 36.9816 14.5589 36.9805 13.7544 36.9801C12.8258 36.9796 11.8972 36.9776 10.9687 36.9744C10.251 36.972 9.53327 36.9709 8.81558 36.9707C8.38692 36.9706 7.95829 36.9699 7.52964 36.968C7.12618 36.9661 6.72275 36.9659 6.31929 36.9669C6.10108 36.967 5.88287 36.9655 5.66467 36.9639C4.82453 36.9679 4.25138 36.9723 3.67536 37.6441Z" fill="#F07F0E"/>
<path d="M50.6406 20.7703C50.6457 24.125 50.6496 27.4798 50.652 30.8346C50.6523 31.2309 50.6525 31.6272 50.6528 32.0235C50.6529 32.1024 50.653 32.1813 50.653 32.2625C50.654 33.539 50.6557 34.8156 50.6578 36.0921C50.6599 37.4024 50.6611 38.7127 50.6616 40.0231C50.6618 40.7588 50.6625 41.4946 50.6641 42.2304C50.6657 42.9231 50.6661 43.6158 50.6658 44.3085C50.6658 44.5625 50.6663 44.8166 50.6671 45.0706C50.6682 45.418 50.668 45.7654 50.6674 46.1127C50.668 46.2128 50.6687 46.3129 50.6693 46.416C50.6642 47.5028 51.0299 50.2405 49.8066 50.1293C45.4694 50.1293 39.4542 50.1293 34.293 50.1293C34.293 40.7344 34.293 31.3395 34.293 21.6599C34.7623 21.8477 34.998 21.9823 35.3773 22.2855C36.5663 23.1669 37.9763 23.7526 39.4086 24.1065C39.555 24.1439 39.555 24.1439 39.7044 24.1821C42.7071 24.8129 45.8864 24.0992 48.4459 22.4602C49.0999 22.0092 49.7301 21.4759 50.2779 20.901C50.4182 20.7703 50.4182 20.7703 50.6406 20.7703Z" fill="#F07F0E"/>
<path d="M41.6364 4.86747C41.6915 5.25281 41.6915 5.25281 41.7476 5.64593C41.9641 5.71162 41.9641 5.71162 42.1925 5.75714C42.4114 5.53825 42.3774 5.16239 42.4149 4.86747C44.0135 4.72215 45.6555 5.43524 46.8954 6.40006C47.0745 6.55133 47.2478 6.70941 47.4193 6.86922C47.2358 7.12612 47.0523 7.38301 46.8632 7.64768C46.9183 7.75778 46.9183 7.75778 46.9744 7.8701C47.3994 7.81108 47.6486 7.70362 47.9753 7.42527C49.1046 8.63517 49.985 10.3612 49.991 12.0474C49.9864 12.1735 49.9818 12.2997 49.9771 12.4297C49.4816 12.4847 49.4816 12.4847 48.9762 12.5409C48.9762 12.7244 48.9762 12.9078 48.9762 13.0969C49.3065 13.1336 49.6368 13.1703 49.9771 13.2081C50.0828 15.0413 49.1733 16.8648 47.9753 18.2125C47.923 18.1724 47.8707 18.1322 47.8168 18.0909C47.7475 18.0393 47.6783 17.9876 47.6069 17.9345C47.5386 17.8829 47.4702 17.8313 47.3997 17.7781C47.1886 17.6279 47.1886 17.6279 46.8632 17.6565C46.9196 18.1498 47.1041 18.3935 47.4193 18.7685C46.1461 19.9219 44.467 20.7771 42.7138 20.7911C42.6151 20.7843 42.5165 20.7774 42.4149 20.7703C42.3598 20.2749 42.3598 20.2749 42.3037 19.7694C42.1202 19.8061 41.9367 19.8428 41.7476 19.8806C41.6926 20.321 41.6926 20.321 41.6364 20.7703C39.7574 20.736 38.0096 20.0543 36.632 18.7685C36.7031 18.6883 36.7743 18.608 36.8475 18.5253C37.0754 18.2145 37.1451 18.0327 37.1881 17.6565C36.6986 17.7124 36.4417 17.8886 36.076 18.2125C34.8074 16.8533 34.0422 15.0693 34.0742 13.2081C34.4596 13.1531 34.4596 13.1531 34.8527 13.0969C34.9261 12.9134 34.9995 12.7299 35.0751 12.5409C34.7448 12.5042 34.4145 12.4675 34.0742 12.4297C33.9618 10.7996 34.6668 9.0015 35.7354 7.77279C35.8473 7.65531 35.9601 7.53872 36.076 7.42527C36.1999 7.53536 36.1999 7.53536 36.3262 7.64768C36.629 7.91371 36.629 7.91371 37.0769 7.8701C37.0172 7.44006 36.9006 7.20612 36.632 6.86922C37.8915 5.54353 39.8213 4.77671 41.6364 4.86747ZM41.8588 7.31406C41.5869 7.58601 41.6064 7.66369 41.5988 8.03762C41.5963 8.1416 41.5938 8.24559 41.5913 8.35272C41.59 8.46554 41.5887 8.57837 41.5873 8.69461C41.5858 8.81067 41.5843 8.92672 41.5827 9.0463C41.5801 9.29254 41.5782 9.53878 41.5769 9.78503C41.5739 10.1601 41.5656 10.5347 41.5571 10.9097C41.5553 11.149 41.5538 11.3884 41.5526 11.6277C41.5493 11.7392 41.5459 11.8507 41.5425 11.9655C41.5471 12.6937 41.6944 13.0608 42.212 13.5759C42.2789 13.638 42.3459 13.7001 42.4149 13.7642C42.5057 13.8609 42.5966 13.9577 42.6902 14.0574C42.9567 14.3289 43.224 14.5994 43.4922 14.8693C43.5858 14.9651 43.6793 15.061 43.7757 15.1597C43.8661 15.2507 43.9564 15.3416 44.0496 15.4353C44.1714 15.5587 44.1714 15.5587 44.2957 15.6846C44.5319 15.8804 44.6675 15.9675 44.9727 15.9883C45.0828 15.8782 45.0828 15.8782 45.1951 15.7659C45.2018 15.5449 45.2018 15.5449 45.0839 15.3211C44.8324 15.1074 44.8324 15.1074 44.5174 14.9019C43.5358 14.1553 42.6012 13.417 42.3981 12.1347C42.265 10.8619 42.3087 9.56848 42.3917 8.29322C42.3977 8.19676 42.4036 8.10031 42.4098 8.00094C42.416 7.91629 42.4222 7.83165 42.4286 7.74444C42.436 7.50873 42.436 7.50873 42.1925 7.31406C42.0824 7.31406 41.9723 7.31406 41.8588 7.31406Z" fill="#F07F0E"/>
<path d="M48.9781 4.31111C49.0717 4.38637 49.1653 4.46163 49.2617 4.53917C51.4962 6.44005 52.7352 9.20136 52.9816 12.0957C53.1564 14.9596 52.1827 17.8209 50.3126 19.9915C48.3233 22.2002 45.6439 23.5798 42.6601 23.763C39.5799 23.884 36.8394 22.8405 34.5049 20.8443C32.5739 19.0401 31.1762 16.3236 31.0735 13.6526C31.0677 13.5242 31.062 13.3957 31.0561 13.2634C30.9664 10.2643 32.0148 7.56637 33.9649 5.31199C34.0297 5.23586 34.0945 5.15974 34.1613 5.08131C37.9719 0.953133 44.7441 0.897057 48.9781 4.31111ZM35.7442 6.7577C35.6453 6.85769 35.6453 6.85769 35.5444 6.9597C33.8821 8.70897 33.2281 10.935 33.2677 13.3094C33.3446 15.3128 34.1712 17.185 35.5218 18.657C35.5956 18.741 35.6695 18.825 35.7455 18.9116C37.2643 20.5455 39.3798 21.4386 41.5879 21.5723C44.0047 21.635 46.2871 20.8068 48.055 19.1453C49.6746 17.5586 50.7414 15.4037 50.7842 13.1121C50.7945 10.5361 49.8925 8.36998 48.0884 6.53528C47.9738 6.41852 47.9738 6.41852 47.8568 6.2994C46.0874 4.61529 43.8375 4.00635 41.4519 4.05481C39.2857 4.14833 37.2137 5.17517 35.7442 6.7577Z" fill="#F07F0E"/>
<path d="M5.42945 37.6591C5.55559 37.6586 5.68173 37.6581 5.81169 37.6576C6.01942 37.6577 6.01942 37.6577 6.23134 37.6578C6.44999 37.6572 6.44999 37.6572 6.67306 37.6566C7.07308 37.6557 7.47311 37.6554 7.87313 37.6553C8.20699 37.6552 8.54084 37.6548 8.8747 37.6544C9.66227 37.6535 10.4498 37.6532 11.2374 37.6533C12.0501 37.6534 12.8628 37.6522 13.6755 37.6505C14.373 37.649 15.0706 37.6484 15.7682 37.6485C16.1849 37.6485 16.6016 37.6482 17.0183 37.647C17.4829 37.6457 17.9475 37.6462 18.4122 37.6469C18.6195 37.646 18.6195 37.646 18.8311 37.645C18.9576 37.6455 19.084 37.646 19.2143 37.6464C19.3242 37.6464 19.4341 37.6463 19.5472 37.6462C19.8477 37.6751 20.0281 37.733 20.2804 37.8963C20.4419 38.2194 20.4075 38.5027 20.4095 38.8635C20.41 38.94 20.4106 39.0165 20.4112 39.0954C20.4128 39.3489 20.4135 39.6024 20.4142 39.856C20.4148 40.0319 20.4154 40.2078 20.4161 40.3837C20.4172 40.7527 20.4179 41.1217 20.4183 41.4907C20.4189 41.9639 20.4216 42.437 20.4247 42.9102C20.4268 43.2736 20.4274 43.637 20.4275 44.0004C20.4279 44.1749 20.4288 44.3494 20.4302 44.5238C20.4321 44.7677 20.4319 45.0115 20.4312 45.2554C20.4318 45.4637 20.4318 45.4637 20.4324 45.6762C20.3916 46.0146 20.3916 46.0146 20.2615 46.1998C19.9774 46.4069 19.7789 46.3905 19.429 46.3913C19.298 46.3924 19.167 46.3935 19.0321 46.3946C18.8882 46.3941 18.7444 46.3936 18.5962 46.3931C18.4433 46.3938 18.2904 46.3945 18.1375 46.3954C17.722 46.3974 17.3066 46.3973 16.8912 46.3967C16.5446 46.3963 16.1981 46.397 15.8515 46.3977C15.0341 46.3992 14.2166 46.3991 13.3992 46.3978C12.5553 46.3965 11.7114 46.3981 10.8675 46.4011C10.1434 46.4035 9.41931 46.4043 8.69519 46.4036C8.2625 46.4032 7.82985 46.4035 7.39717 46.4054C6.99041 46.4071 6.58371 46.4067 6.17696 46.4046C5.95616 46.404 5.73537 46.4056 5.51458 46.4072C5.38361 46.4062 5.25263 46.4051 5.11768 46.4039C4.94657 46.4039 4.94657 46.4039 4.77201 46.4039C4.48874 46.3482 4.48874 46.3482 4.28526 46.1437C4.10244 45.8061 4.1127 45.5383 4.11194 45.1555C4.11136 45.0813 4.11077 45.0071 4.11017 44.9307C4.10871 44.6861 4.10967 44.4416 4.1108 44.197C4.11058 44.0267 4.11025 43.8563 4.10984 43.686C4.10934 43.3293 4.11006 42.9725 4.11162 42.6158C4.11352 42.1588 4.11242 41.7019 4.11043 41.2449C4.10922 40.8933 4.1096 40.5416 4.11047 40.1899C4.11069 40.0215 4.11042 39.853 4.10964 39.6845C4.10879 39.4489 4.11009 39.2134 4.11194 38.9778C4.11221 38.8438 4.11247 38.7098 4.11275 38.5718C4.15889 38.1995 4.22402 38.0465 4.48874 37.7851C4.8327 37.6705 5.06893 37.6597 5.42945 37.6591ZM7.15774 40.0093C7.00381 40.1379 7.00381 40.1379 7.03391 40.4904C7.03393 40.6546 7.03456 40.8187 7.03567 40.9828C7.03583 41.0691 7.03599 41.1553 7.03615 41.2441C7.03678 41.5206 7.03817 41.7971 7.03958 42.0736C7.04014 42.2606 7.04065 42.4476 7.0411 42.6347C7.04233 43.094 7.04425 43.5534 7.04653 44.0128C7.23071 44.0553 7.41626 44.0922 7.60258 44.124C7.75651 43.9954 7.75651 43.9954 7.72641 43.6429C7.72639 43.4788 7.72576 43.3146 7.72465 43.1505C7.72449 43.0643 7.72433 42.978 7.72417 42.8892C7.72355 42.6127 7.72215 42.3362 7.72074 42.0597C7.72018 41.8727 7.71967 41.6857 7.71922 41.4987C7.71799 41.0393 7.71607 40.5799 7.71379 40.1205C7.52961 40.078 7.34407 40.0411 7.15774 40.0093ZM10.494 40.0093C10.2204 40.2829 10.2443 40.4372 10.2407 40.8108C10.2411 40.8892 10.2416 40.9676 10.242 41.0484C10.2418 41.129 10.2416 41.2096 10.2414 41.2927C10.2412 41.4632 10.2417 41.6337 10.2426 41.8042C10.2438 42.0656 10.2426 42.327 10.2412 42.5884C10.2413 42.7539 10.2416 42.9194 10.242 43.0849C10.2416 43.1633 10.2411 43.2418 10.2407 43.3226C10.2324 43.7733 10.2324 43.7733 10.494 44.124C10.8034 44.079 10.8034 44.079 11.05 43.9016C11.0626 43.6319 11.0683 43.3656 11.0687 43.0958C11.0691 43.015 11.0695 42.9342 11.0698 42.851C11.0704 42.6798 11.0707 42.5087 11.0707 42.3375C11.0709 42.0751 11.0729 41.8128 11.075 41.5504C11.0753 41.3844 11.0756 41.2183 11.0757 41.0523C11.0765 40.9735 11.0773 40.8948 11.0781 40.8136C11.0893 40.3614 11.0893 40.3614 10.8276 40.0093C10.7175 40.0093 10.6074 40.0093 10.494 40.0093ZM13.719 40.0093C13.5651 40.1379 13.5651 40.1379 13.5952 40.4904C13.5952 40.6546 13.5959 40.8187 13.597 40.9828C13.5971 41.0691 13.5973 41.1553 13.5975 41.2441C13.5981 41.5206 13.5995 41.7971 13.6009 42.0736C13.6014 42.2606 13.602 42.4476 13.6024 42.6347C13.6036 43.094 13.6056 43.5534 13.6078 44.0128C13.792 44.0553 13.9776 44.0922 14.1639 44.124C14.3178 43.9954 14.3178 43.9954 14.2877 43.6429C14.2877 43.4788 14.2871 43.3146 14.286 43.1505C14.2858 43.0643 14.2856 42.978 14.2855 42.8892C14.2849 42.6127 14.2835 42.3362 14.282 42.0597C14.2815 41.8727 14.281 41.6857 14.2805 41.4987C14.2793 41.0393 14.2774 40.5799 14.2751 40.1205C14.0909 40.078 13.9054 40.0411 13.719 40.0093ZM17.0553 40.0093C16.7817 40.2829 16.8056 40.4372 16.802 40.8108C16.8024 40.8892 16.8029 40.9676 16.8033 41.0484C16.8031 41.129 16.8029 41.2096 16.8027 41.2927C16.8026 41.4632 16.803 41.6337 16.8039 41.8042C16.8051 42.0656 16.8039 42.327 16.8025 42.5884C16.8026 42.7539 16.8029 42.9194 16.8033 43.0849C16.8029 43.1633 16.8024 43.2418 16.802 43.3226C16.7937 43.7733 16.7937 43.7733 17.0553 44.124C17.3647 44.079 17.3647 44.079 17.6113 43.9016C17.6239 43.6319 17.6296 43.3656 17.63 43.0958C17.6304 43.015 17.6308 42.9342 17.6311 42.851C17.6317 42.6798 17.632 42.5087 17.632 42.3375C17.6322 42.0751 17.6342 41.8128 17.6363 41.5504C17.6367 41.3844 17.6369 41.2183 17.637 41.0523C17.6378 40.9735 17.6386 40.8948 17.6394 40.8136C17.6506 40.3614 17.6506 40.3614 17.3889 40.0093C17.2788 40.0093 17.1687 40.0093 17.0553 40.0093Z" fill="#F07F0E"/>
<path d="M12.6111 10.7612C15.3635 10.7612 18.116 10.7612 20.9518 10.7612C20.9562 13.0326 20.9562 13.0326 20.9572 13.9974C20.9579 14.6569 20.9587 15.3163 20.9602 15.9758C20.9614 16.5073 20.962 17.0387 20.9623 17.5701C20.9625 17.7733 20.9629 17.9765 20.9635 18.1798C20.9643 18.4634 20.9645 18.747 20.9644 19.0306C20.9648 19.1155 20.9652 19.2003 20.9656 19.2878C20.9645 19.8676 20.9645 19.8676 20.8406 19.9915C20.1985 19.9612 19.806 19.751 19.3114 19.366C19.1752 19.265 19.0388 19.1642 18.9022 19.0636C18.8353 19.0138 18.7684 18.9639 18.6995 18.9125C18.4207 18.7055 18.139 18.5047 17.8518 18.3095C17.7627 18.2473 17.6735 18.1851 17.5816 18.121C17.1777 17.9442 16.8213 17.9107 16.3922 17.9898C16.0954 18.1211 15.8462 18.2976 15.586 18.4902C15.5146 18.5402 15.4432 18.5901 15.3697 18.6416C15.1531 18.7932 14.9385 18.9472 14.7241 19.1019C14.4821 19.2753 14.2388 19.4463 13.9943 19.6162C13.8427 19.725 13.8427 19.725 13.688 19.836C13.3405 20.0171 13.1088 20.0222 12.7223 19.9915C12.5882 19.5891 12.5965 19.2222 12.5985 18.8034C12.5985 18.6731 12.5985 18.6731 12.5985 18.5403C12.5985 18.2532 12.5994 17.9662 12.6003 17.6792C12.6005 17.4802 12.6006 17.2812 12.6008 17.0822C12.6012 16.5584 12.6023 16.0346 12.6035 15.5108C12.6048 14.8824 12.6053 14.254 12.606 13.6255C12.6071 12.6708 12.6092 11.716 12.6111 10.7612Z" fill="#F07F0E"/>
</svg>
