<svg width="53" height="53" viewBox="0 0 53 53" fill="none" xmlns="http://www.w3.org/2000/svg">
<path d="M31.6027 4.22803C31.7091 4.25413 31.8156 4.28022 31.9252 4.3071C35.7814 5.28156 39.2758 7.16542 42.1587 9.91201C42.2248 9.97498 42.2909 10.038 42.3591 10.1028C43.3546 11.0571 44.2712 12.0234 45.0586 13.16C45.1106 13.235 45.1626 13.3101 45.2162 13.3874C46.0048 14.5392 46.6769 15.7217 47.2626 16.988C47.3244 17.1185 47.3862 17.2491 47.4498 17.3836C48.5369 19.7854 49.2358 22.5458 49.2623 25.1877C49.2634 25.2819 49.2645 25.376 49.2657 25.473C49.2856 27.5545 49.2717 29.5704 48.7706 31.6039C48.7445 31.7104 48.7184 31.8168 48.6916 31.9264C47.7171 35.7827 45.8332 39.277 43.0867 42.1599C43.0237 42.226 42.9607 42.2922 42.8958 42.3603C41.4779 43.8395 39.9663 45.0409 38.2147 46.1039C38.1082 46.1691 38.1082 46.1691 37.9996 46.2357C36.0137 47.442 33.8571 48.2296 31.6027 48.7719C31.4524 48.8087 31.4524 48.8087 31.299 48.8463C28.1621 49.5795 24.5195 49.5324 21.3947 48.7719C21.2939 48.7482 21.193 48.7246 21.089 48.7003C15.9212 47.4588 10.9631 44.2604 7.93878 39.8399C7.88729 39.7654 7.83579 39.6908 7.78274 39.614C6.9937 38.4619 6.31968 37.2793 5.73479 36.0119C5.67304 35.88 5.61128 35.7481 5.54765 35.6123C4.45677 33.1824 3.76188 30.4833 3.73516 27.8122C3.73346 27.6709 3.73346 27.6709 3.73172 27.5268C3.71178 25.4454 3.72575 23.4295 4.2268 21.396C4.25289 21.2895 4.27898 21.1831 4.30587 21.0735C5.28033 17.2172 7.16418 13.7229 9.91078 10.84C9.97375 10.7739 10.0367 10.7077 10.1016 10.6396C11.0559 9.64408 12.0222 8.72746 13.1588 7.94002C13.2338 7.88802 13.3089 7.83602 13.3862 7.78244C15.9721 6.01209 18.8062 4.8166 21.8587 4.11203C21.9892 4.08083 21.9892 4.08083 22.1223 4.04899C25.0832 3.37411 28.6715 3.50581 31.6027 4.22803ZM25.8752 6.38852C25.6302 6.7466 25.6157 6.9341 25.6867 7.36002C25.8607 7.65002 25.8607 7.65002 26.1507 7.82402C26.5766 7.89501 26.7641 7.88052 27.1222 7.63552C27.3672 7.27745 27.3817 7.08994 27.3107 6.66402C27.1367 6.37402 27.1367 6.37402 26.8467 6.20003C26.4208 6.12904 26.2333 6.14353 25.8752 6.38852ZM18.5237 7.78052C18.2336 8.08682 18.1467 8.21632 18.1467 8.63602C18.3499 9.06668 18.3499 9.06668 18.7267 9.33201C19.1422 9.37717 19.3488 9.38259 19.6982 9.14351C19.9432 8.78544 19.9577 8.59793 19.8867 8.17202C19.6627 7.86499 19.4906 7.73584 19.14 7.59202C18.8236 7.56682 18.8236 7.56682 18.5237 7.78052ZM33.2267 7.94002C33.0619 8.26955 33.0742 8.50317 33.1107 8.86802C33.2847 9.15801 33.2847 9.15801 33.5747 9.33201C33.9636 9.38873 34.1853 9.37355 34.5389 9.20151C34.8137 8.89617 34.8507 8.6968 34.8507 8.28802C34.6411 7.92528 34.4929 7.75159 34.1039 7.59202C33.7178 7.59202 33.5323 7.71081 33.2267 7.94002ZM15.3628 14.784C15.2533 14.8848 15.1438 14.9856 15.0311 15.0894C12.2017 17.7471 10.4815 21.6736 10.3308 25.538C10.215 29.9359 11.4542 34.0935 14.5064 37.3477C14.5976 37.4428 14.6888 37.5379 14.7828 37.6359C14.8835 37.7454 14.9843 37.8548 15.0882 37.9676C17.8419 40.8992 21.8716 42.5346 25.8581 42.7374C30.0673 42.8515 34.265 41.3825 37.3465 38.4923C37.4416 38.4011 37.5367 38.3099 37.6347 38.2159C37.7441 38.1151 37.8536 38.0143 37.9664 37.9105C40.7957 35.2528 42.5159 31.3263 42.6666 27.4619C42.7824 23.064 41.5432 18.9064 38.4911 15.6522C38.3999 15.5571 38.3086 15.462 38.2147 15.364C38.0635 15.1998 38.0635 15.1998 37.9093 15.0323C34.9376 11.8687 30.8475 10.5172 26.6147 10.26C22.3986 10.26 18.3959 11.8749 15.3628 14.784ZM12.0713 12.0725C11.8276 12.4286 11.8209 12.6201 11.8828 13.044C12.0612 13.4109 12.1771 13.4893 12.5643 13.624C12.9373 13.6542 12.9373 13.6542 13.253 13.4355C13.5356 13.1287 13.6228 12.9953 13.6228 12.58C13.4196 12.1493 13.4196 12.1493 13.0428 11.884C12.6273 11.8388 12.4207 11.8334 12.0713 12.0725ZM39.4907 12.232C39.3548 12.5637 39.3548 12.5637 39.3747 12.928C39.5842 13.2907 39.7325 13.4644 40.1214 13.624C40.5076 13.624 40.6931 13.5052 40.9987 13.276C41.1634 12.9465 41.1511 12.7128 41.1147 12.348C40.9407 12.058 40.9407 12.058 40.6507 11.884C40.1506 11.8111 39.8352 11.8492 39.4907 12.232ZM7.96053 18.3365C7.67794 18.6433 7.59079 18.7766 7.59079 19.192C7.79392 19.6226 7.79392 19.6226 8.17078 19.888C8.58627 19.9331 8.79287 19.9385 9.14228 19.6995C9.38592 19.3434 9.3926 19.1519 9.33078 18.728C9.15231 18.3611 9.03648 18.2827 8.64928 18.148C8.2763 18.1178 8.2763 18.1178 7.96053 18.3365ZM43.7826 18.496C43.6179 18.8255 43.6302 19.0591 43.6667 19.424C43.8406 19.714 43.8406 19.714 44.1306 19.888C44.4786 19.9653 44.4786 19.9653 44.8266 19.888C45.1337 19.6639 45.2628 19.4918 45.4066 19.1412C45.4318 18.8249 45.4318 18.8249 45.2181 18.525C44.6977 18.0319 44.3427 18.076 43.7826 18.496ZM6.38729 25.8765C6.14229 26.2345 6.1278 26.422 6.19879 26.8479C6.37279 27.1379 6.37279 27.1379 6.66279 27.3119C7.08871 27.3829 7.27621 27.3684 7.63429 27.1234C7.87928 26.7654 7.89377 26.5779 7.82278 26.152C7.64879 25.862 7.64879 25.862 7.35879 25.688C6.93287 25.617 6.74536 25.6315 6.38729 25.8765ZM45.3631 25.8765C45.1181 26.2345 45.1037 26.422 45.1746 26.8479C45.3486 27.1379 45.3486 27.1379 45.6386 27.3119C46.0646 27.3829 46.2521 27.3684 46.6101 27.1234C46.8551 26.7654 46.8696 26.5779 46.7986 26.152C46.6246 25.862 46.6246 25.862 46.3346 25.688C45.9087 25.617 45.7212 25.6315 45.3631 25.8765ZM7.70678 33.4599C7.57094 33.7916 7.57094 33.7916 7.59079 34.1559C7.80037 34.5187 7.94859 34.6924 8.33753 34.8519C8.7237 34.8519 8.90917 34.7331 9.21478 34.5039C9.37955 34.1744 9.36726 33.9408 9.33078 33.5759C9.15678 33.2859 9.15678 33.2859 8.86678 33.1119C8.36672 33.039 8.05131 33.0771 7.70678 33.4599ZM43.8552 33.3004C43.6115 33.6565 43.6048 33.848 43.6667 34.2719C43.8451 34.6388 43.9609 34.7172 44.3481 34.8519C44.7211 34.8821 44.7211 34.8821 45.0369 34.6634C45.3195 34.3566 45.4066 34.2233 45.4066 33.8079C45.2035 33.3773 45.2035 33.3773 44.8266 33.1119C44.4112 33.0668 44.2046 33.0614 43.8552 33.3004ZM11.9988 39.7239C11.834 40.0534 11.8463 40.2871 11.8828 40.6519C12.0568 40.9419 12.0568 40.9419 12.3468 41.1159C12.7357 41.1726 12.9574 41.1574 13.311 40.9854C13.5858 40.6801 13.6228 40.4807 13.6228 40.0719C13.4132 39.7092 13.265 39.5355 12.876 39.3759C12.4898 39.3759 12.3044 39.4947 11.9988 39.7239ZM39.7444 39.5644C39.4618 39.8712 39.3747 40.0046 39.3747 40.4199C39.5778 40.8506 39.5778 40.8506 39.9547 41.1159C40.3701 41.1611 40.5767 41.1665 40.9262 40.9274C41.1698 40.5713 41.1765 40.3798 41.1147 39.9559C40.9362 39.5891 40.8204 39.5106 40.4332 39.3759C40.0602 39.3457 40.0602 39.3457 39.7444 39.5644ZM18.2627 44.0159C18.1269 44.3476 18.1269 44.3476 18.1467 44.7119C18.3563 45.0746 18.5046 45.2483 18.8935 45.4079C19.2797 45.4079 19.4651 45.2891 19.7707 45.0599C19.9355 44.7303 19.9232 44.4967 19.8867 44.1319C19.7127 43.8419 19.7127 43.8419 19.4227 43.6679C18.9227 43.595 18.6073 43.6331 18.2627 44.0159ZM33.2992 43.8564C33.0542 44.2145 33.0397 44.402 33.1107 44.8279C33.3347 45.1349 33.5069 45.2641 33.8574 45.4079C34.1738 45.4331 34.1738 45.4331 34.4737 45.2194C34.7639 44.9131 34.8507 44.7836 34.8507 44.3639C34.6476 43.9332 34.6476 43.9332 34.2707 43.6679C33.8552 43.6227 33.6486 43.6173 33.2992 43.8564ZM25.8752 45.3644C25.6302 45.7225 25.6157 45.91 25.6867 46.3359C25.8607 46.6259 25.8607 46.6259 26.1507 46.7999C26.5766 46.8709 26.7641 46.8564 27.1222 46.6114C27.3672 46.2533 27.3817 46.0658 27.3107 45.6399C27.1367 45.3499 27.1367 45.3499 26.8467 45.1759C26.4208 45.1049 26.2333 45.1194 25.8752 45.3644Z" fill="#F07F0E"/>
<path d="M28.7578 0.499791C29.7452 0.854422 30.7479 0.791071 31.7836 0.742608C33.0061 0.697116 34.0831 0.883633 35.055 1.67604C35.9626 2.3719 36.6884 2.64477 37.8145 2.87048C39.2668 3.16551 40.2837 3.6467 41.232 4.80078C41.974 5.70347 42.7257 6.2654 43.7834 6.76422C45.2803 7.47493 45.8799 8.3631 46.5857 9.82682C47.0021 10.6812 47.5141 11.2134 48.25 11.8115C49.517 12.8442 49.9007 14.03 50.2075 15.596C50.4279 16.649 50.8478 17.425 51.507 18.2626C52.0386 19.0147 52.2755 19.8005 52.2388 20.7118C52.1553 22.6387 52.1553 22.6387 52.6 24.4917C53.1972 25.998 53.0945 27.2724 52.5002 28.7574C52.1443 29.7478 52.2091 30.755 52.2574 31.7937C52.3055 33.0887 52.0105 34.009 51.2678 35.0631C50.5637 36.0756 50.2212 37.0672 50.0045 38.2739C49.751 39.5926 49.1488 40.5128 48.0905 41.3261C47.2059 42.0236 46.703 42.7887 46.22 43.7911C45.557 45.1489 44.8985 45.7044 43.5461 46.344C42.3863 46.8984 41.5166 47.6834 40.7825 48.7356C39.8947 49.7017 38.6376 49.9657 37.404 50.2074C36.351 50.4278 35.575 50.8477 34.7374 51.5069C33.9853 52.0385 33.1996 52.2754 32.2882 52.2387C30.3613 52.1552 30.3613 52.1552 28.5083 52.5999C27.002 53.1971 25.7276 53.0944 24.2426 52.5001C23.2522 52.1442 22.245 52.209 21.2063 52.2573C19.9113 52.3053 18.991 52.0104 17.9369 51.2677C16.9244 50.5636 15.9328 50.2211 14.7261 50.0044C13.447 49.7585 12.5084 49.1882 11.7174 48.1411C11.0336 47.2481 10.3225 46.816 9.32268 46.3313C7.93313 45.6525 7.22828 44.833 6.56988 43.4504C6.06797 42.4058 5.43996 41.6274 4.49638 40.9419C3.33948 40.0798 3.05582 38.7474 2.79264 37.4039C2.57222 36.3509 2.15232 35.5749 1.49308 34.7373C0.961496 33.9852 0.724626 33.1994 0.761288 32.2881C0.844779 30.3612 0.844779 30.3612 0.400148 28.5082C-0.197051 27.0019 -0.0944102 25.7275 0.499892 24.2425C0.855826 23.2521 0.790979 22.2449 0.742709 21.2062C0.694653 19.9112 0.989586 18.9909 1.73233 17.9368C2.43637 16.9243 2.77887 15.9327 2.99564 14.726C3.24146 13.4469 3.8118 12.5083 4.85888 11.7173C5.75191 11.0335 6.18399 10.3224 6.66868 9.32258C7.34904 7.92989 8.17298 7.22563 9.55686 6.56252C10.5873 6.06494 11.2995 5.47863 11.9929 4.56153C12.9134 3.37485 14.1855 3.06885 15.5961 2.79254C16.5699 2.58785 17.3127 2.24812 18.0756 1.61079C19.1527 0.746539 20.3138 0.70037 21.6426 0.762545C22.661 0.789324 23.5396 0.780735 24.4918 0.400047C25.9985 -0.197274 27.2723 -0.0940708 28.7578 0.499791ZM11.7681 8.05602C11.7006 8.11155 11.6332 8.16708 11.5636 8.2243C10.2245 9.33448 9.009 10.5059 7.94012 11.884C7.89156 11.9457 7.843 12.0073 7.79297 12.0709C4.92517 15.7327 2.97144 20.4919 2.9245 25.1877C2.92337 25.2819 2.92224 25.3761 2.92107 25.4731C2.90117 27.56 2.93513 29.5617 3.41614 31.6039C3.43724 31.6998 3.45834 31.7956 3.48008 31.8943C4.30263 35.5998 6.15419 39.0752 8.63612 41.9279C8.69114 41.9916 8.74617 42.0552 8.80287 42.1208C12.843 46.7606 18.6596 49.6264 24.7886 50.0982C31.0268 50.5066 37.2088 48.4698 41.928 44.3639C41.9917 44.3089 42.0553 44.2538 42.1209 44.1971C46.0474 40.7782 48.5747 36.1986 49.7 31.1399C49.7208 31.0511 49.7416 30.9623 49.763 30.8708C50.4371 27.8875 50.2803 24.3524 49.584 21.396C49.5629 21.3001 49.5418 21.2043 49.52 21.1056C48.7685 17.7199 47.1462 14.4436 44.944 11.768C44.8885 11.7005 44.8329 11.6331 44.7757 11.5635C43.6655 10.2244 42.4941 9.0089 41.116 7.94002C41.0543 7.89146 40.9927 7.8429 40.9291 7.79287C32.8315 1.45109 20.7486 1.13859 11.7681 8.05602Z" fill="#F07F0E"/>
<path d="M26.4403 11.1444C26.5622 11.1444 26.5622 11.1444 26.6865 11.1444C28.0588 11.1486 29.3509 11.2751 30.6743 11.6519C30.7903 11.6835 30.7903 11.6835 30.9087 11.7158C34.5486 12.7308 37.8644 15.3231 39.744 18.5973C39.8957 18.8707 40.042 19.1465 40.1862 19.4238C40.2403 19.5265 40.2403 19.5265 40.2954 19.6312C41.4035 21.7651 41.8604 24.0452 41.8537 26.4418C41.8537 26.5231 41.8537 26.6043 41.8537 26.688C41.8495 28.0616 41.719 29.3506 41.3462 30.6758C41.3082 30.8214 41.2703 30.9671 41.2311 31.1171C40.1031 34.946 37.2748 38.1771 33.8194 40.0949C30.3408 41.9495 26.1252 42.4176 22.3223 41.3477C22.1767 41.3098 22.031 41.2718 21.881 41.2327C18.0521 40.1046 14.821 37.2764 12.9032 33.8209C11.0528 30.3504 10.57 26.1186 11.6503 22.3238C11.682 22.2078 11.682 22.2078 11.7143 22.0894C12.7293 18.4495 15.3216 15.1337 18.5958 13.2541C18.8691 13.1024 19.1449 12.956 19.4223 12.8119C19.4908 12.7758 19.5592 12.7398 19.6297 12.7027C21.7635 11.5946 24.0437 11.1377 26.4403 11.1444ZM24.2077 13.3221C23.0571 14.6667 22.6648 16.0564 22.7631 17.8033C22.8435 18.5959 23.1665 19.2813 23.5502 19.9672C23.6026 20.061 23.655 20.1548 23.709 20.2514C23.749 20.3229 23.789 20.3943 23.8303 20.4678C23.7611 20.4673 23.692 20.4668 23.6208 20.4663C22.8981 20.4611 22.1755 20.4576 21.4528 20.4551C21.1835 20.4539 20.9141 20.4523 20.6448 20.4503C20.2566 20.4475 19.8685 20.4462 19.4803 20.4452C19.3608 20.444 19.2412 20.4428 19.1181 20.4415C18.1489 20.4414 17.2927 20.5133 16.5223 21.1638C15.9716 21.7654 15.8529 22.3417 15.8834 23.1467C15.9597 23.5832 16.1233 23.8677 16.3954 24.2124C16.5223 24.4118 16.5223 24.4118 16.5223 24.8758C16.3954 25.0752 16.3954 25.0752 16.2323 25.2818C15.8354 25.8897 15.8192 26.4913 15.9423 27.1958C16.0705 27.4681 16.2093 27.6887 16.3954 27.9244C16.5223 28.1238 16.5223 28.1238 16.5223 28.5878C16.3954 28.7872 16.3954 28.7872 16.2323 28.9938C15.8354 29.6016 15.8192 30.2033 15.9423 30.9078C16.0705 31.1801 16.2093 31.4006 16.3954 31.6364C16.5223 31.8358 16.5223 31.8358 16.5223 32.2998C16.3954 32.4992 16.3954 32.4992 16.2323 32.7058C15.8344 33.3181 15.812 33.9112 15.9423 34.6198C16.2525 35.3548 16.7112 35.8174 17.4503 36.1278C17.819 36.1989 18.1816 36.2077 18.5564 36.2134C18.7208 36.2183 18.7208 36.2183 18.8885 36.2234C19.2598 36.2332 19.6309 36.239 20.0023 36.2438C20.2046 36.2467 20.2046 36.2467 20.4109 36.2497C21.2982 36.2614 22.1854 36.2653 23.0729 36.2653C23.3811 36.2654 23.6893 36.2661 23.9976 36.2676C27.8429 36.3041 27.8429 36.3041 31.305 34.7938C32.9799 33.6792 34.4402 33.5026 36.4032 33.5121C36.5551 33.5114 36.707 33.5107 36.8635 33.5101C37.0006 33.5113 37.1378 33.5126 37.2791 33.5139C37.6334 33.485 37.6334 33.485 37.8847 33.2964C38.213 32.8342 38.163 32.397 38.1583 31.843C38.1591 31.726 38.1599 31.6091 38.1607 31.4885C38.1628 31.1016 38.1614 30.7147 38.1599 30.3278C38.1602 30.0591 38.1606 29.7904 38.1612 29.5217C38.1619 28.9584 38.1609 28.3952 38.1587 27.832C38.1561 27.1095 38.1576 26.3872 38.1604 25.6647C38.1621 25.1098 38.1615 24.555 38.1603 24.0001C38.16 23.7337 38.1604 23.4673 38.1615 23.2009C38.1627 22.8287 38.1609 22.4567 38.1583 22.0846C38.1592 21.9742 38.1602 21.8637 38.1611 21.75C38.1548 21.1566 38.1548 21.1566 37.9031 20.6311C37.5714 20.4296 37.3725 20.4117 36.9853 20.4151C36.7902 20.4152 36.7902 20.4152 36.5913 20.4153C36.4516 20.4177 36.3119 20.42 36.1679 20.4225C35.9526 20.4235 35.9526 20.4235 35.733 20.4245C35.3523 20.4267 34.9717 20.4308 34.5911 20.436C34.2023 20.4407 33.8135 20.4428 33.4247 20.4452C32.6625 20.4503 31.9004 20.4581 31.1383 20.4678C31.1055 20.3976 31.0726 20.3273 31.0388 20.2549C30.8544 19.9055 30.5894 19.6422 30.319 19.3586C29.9005 18.9116 29.4985 18.4595 29.1155 17.9811C28.7251 17.4956 28.3158 17.0362 27.8903 16.5818C27.4648 16.1275 27.0555 15.668 26.665 15.1826C26.2786 14.7045 25.8844 14.2355 25.476 13.7761C25.4231 13.7146 25.3702 13.6532 25.3156 13.5898C25.1472 13.3971 25.1472 13.3971 24.8743 13.1599C24.4274 13.1115 24.4274 13.1115 24.2077 13.3221Z" fill="#F07F0E"/>
<path d="M24.5283 14.2041C24.9886 14.3854 25.2725 14.7054 25.594 15.0668C25.6502 15.129 25.7063 15.1911 25.7642 15.2551C26.2056 15.7476 26.6218 16.2585 27.0363 16.7738C27.3484 17.1473 27.6756 17.5029 28.0083 17.8581C28.5266 18.4116 29.0131 18.9816 29.4886 19.5727C30.221 20.5446 30.221 20.5446 31.1402 21.2801C31.3333 21.2939 31.5268 21.3006 31.7203 21.3039C31.8427 21.3062 31.9652 21.3086 32.0913 21.311C32.2204 21.3129 32.3494 21.3148 32.4824 21.3168C32.6007 21.3189 32.7191 21.3211 32.841 21.3233C33.2842 21.3313 33.7275 21.3382 34.1707 21.3453C35.1612 21.3621 36.1517 21.3788 37.1722 21.3961C37.1722 25.0709 37.1722 28.7458 37.1722 32.532C35.6219 32.6469 35.6219 32.6469 34.0402 32.764C33.4765 32.8992 33.0441 33.0041 32.5322 33.228C32.4341 33.2697 32.3361 33.3115 32.235 33.3545C31.6856 33.6094 31.206 33.922 30.7125 34.272C29.1324 35.3296 27.6027 35.404 25.7603 35.3931C25.5252 35.3934 25.2901 35.394 25.055 35.3947C24.5658 35.3956 24.0768 35.3944 23.5877 35.3916C22.9616 35.3883 22.3357 35.3903 21.7097 35.3937C21.2257 35.3958 20.7418 35.3951 20.2579 35.3936C20.0269 35.3932 19.796 35.3937 19.5651 35.3951C19.2431 35.3965 18.9213 35.3943 18.5994 35.3911C18.5048 35.3922 18.4102 35.3934 18.3128 35.3946C17.6396 35.3822 17.3423 35.2205 16.8723 34.736C16.6557 34.3029 16.6926 33.8157 16.7563 33.344C16.9505 32.9321 17.2196 32.6977 17.6417 32.518C18.1147 32.3945 18.5606 32.3679 19.0473 32.3508C19.6605 32.3521 19.6605 32.3521 20.2363 32.184C20.2363 32.0309 20.2363 31.8778 20.2363 31.72C20.1591 31.7196 20.0819 31.7191 20.0024 31.7186C19.6501 31.7148 19.298 31.7066 18.9458 31.6983C18.8244 31.6976 18.703 31.6969 18.5779 31.6962C17.5651 31.6674 17.5651 31.6674 17.1415 31.3226C16.7213 30.8565 16.7111 30.5396 16.7146 29.9279C16.7818 29.4512 16.9882 29.2593 17.3363 28.936C17.6141 28.7971 17.8055 28.7984 18.1157 28.7874C18.2238 28.7831 18.3319 28.7787 18.4433 28.7743C18.672 28.7661 18.9006 28.758 19.1293 28.7498C19.2374 28.7455 19.3455 28.7411 19.4569 28.7367C19.5563 28.7332 19.6556 28.7296 19.758 28.726C20.0105 28.7186 20.0105 28.7186 20.2363 28.588C20.2363 28.4349 20.2363 28.2818 20.2363 28.124C19.9588 27.9853 19.7828 27.9935 19.4732 27.9917C19.3672 27.9895 19.2612 27.9873 19.152 27.9849C18.9294 27.981 18.7067 27.9789 18.4841 27.9786C17.9563 27.9645 17.5695 27.9528 17.1496 27.6111C16.7193 27.1471 16.711 26.8319 16.7146 26.2159C16.7818 25.7393 16.9882 25.5473 17.3363 25.2241C17.6141 25.0851 17.8055 25.0864 18.1157 25.0754C18.2238 25.0711 18.3319 25.0668 18.4433 25.0623C18.672 25.0541 18.9006 25.046 19.1293 25.0378C19.2374 25.0335 19.3455 25.0292 19.4569 25.0247C19.5563 25.0212 19.6556 25.0177 19.758 25.014C20.0105 25.0066 20.0105 25.0066 20.2363 24.8761C20.2363 24.7229 20.2363 24.5698 20.2363 24.4121C19.9588 24.2733 19.7828 24.2816 19.4732 24.2798C19.3672 24.2775 19.2612 24.2753 19.152 24.273C18.9294 24.2691 18.7067 24.2669 18.4841 24.2666C17.9563 24.2525 17.5695 24.2408 17.1496 23.8991C16.7193 23.4351 16.711 23.1199 16.7146 22.504C16.7818 22.0273 16.9882 21.8353 17.3363 21.5121C17.6476 21.3564 17.8919 21.3782 18.2405 21.3741C18.3814 21.3722 18.5223 21.3702 18.6675 21.3682C18.8203 21.3666 18.9732 21.3651 19.1307 21.3634C19.2884 21.3614 19.4462 21.3592 19.6039 21.357C20.1899 21.3489 20.7758 21.342 21.3617 21.3351C21.8568 21.3291 22.3518 21.3228 22.8469 21.3158C23.0796 21.3127 23.3123 21.3103 23.5451 21.3079C23.686 21.306 23.8269 21.304 23.9721 21.3021C24.1588 21.2999 24.1588 21.2999 24.3493 21.2976C24.6434 21.2995 24.6434 21.2995 24.8763 21.1641C24.8181 20.5766 24.61 20.1563 24.3035 19.6633C23.5685 18.4761 23.3719 17.1626 23.6882 15.7964C23.8926 15.2088 24.1532 14.6997 24.5283 14.2041Z" fill="#F07F0E"/>
</svg>
