<svg width="53" height="53" viewBox="0 0 53 53" fill="none" xmlns="http://www.w3.org/2000/svg">
<path d="M34.593 9.69652C34.6686 9.73323 34.7443 9.76995 34.8223 9.80778C36.4677 10.617 37.917 11.6427 39.2395 12.9142C39.3021 12.9725 39.3648 13.0308 39.4293 13.0909C42.7363 16.1742 44.8365 20.6017 45.1021 25.132C45.1135 25.5535 45.1167 25.974 45.1147 26.3957C45.1142 26.5459 45.1136 26.6961 45.113 26.8508C45.0776 29.6997 44.4184 32.2887 43.1712 34.842C43.0699 35.0501 43.0699 35.0501 42.9665 35.2624C42.1472 36.8568 41.0746 38.2064 39.8352 39.4898C39.7325 39.6001 39.6297 39.7104 39.5239 39.824C36.4529 43.0369 31.8388 45.0086 27.4085 45.1151C22.2917 45.1723 17.4927 43.6908 13.743 40.0857C13.6803 40.0274 13.6177 39.9691 13.5532 39.909C10.2449 36.8245 8.13817 32.3884 7.88036 27.8548C7.86895 27.4153 7.86576 26.9768 7.86773 26.5372C7.86832 26.3811 7.8689 26.2249 7.86951 26.0641C7.88435 24.8283 7.98526 23.6521 8.26239 22.448C8.28221 22.3598 8.30202 22.2715 8.32243 22.1805C8.6508 20.7637 9.17405 19.4623 9.81125 18.1578C9.87883 18.0191 9.9464 17.8804 10.016 17.7374C10.9086 16.0004 12.1099 14.5128 13.5047 13.1525C13.5758 13.076 13.6469 12.9995 13.7202 12.9207C18.9151 7.44799 28.0026 6.47975 34.593 9.69652ZM30.0655 15.2977C29.9898 15.37 29.9141 15.4424 29.8361 15.5169C29.0811 16.3077 28.5154 17.4171 28.3975 18.5153C28.4151 18.6291 28.4326 18.7429 28.4507 18.8601C28.5417 19.578 28.5233 20.0676 28.0902 20.6501C27.6445 21.1795 27.152 21.6619 26.6579 22.1455C26.4773 22.3272 26.297 22.5092 26.1169 22.6914C25.7395 23.0713 25.3593 23.4481 24.9768 23.8228C24.4884 24.3019 24.0079 24.788 23.5293 25.2767C23.1586 25.6536 22.784 26.0263 22.4081 26.398C22.2293 26.5757 22.0518 26.7546 21.8755 26.9348C20.4966 28.3379 20.4966 28.3379 19.7121 28.5066C19.2704 28.5034 19.2704 28.5034 18.8831 28.449C17.8053 28.3273 16.6029 28.9512 15.7684 29.5984C14.6634 30.6206 13.9446 31.8266 13.8319 33.3417C13.7987 34.3944 13.8581 35.4976 14.5039 36.3783C14.6893 36.5377 14.6893 36.5377 14.9246 36.4785C15.345 36.3308 15.6181 35.9889 15.9229 35.6758C15.9936 35.6045 16.0644 35.5333 16.1372 35.4599C16.3626 35.2324 16.5868 35.0037 16.8109 34.775C16.9636 34.6205 17.1164 34.466 17.2693 34.3116C17.6437 33.9332 18.0169 33.5537 18.3895 33.1736C18.7959 33.3649 19.0589 33.5794 19.3725 33.9036C19.4566 33.9899 19.5408 34.0762 19.6275 34.1652C19.6908 34.2312 19.7541 34.2973 19.8192 34.3654C19.6275 34.8513 19.2789 35.1686 18.9103 35.5236C18.7759 35.6556 18.6415 35.7877 18.507 35.9197C18.2953 36.1264 18.0832 36.3327 17.8709 36.5387C17.6656 36.7383 17.4613 36.939 17.2572 37.1399C17.1934 37.2011 17.1296 37.2623 17.0639 37.3254C16.6326 37.7403 16.6326 37.7403 16.4832 38.2981C16.8695 38.8579 17.6457 38.9926 18.2704 39.1323C19.8542 39.2915 21.2302 39.0332 22.5218 38.0565C23.4015 37.3072 23.9461 36.5217 24.3467 35.4379C24.376 35.3599 24.4053 35.2818 24.4356 35.2014C24.5531 34.8219 24.5932 34.5379 24.5318 34.1398C24.4408 33.4218 24.4592 32.9322 24.8923 32.3497C25.338 31.8204 25.8305 31.338 26.3246 30.8544C26.5052 30.6727 26.6855 30.4907 26.8656 30.3085C27.243 29.9286 27.6232 29.5518 28.0057 29.177C28.4941 28.698 28.9746 28.2119 29.4532 27.7231C29.8239 27.3463 30.1985 26.9735 30.5744 26.6019C30.7532 26.4242 30.9307 26.2452 31.107 26.065C32.4859 24.6619 32.4859 24.6619 33.2704 24.4933C33.7121 24.4965 33.7121 24.4965 34.0993 24.5509C35.1772 24.6725 36.3796 24.0486 37.2141 23.4014C38.3191 22.3793 39.0379 21.1732 39.1506 19.6582C39.1826 18.6458 39.1648 17.4289 38.4488 16.629C38.3684 16.5599 38.3684 16.5599 38.2864 16.4894C37.7116 16.6613 37.3627 17.0093 36.9549 17.4288C36.887 17.4972 36.819 17.5657 36.7491 17.6362C36.5334 17.8539 36.319 18.0729 36.1046 18.2919C35.9581 18.4402 35.8116 18.5883 35.665 18.7365C35.3067 19.0988 34.9495 19.4622 34.593 19.8262C34.1866 19.6349 33.9236 19.4204 33.61 19.0963C33.5259 19.01 33.4417 18.9236 33.355 18.8347C33.2601 18.7356 33.2601 18.7356 33.1632 18.6345C33.3549 18.1486 33.7036 17.8313 34.0722 17.4763C34.2066 17.3443 34.341 17.2122 34.4754 17.0801C34.6872 16.8735 34.8993 16.6672 35.1116 16.4612C35.3169 16.2615 35.5211 16.0608 35.7253 15.86C35.7891 15.7988 35.8529 15.7376 35.9186 15.6745C36.3499 15.2596 36.3499 15.2596 36.4992 14.7018C36.1127 14.1415 35.3369 14.0083 34.7121 13.8676C32.9664 13.673 31.3652 14.0547 30.0655 15.2977Z" fill="#F07F0E"/>
<path d="M24.4817 0.0243598C24.6291 0.0226423 24.6291 0.0226423 24.7794 0.0208902C24.8851 0.0203837 24.9909 0.0198773 25.0998 0.0193555C25.209 0.0186762 25.3181 0.0179969 25.4306 0.017297C25.6615 0.0161714 25.8925 0.0153923 26.1234 0.014933C26.4762 0.0137763 26.8288 0.0100787 27.1816 0.00632089C27.4061 0.00554265 27.6305 0.00491695 27.855 0.00445881C27.9603 0.0029874 28.0655 0.001516 28.174 0C28.9127 0.00266919 29.3055 0.139337 29.859 0.646877C30.1111 1.07002 30.1305 1.38373 30.1629 1.86794C30.2375 2.87583 30.4246 3.63169 31.1696 4.35614C31.8122 4.77977 32.5793 4.9732 33.3089 5.20321C34.9722 5.73274 36.5323 6.42525 38.0381 7.30864C38.6495 7.61072 39.2557 7.61034 39.9043 7.4323C40.4153 7.23928 40.7768 6.93937 41.1688 6.56457C41.6281 6.13165 41.9705 5.90189 42.6148 5.85325C43.4523 5.91005 43.9451 6.36286 44.508 6.93233C44.5752 6.99918 44.6424 7.06604 44.7116 7.13492C44.8526 7.27572 44.9932 7.41696 45.1333 7.55863C45.3474 7.77469 45.5633 7.98877 45.7795 8.20273C45.9167 8.34026 46.0539 8.47789 46.1909 8.61565C46.2552 8.67923 46.3195 8.74281 46.3857 8.80831C46.8661 9.29784 47.0803 9.66369 47.1422 10.3446C47.0813 11.039 46.8211 11.4283 46.3305 11.9013C45.7534 12.4591 45.4913 13.0109 45.4324 13.8114C45.4452 14.6424 45.8917 15.3976 46.2933 16.1021C47.0726 17.5223 47.633 19.0408 48.0879 20.5935C48.3278 21.4047 48.6306 21.9827 49.3687 22.4481C50.0548 22.7286 50.6545 22.8223 51.3899 22.7963C51.9019 22.816 52.2481 23.0774 52.6228 23.4015C52.9162 23.7494 52.958 24.0466 52.964 24.4861C52.9656 24.5839 52.9671 24.6818 52.9687 24.7827C52.97 24.9408 52.97 24.9408 52.9713 25.102C52.9723 25.2109 52.9733 25.3198 52.9743 25.432C52.9759 25.6625 52.9772 25.893 52.9781 26.1235C52.9802 26.4751 52.9854 26.8265 52.9907 27.178C52.9919 27.4022 52.9929 27.6263 52.9937 27.8505C52.9958 27.9551 52.9979 28.0598 53 28.1677C52.9977 28.8246 52.9024 29.1952 52.4664 29.7177C52.128 30.0352 51.8984 30.119 51.4388 30.1422C50.3252 30.2277 49.4699 30.3485 48.6389 31.1552C48.2201 31.8115 48.0187 32.5598 47.7877 33.2989C47.2596 34.9679 46.5662 36.5379 45.6795 38.0486C45.3774 38.6596 45.3782 39.2662 45.5561 39.9144C45.7491 40.4256 46.0489 40.7872 46.4236 41.1792C46.8564 41.6387 47.0861 41.9812 47.1347 42.6256C47.078 43.4633 46.6253 43.9563 46.0559 44.5194C45.9891 44.5865 45.9223 44.6537 45.8534 44.723C45.7126 44.864 45.5714 45.0046 45.4298 45.1448C45.2138 45.3589 44.9998 45.5749 44.7859 45.7912C44.6484 45.9284 44.5108 46.0656 44.373 46.2027C44.3095 46.267 44.2459 46.3313 44.1804 46.3975C43.691 46.878 43.3253 47.0923 42.6445 47.1542C41.9503 47.0933 41.5612 46.833 41.0882 46.3423C40.5306 45.765 39.979 45.5029 39.1787 45.444C38.3538 45.4567 37.6088 45.8966 36.9108 46.2976C35.3692 47.1487 33.6804 47.7522 31.987 48.2259C31.3453 48.4371 30.9187 48.8326 30.5441 49.3812C30.2498 49.987 30.2616 50.5687 30.2393 51.2317C30.1529 51.9114 29.8742 52.3971 29.3527 52.8373C29.0298 52.9449 28.8369 52.9725 28.5048 52.9756C28.3574 52.9774 28.3574 52.9774 28.2071 52.9791C28.0485 52.9799 28.0485 52.9799 27.8867 52.9806C27.7775 52.9813 27.6684 52.982 27.5559 52.9827C27.325 52.9838 27.094 52.9846 26.8631 52.9851C26.5103 52.9862 26.1577 52.9899 25.8049 52.9937C25.5804 52.9945 25.356 52.9951 25.1315 52.9955C25.0262 52.997 24.921 52.9985 24.8125 53C24.2402 52.9979 23.86 52.971 23.3955 52.5989C22.8727 52.0179 22.7916 51.6167 22.7626 50.8486C22.6996 49.9228 22.529 49.3725 21.8988 48.696C21.3239 48.2686 20.6211 48.0895 19.9457 47.8783C18.1888 47.3286 16.5373 46.6247 14.9476 45.6911C14.3367 45.389 13.7303 45.3898 13.0822 45.5677C12.5712 45.7607 12.2097 46.0606 11.8177 46.4354C11.3584 46.8684 11.016 47.0981 10.3717 47.1467C9.53423 47.09 9.04138 46.6371 8.47849 46.0677C8.37772 45.9674 8.37772 45.9674 8.27491 45.8651C8.13391 45.7243 7.99335 45.583 7.85322 45.4414C7.63913 45.2253 7.4232 45.0112 7.20701 44.7973C7.06976 44.6597 6.93262 44.5221 6.7956 44.3843C6.69917 44.289 6.69917 44.289 6.60079 44.1917C6.12045 43.7022 5.9062 43.3363 5.84432 42.6554C5.90522 41.961 6.16543 41.5717 6.65598 41.0987C7.22998 40.5439 7.50253 39.9846 7.56351 39.1877C7.5213 38.2996 7.04766 37.524 6.62619 36.7638C5.8676 35.3947 5.3373 33.9063 4.89862 32.4065C4.65383 31.5789 4.34862 31.0511 3.61784 30.5519C3.01221 30.2575 2.43068 30.2693 1.76786 30.247C1.08832 30.1606 0.602755 29.8818 0.162694 29.3602C0.05507 29.0372 0.0274846 28.8443 0.0243536 28.512C0.0232089 28.4138 0.0220642 28.3155 0.0208849 28.2143C0.0203786 28.1085 0.0198722 28.0027 0.0193505 27.8938C0.0186714 27.7846 0.0179923 27.6754 0.0172926 27.5629C0.0161672 27.3319 0.0153884 27.1009 0.0149292 26.8699C0.0137728 26.5171 0.0100761 26.1643 0.00631928 25.8115C0.00554124 25.587 0.0049157 25.3624 0.00445767 25.1379C0.00298664 25.0326 0.00151561 24.9273 0 24.8188C0.00266851 24.0799 0.139301 23.687 0.646712 23.1334C1.06974 22.8813 1.38338 22.8618 1.86746 22.8294C2.87181 22.755 3.60792 22.5629 4.34758 21.8448C4.76642 21.1885 4.9678 20.4402 5.1988 19.7011C5.72686 18.0321 6.42031 16.4621 7.30704 14.9514C7.6091 14.3404 7.60826 13.7338 7.4304 13.0856C7.23744 12.5744 6.9376 12.2128 6.5629 11.8208C6.13009 11.3613 5.90039 11.0188 5.85176 10.3744C5.90854 9.53666 6.36124 9.04368 6.93056 8.48065C6.9974 8.41345 7.06424 8.34625 7.1331 8.27702C7.27386 8.13598 7.41507 7.99539 7.5567 7.85522C7.77271 7.64108 7.98674 7.42509 8.20064 7.20885C8.33813 7.07156 8.47573 6.93438 8.61345 6.79733C8.7088 6.70087 8.7088 6.70087 8.80607 6.60247C9.29548 6.12201 9.66123 5.9077 10.342 5.8458C11.0362 5.90672 11.4253 6.167 11.8983 6.65767C12.4559 7.23496 13.0076 7.49714 13.8079 7.55598C14.6386 7.54326 15.3936 7.0966 16.098 6.69491C17.5178 5.91536 19.0359 5.35488 20.5882 4.89987C21.4156 4.65502 21.9433 4.34972 22.4424 3.61876C22.7367 3.01297 22.7249 2.43129 22.7472 1.76831C22.8336 1.08859 23.1123 0.602909 23.6338 0.162736C23.9567 0.055084 24.1496 0.0274916 24.4817 0.0243598ZM11.5781 13.8453C8.35699 17.6521 6.57268 22.7822 6.98036 27.7785C7.35022 31.7001 8.59906 35.4599 11.1238 38.5365C11.1769 38.6022 11.23 38.6678 11.2847 38.7355C14.6529 42.8838 19.3324 45.3166 24.6154 45.9732C29.9454 46.4887 35.0637 44.7341 39.1633 41.3595C42.9062 38.2061 45.3626 33.6338 45.9135 28.7643C45.9267 28.6475 45.9399 28.5308 45.9536 28.4105C46.4638 23.1687 44.805 18.1137 41.5243 14.0399C38.1576 9.94883 33.3538 7.54476 28.1063 7.01147C21.8647 6.4537 15.6665 9.13968 11.5781 13.8453Z" fill="#F07F0E"/>
<path d="M21.2358 29.6805C22.3344 30.3469 23.1065 31.1419 23.5386 32.3791C23.8442 33.7206 23.7586 35.0808 23.0425 36.2723C22.3639 37.3141 21.2601 37.9992 20.0458 38.2596C19.2435 38.3509 18.5666 38.3208 17.8002 38.0599C17.9894 37.5825 18.3259 37.277 18.6914 36.9319C18.8216 36.8059 18.9517 36.6798 19.0817 36.5537C19.2865 36.3562 19.4918 36.1594 19.6983 35.9638C19.898 35.7741 20.0953 35.5823 20.2924 35.3901C20.3548 35.3321 20.4172 35.2741 20.4815 35.2144C20.7517 34.9481 20.8965 34.803 20.9033 34.415C20.6643 33.8625 20.2176 33.4879 19.7958 33.0695C19.7048 32.9745 19.6137 32.8796 19.5199 32.7818C19.4309 32.6927 19.342 32.6036 19.2504 32.5118C19.1694 32.4301 19.0884 32.3484 19.005 32.2642C18.7634 32.0767 18.7634 32.0767 18.4682 32.0937C18.0409 32.268 17.7683 32.5552 17.4563 32.8837C17.3916 32.9497 17.3269 33.0157 17.2602 33.0836C17.0543 33.2938 16.8501 33.5055 16.646 33.7175C16.4405 33.9297 16.2346 34.1415 16.028 34.3526C15.8996 34.4839 15.7719 34.6159 15.6449 34.7485C15.4941 34.9034 15.3371 35.0522 15.1791 35.1997C15.1004 35.1997 15.0218 35.1997 14.9408 35.1997C14.5436 34.0326 14.6302 32.8706 15.1344 31.7437C16.2729 29.6572 19.0278 28.5876 21.2358 29.6805Z" fill="#F07F0E"/>
<path d="M35.1905 14.9404C35.0013 15.4177 34.6648 15.7232 34.2992 16.0683C34.1691 16.1943 34.039 16.3204 33.909 16.4466C33.7042 16.644 33.4989 16.8408 33.2923 17.0365C33.0927 17.2261 32.8954 17.4179 32.6982 17.6101C32.6358 17.6681 32.5734 17.7261 32.5091 17.7859C32.239 18.0521 32.0941 18.1973 32.0874 18.5852C32.3264 19.1377 32.773 19.5123 33.1948 19.9307C33.2859 20.0257 33.377 20.1206 33.4708 20.2184C33.5597 20.3075 33.6486 20.3966 33.7403 20.4884C33.8212 20.5701 33.9022 20.6519 33.9857 20.736C34.2273 20.9235 34.2273 20.9235 34.5224 20.9066C34.9497 20.7323 35.2223 20.445 35.5344 20.1165C35.5991 20.0505 35.6638 19.9846 35.7305 19.9166C35.9364 19.7064 36.1406 19.4947 36.3447 19.2827C36.5502 19.0706 36.7561 18.8587 36.9627 18.6476C37.091 18.5163 37.2187 18.3843 37.3458 18.2517C37.4965 18.0968 37.6536 17.948 37.8116 17.8005C37.8902 17.8005 37.9689 17.8005 38.0499 17.8005C38.4316 18.9222 38.3736 20.0126 37.9126 21.1053C37.3237 22.2882 36.485 23.071 35.243 23.539C33.8462 23.8831 32.4482 23.728 31.2085 22.992C30.2341 22.3117 29.6153 21.3377 29.3525 20.184C29.2097 18.6524 29.3829 17.4021 30.3577 16.1544C31.6056 14.8491 33.4919 14.362 35.1905 14.9404Z" fill="#F07F0E"/>
<path d="M28.6388 21.1372C28.9515 21.4369 29.145 21.7364 29.3611 22.1129C29.974 23.0927 30.8435 23.7075 31.8557 24.2357C31.4033 24.7762 30.9362 25.2916 30.4362 25.7882C30.3699 25.8546 30.3036 25.9209 30.2352 25.9893C30.0189 26.2056 29.8022 26.4215 29.5854 26.6373C29.4342 26.7884 29.2829 26.9395 29.1317 27.0906C28.7359 27.4861 28.3398 27.8811 27.9436 28.2761C27.5385 28.6802 27.1336 29.0845 26.7288 29.4889C25.9361 30.2805 25.143 31.0718 24.3497 31.8628C24.037 31.5631 23.8435 31.2636 23.6274 30.8871C23.0145 29.9073 22.145 29.2925 21.1328 28.7643C21.5852 28.2238 22.0523 27.7084 22.5522 27.2118C22.6186 27.1454 22.6849 27.0791 22.7533 27.0107C22.9696 26.7944 23.1863 26.5785 23.403 26.3627C23.5543 26.2116 23.7055 26.0605 23.8568 25.9094C24.2525 25.5139 24.6487 25.1189 25.0449 24.7239C25.45 24.3198 25.8548 23.9155 26.2597 23.5111C27.0524 22.7195 27.8455 21.9282 28.6388 21.1372ZM26.8359 24.0668C26.7664 24.1341 26.6969 24.2013 26.6253 24.2707C26.5518 24.3444 26.4783 24.4181 26.4026 24.4941C26.3263 24.5694 26.25 24.6447 26.1713 24.7222C26.0104 24.8818 25.8501 25.0421 25.6904 25.2029C25.4452 25.4489 25.197 25.6916 24.9484 25.9342C24.7925 26.0895 24.6369 26.2451 24.4814 26.4008C24.4067 26.4734 24.332 26.5459 24.255 26.6206C23.8513 27.0119 23.8513 27.0119 23.7491 27.5404C23.9448 27.9672 24.2273 28.2436 24.5582 28.5706C24.6208 28.6372 24.6835 28.7037 24.7481 28.7722C25.0995 29.1381 25.0995 29.1381 25.5741 29.2439C26.0473 29.0658 26.3374 28.7556 26.6906 28.4012C26.7641 28.3287 26.8376 28.2562 26.9133 28.1815C27.0679 28.0283 27.2219 27.8744 27.3753 27.7199C27.6108 27.4836 27.8493 27.2506 28.0882 27.0177C28.2381 26.8683 28.3878 26.7187 28.5374 26.5689C28.6091 26.4994 28.6808 26.4298 28.7547 26.3582C29.1395 25.975 29.1395 25.975 29.2378 25.4612C29.1177 25.1943 29.0126 25.0249 28.8077 24.8181C28.7458 24.7555 28.6838 24.6929 28.62 24.6284C28.5549 24.5652 28.4899 24.5019 28.4229 24.4368C28.3592 24.3713 28.2955 24.3058 28.23 24.2383C27.744 23.757 27.365 23.5472 26.8359 24.0668Z" fill="#F07F0E"/>
<path d="M27.3269 24.8315C27.6678 24.9935 27.9059 25.1468 28.1611 25.4274C27.9807 25.8526 27.7314 26.123 27.4041 26.446C27.252 26.5969 27.252 26.5969 27.0969 26.7509C26.9909 26.8549 26.8849 26.9589 26.7757 27.066C26.6688 27.1719 26.5618 27.2777 26.4517 27.3868C26.1878 27.6479 25.9234 27.9084 25.6584 28.1684C25.3175 28.0064 25.0793 27.8532 24.8242 27.5725C25.0046 27.1474 25.2539 26.8769 25.5812 26.554C25.6825 26.4533 25.7839 26.3527 25.8884 26.2491C25.9944 26.145 26.1004 26.041 26.2096 25.9339C26.3165 25.828 26.4234 25.7222 26.5336 25.6132C26.7975 25.3521 27.0619 25.0916 27.3269 24.8315Z" fill="#F07F0E"/>
</svg>
