<svg width="54" height="53" viewBox="0 0 54 53" fill="none" xmlns="http://www.w3.org/2000/svg">
<path d="M1.17101 3.00664C1.29709 3.00624 1.29709 3.00624 1.42572 3.00584C1.70924 3.00532 1.9927 3.00704 2.27621 3.00872C2.48219 3.00882 2.68817 3.00877 2.89415 3.00861C3.44686 3.00854 3.99955 3.01033 4.55226 3.01251C5.07048 3.01427 5.5887 3.01435 6.10692 3.01457C7.62351 3.0162 9.14009 3.02052 10.6567 3.0245C14.0441 3.03088 17.4316 3.03726 20.9217 3.04384C20.9558 9.8151 20.99 16.5864 21.0251 23.5628C21.5458 23.4614 21.5458 23.4614 21.9295 23.1737C22.0003 23.1147 22.071 23.0557 22.1439 22.9949C22.2181 22.9314 22.2923 22.8678 22.3688 22.8024C22.4463 22.7374 22.5238 22.6723 22.6036 22.6054C22.8362 22.4099 23.0677 22.2132 23.299 22.0162C23.4248 21.9098 23.5507 21.8034 23.6766 21.6972C23.8452 21.5548 24.0138 21.4123 24.1821 21.2696C24.5768 20.9354 24.978 20.6106 25.3836 20.2899C25.7805 19.9742 26.1741 19.6548 26.5678 19.3353C26.6427 19.2746 26.7176 19.2138 26.7947 19.1513C26.9732 19.0064 27.1517 18.8615 27.3301 18.7166C27.8296 18.8724 28.1493 19.1558 28.5317 19.4964C28.661 19.6093 28.7903 19.722 28.9197 19.8347C28.9833 19.8903 29.0469 19.9458 29.1124 20.0031C29.3603 20.2175 29.614 20.4245 29.8689 20.6306C30.287 20.9691 30.6992 21.3136 31.1093 21.6617C31.5945 22.0733 32.0854 22.476 32.5858 22.8692C32.7821 23.0263 32.9695 23.1895 33.1571 23.3566C33.4264 23.6045 33.4264 23.6045 33.8419 23.5628C33.876 16.7915 33.9101 10.0203 33.9453 3.04384C36.2306 3.04384 38.5159 3.04384 40.8705 3.04384C41.2163 3.38879 41.2168 3.4962 41.2206 3.96253C41.2197 4.04628 41.2188 4.13003 41.2178 4.21632C41.2181 4.30543 41.2184 4.39454 41.2186 4.48634C41.2192 4.78606 41.2174 5.08573 41.2157 5.38545C41.2157 5.59984 41.2157 5.81423 41.2159 6.02862C41.216 6.61167 41.2141 7.19471 41.212 7.77776C41.2101 8.3867 41.2099 8.99564 41.2095 9.60459C41.2085 10.7582 41.206 11.9117 41.2029 13.0653C41.1994 14.3784 41.1977 15.6915 41.1962 17.0047C41.1929 19.7063 41.1875 22.4079 41.1805 25.1095C41.1073 25.1148 41.0341 25.1201 40.9587 25.1256C40.6221 25.1505 40.2856 25.1761 39.9491 25.2017C39.834 25.2101 39.7188 25.2185 39.6002 25.2271C35.9737 25.5066 32.7262 27.12 30.3276 29.8525C29.9502 30.3118 29.6155 30.7967 29.294 31.2961C29.2207 31.4093 29.1474 31.5226 29.0719 31.6393C27.9043 33.5583 27.3782 35.6844 27.2159 37.904C27.2068 38.0226 27.1977 38.1412 27.1884 38.2634C27.1663 38.553 27.1446 38.8427 27.1234 39.1325C23.7183 39.1396 20.3131 39.145 16.908 39.1483C16.5063 39.1487 16.1046 39.1491 15.7028 39.1495C15.6228 39.1496 15.5429 39.1496 15.4605 39.1497C14.1643 39.1511 12.8682 39.1535 11.5721 39.1563C10.2428 39.1592 8.91348 39.161 7.58418 39.1616C6.7635 39.162 5.94282 39.1634 5.12214 39.1659C4.49354 39.1677 3.86495 39.1679 3.23634 39.1675C2.97796 39.1675 2.71957 39.1682 2.46119 39.1694C2.10959 39.1709 1.75805 39.1705 1.40645 39.1697C1.30319 39.1706 1.19993 39.1715 1.09354 39.1724C0.999668 39.1718 0.905798 39.1712 0.809084 39.1705C0.687277 39.1707 0.687276 39.1707 0.563008 39.1709C0.352843 39.1325 0.352843 39.1325 0.171725 39.0124C-0.00994597 38.7458 0.00388812 38.5532 0.00373765 38.232C0.00292903 38.108 0.00212045 37.984 0.00128732 37.8563C0.0019578 37.718 0.00265752 37.5797 0.00338338 37.4415C0.0030263 37.2951 0.00253392 37.1487 0.0019175 37.0024C0.000618651 36.5993 0.00126491 36.1962 0.00222337 35.793C0.00292285 35.3587 0.00184306 34.9243 0.000989236 34.4899C-0.000392124 33.6386 -9.0671e-05 32.7873 0.000807073 31.936C0.00150637 31.2443 0.0016028 30.5526 0.00126485 29.861C0.00121733 29.7626 0.00116979 29.6643 0.00112083 29.563C0.00102169 29.3633 0.000921211 29.1637 0.000819297 28.964C-6.56641e-05 27.0899 0.000952869 25.2158 0.00261786 23.3417C0.0040033 21.7325 0.00376271 20.1232 0.00233298 18.5139C0.000674877 16.6467 1.94534e-05 14.7795 0.00097238 12.9123C0.00107116 12.7133 0.00116868 12.5143 0.00126485 12.3154C0.00131269 12.2175 0.00136056 12.1195 0.00140985 12.0187C0.00167797 11.3276 0.00122478 10.6364 0.000495977 9.94532C-0.000372228 9.10347 -0.000141502 8.26164 0.00151325 7.4198C0.00233015 6.98999 0.00264398 6.56019 0.00162207 6.13038C0.000701655 5.73733 0.0011999 5.3443 0.00285542 4.95124C0.00320331 4.80865 0.00302229 4.66607 0.00227384 4.52348C0.0013378 4.33043 0.00247854 4.13737 0.00373765 3.94432C0.00381316 3.78312 0.0038132 3.78312 0.00389024 3.61867C0.042759 3.35317 0.042759 3.35317 0.177778 3.16394C0.477003 2.95866 0.820628 3.00265 1.17101 3.00664ZM5.83099 29.0277C5.76277 29.1638 5.69455 29.2999 5.62427 29.4401C5.88269 29.6979 6.0355 29.6706 6.38803 29.672C6.46557 29.6712 6.54311 29.6705 6.62301 29.6697C6.7047 29.6698 6.78639 29.6698 6.87055 29.6698C7.14125 29.6697 7.41192 29.6681 7.68261 29.6665C7.87002 29.6661 8.05744 29.6658 8.24485 29.6656C8.73865 29.6648 9.23245 29.6628 9.72625 29.6605C10.2299 29.6584 10.7336 29.6574 11.2373 29.6564C12.2259 29.6542 13.2146 29.6507 14.2033 29.6463C14.3178 29.4522 14.3178 29.4521 14.41 29.2339C14.3588 29.1318 14.3588 29.1318 14.3066 29.0277C11.5097 29.0277 8.7127 29.0277 5.83099 29.0277ZM5.62427 33.2552C5.66616 33.5421 5.66616 33.5421 5.83099 33.7707C6.04112 33.7812 6.25163 33.7842 6.46202 33.7845C6.52865 33.7848 6.59528 33.785 6.66393 33.7852C6.88882 33.7859 7.1137 33.7858 7.33859 33.7857C7.49916 33.786 7.65974 33.7864 7.82031 33.7868C8.25767 33.7877 8.69503 33.7879 9.13238 33.788C9.49689 33.7881 9.8614 33.7885 10.2259 33.7888C11.0855 33.7897 11.9452 33.7899 12.8048 33.7898C13.693 33.7898 14.5811 33.7909 15.4693 33.7925C16.2306 33.7938 16.9919 33.7944 17.7532 33.7943C18.2085 33.7943 18.6637 33.7946 19.1189 33.7957C19.5469 33.7967 19.9749 33.7967 20.4029 33.7959C20.5604 33.7958 20.7178 33.7961 20.8752 33.7967C21.0895 33.7975 21.3037 33.797 21.5179 33.7962C21.638 33.7963 21.7581 33.7963 21.8819 33.7964C22.1774 33.7994 22.1774 33.7994 22.3688 33.5645C22.3269 33.2776 22.3269 33.2776 22.1621 33.049C21.9519 33.0385 21.7414 33.0355 21.531 33.0352C21.4644 33.0349 21.3978 33.0347 21.3291 33.0345C21.1042 33.0338 20.8794 33.0339 20.6545 33.034C20.4939 33.0337 20.3333 33.0333 20.1728 33.0329C19.7354 33.032 19.298 33.0318 18.8607 33.0317C18.4962 33.0316 18.1317 33.0312 17.7672 33.0309C16.9075 33.03 16.0479 33.0298 15.1882 33.0299C14.3001 33.0299 13.4119 33.0288 12.5238 33.0272C11.7625 33.0259 11.0012 33.0253 10.2398 33.0254C9.7846 33.0254 9.32937 33.0251 8.87414 33.024C8.44613 33.023 8.01814 33.023 7.59013 33.0238C7.43271 33.0239 7.27529 33.0236 7.11787 33.023C6.90361 33.0222 6.6894 33.0227 6.47515 33.0235C6.35504 33.0234 6.23493 33.0234 6.11119 33.0233C5.81563 33.0203 5.81563 33.0203 5.62427 33.2552Z" fill="#F07F0E"/>
<path d="M46.2459 31.6444C47.8665 33.0453 48.9285 34.9503 49.2429 37.0702C49.4119 39.7502 48.9412 41.9357 47.2791 44.0817C47.164 44.238 47.164 44.238 47.0465 44.3975C45.7092 45.9302 43.518 47.0479 41.4929 47.1978C39.6213 47.2665 38.0024 47.1332 36.3228 46.247C36.2232 46.1964 36.1237 46.1458 36.0212 46.0936C34.1379 45.0752 32.6894 43.3121 32.011 41.2826C31.2727 38.7914 31.4614 36.2606 32.7116 33.964C33.8623 31.9487 35.8232 30.4421 38.0617 29.8259C41.0644 29.1259 43.8461 29.7486 46.2459 31.6444ZM40.3539 31.296C40.2515 31.3471 40.2515 31.3471 40.1471 31.3991C40.1471 31.8755 40.1471 32.3519 40.1471 32.8427C39.9866 32.8403 39.826 32.8379 39.6606 32.8354C39.4503 32.8335 39.2399 32.8316 39.0296 32.8298C38.9237 32.8281 38.8178 32.8263 38.7088 32.8246C38.6072 32.8239 38.5056 32.8232 38.4009 32.8225C38.3073 32.8215 38.2136 32.8204 38.1171 32.8193C37.8454 32.826 37.8454 32.826 37.5631 33.0489C37.5171 33.2936 37.5171 33.2936 37.5263 33.5818C37.526 33.6929 37.5256 33.804 37.5253 33.9185C37.5266 34.0389 37.5279 34.1594 37.5292 34.2834C37.5295 34.468 37.5295 34.468 37.5298 34.6563C37.5305 34.9168 37.5319 35.1772 37.534 35.4377C37.5373 35.838 37.5383 36.2383 37.5389 36.6386C37.5398 36.8911 37.5409 37.1436 37.5421 37.396C37.5426 37.5167 37.543 37.6373 37.5434 37.7615C37.5444 37.8723 37.5454 37.9831 37.5465 38.0973C37.5472 38.1954 37.5479 38.2934 37.5486 38.3945C37.5384 38.6148 37.5384 38.6148 37.6665 38.72C37.8251 38.7296 37.9842 38.7321 38.1431 38.7317C38.2952 38.7317 38.2952 38.7317 38.4504 38.7317C38.5606 38.7311 38.6709 38.7306 38.7845 38.73C38.8967 38.7299 39.009 38.7297 39.1247 38.7296C39.4849 38.729 39.8451 38.7277 40.2053 38.7264C40.4488 38.7259 40.6923 38.7254 40.9359 38.725C41.5343 38.724 42.1327 38.7219 42.7312 38.72C42.7312 40.2171 42.7312 41.7143 42.7312 43.2568C41.0598 43.2568 39.3885 43.2568 37.6665 43.2568C37.6324 43.427 37.5983 43.5971 37.5631 43.7724C37.6704 43.9025 37.6704 43.9025 37.9059 43.8872C38.061 43.8864 38.061 43.8864 38.2192 43.8856C38.3308 43.8852 38.4424 43.8849 38.5574 43.8846C38.6748 43.8837 38.7923 43.8828 38.9133 43.8819C39.09 43.8812 39.09 43.8812 39.2704 43.8805C39.5626 43.8793 39.8549 43.8775 40.1471 43.8755C40.1471 44.3519 40.1471 44.8282 40.1471 45.319C40.2836 45.3871 40.42 45.4551 40.5606 45.5253C40.8042 45.3279 40.8042 45.3279 40.7875 44.9831C40.7851 44.8515 40.7827 44.72 40.7802 44.5844C40.7784 44.4523 40.7765 44.3201 40.7746 44.184C40.7722 44.0822 40.7698 43.9804 40.7673 43.8755C40.8792 43.8763 40.8792 43.8763 40.9934 43.8771C41.3293 43.8793 41.6653 43.8806 42.0012 43.8819C42.1774 43.8832 42.1774 43.8832 42.3571 43.8846C42.4687 43.8849 42.5803 43.8852 42.6952 43.8856C42.7986 43.8861 42.902 43.8866 43.0085 43.8872C43.2441 43.9025 43.2441 43.9025 43.3513 43.7724C43.3616 43.5989 43.3646 43.425 43.3647 43.2512C43.3652 43.0845 43.3652 43.0845 43.3657 42.9144C43.3655 42.7935 43.3653 42.6725 43.3651 42.5479C43.3652 42.4247 43.3653 42.3016 43.3654 42.1746C43.3654 41.9135 43.3652 41.6525 43.3648 41.3914C43.3643 40.9901 43.3648 40.5889 43.3655 40.1877C43.3654 39.9347 43.3653 39.6818 43.3651 39.4289C43.3653 39.3079 43.3655 39.187 43.3657 39.0624C43.3654 38.9512 43.3651 38.8401 43.3647 38.7256C43.3646 38.6272 43.3646 38.5289 43.3645 38.4275C43.3763 38.2065 43.3763 38.2065 43.248 38.1013C43.0893 38.0917 42.9303 38.0892 42.7713 38.0896C42.6699 38.0896 42.5685 38.0896 42.4641 38.0896C42.3538 38.0902 42.2436 38.0907 42.13 38.0912C42.0177 38.0914 41.9054 38.0915 41.7898 38.0917C41.4296 38.0923 41.0694 38.0936 40.7092 38.0949C40.4656 38.0954 40.2221 38.0959 39.9786 38.0963C39.3801 38.0973 38.7817 38.0993 38.1833 38.1013C38.1833 36.6041 38.1833 35.107 38.1833 33.5645C38.539 33.5668 38.8948 33.5692 39.2613 33.5717C39.6047 33.5733 39.9482 33.5746 40.2916 33.5758C40.5309 33.5768 40.7701 33.5782 41.0093 33.58C41.3526 33.5825 41.6959 33.5837 42.0391 33.5846C42.1466 33.5857 42.2541 33.5867 42.3648 33.5878C42.4641 33.5878 42.5634 33.5878 42.6657 33.5879C42.7534 33.5883 42.8411 33.5888 42.9314 33.5893C43.1677 33.5841 43.1677 33.5841 43.3513 33.3582C43.3341 33.1434 43.3341 33.1434 43.248 32.9458C42.9891 32.8166 42.813 32.831 42.5236 32.8326C42.4217 32.8329 42.3198 32.8333 42.2148 32.8336C42.0547 32.8349 42.0547 32.8349 41.8914 32.8362C41.7838 32.8367 41.6763 32.8372 41.5655 32.8376C41.2995 32.8389 41.0334 32.8407 40.7673 32.8427C40.7673 32.4003 40.7673 31.958 40.7673 31.5022C40.6309 31.4342 40.4944 31.3661 40.3539 31.296Z" fill="#F07F0E"/>
<path d="M40.0437 25.8145C43.204 25.7294 46.2139 26.7998 48.6243 28.8212C48.7592 28.9305 48.7592 28.9305 48.8968 29.042C51.1669 30.9617 52.5444 33.8535 52.9654 36.7607C53.1631 40.3355 52.5185 43.6916 50.1226 46.4793C48.7358 48.0013 47.3053 49.112 45.4201 49.9589C45.3109 50.0087 45.2018 50.0586 45.0894 50.1099C42.5881 51.161 39.4279 51.2793 36.8411 50.4744C36.7697 50.4523 36.6983 50.4302 36.6248 50.4075C35.0055 49.8873 33.5947 49.0856 32.2932 47.9998C32.1954 47.9192 32.0976 47.8387 31.9968 47.7557C29.4719 45.5794 28.1094 42.4063 27.8486 39.1323C27.6801 35.7453 28.7963 32.4883 31.0698 29.9579C33.4275 27.4176 36.5761 26.0002 40.0437 25.8145ZM36.2209 29.8523C36.1279 29.8954 36.0349 29.9385 35.9391 29.9828C33.7272 31.0893 32.1454 33.1758 31.3395 35.4723C30.5335 38.0146 30.8707 40.5996 32.0408 42.9635C33.2852 45.2259 35.3641 46.8543 37.8311 47.5946C38.0062 47.642 38.0062 47.642 38.1848 47.6904C38.2738 47.7157 38.3628 47.741 38.4545 47.767C39.9022 48.1027 41.6321 48.0203 43.0428 47.5873C43.1079 47.5674 43.1731 47.5475 43.2403 47.5269C44.7853 47.04 46.0129 46.2385 47.1772 45.1127C47.2404 45.0573 47.3035 45.0018 47.3686 44.9447C47.9884 44.3814 48.4066 43.6606 48.831 42.9474C48.8824 42.8612 48.9338 42.7751 48.9868 42.6864C50.0986 40.6496 50.2842 38.0802 49.691 35.8617C48.9831 33.4711 47.4213 31.3728 45.2311 30.1379C42.3742 28.6115 39.1638 28.4544 36.2209 29.8523Z" fill="#F07F0E"/>
<path d="M21.543 3.04395C25.4314 3.04395 29.3199 3.04395 33.3262 3.04395C33.3262 9.47494 33.3262 15.9059 33.3262 22.5318C32.8582 22.3451 32.6745 22.2312 32.3248 21.9003C31.9039 21.5113 31.4715 21.1499 31.0211 20.7959C30.699 20.5382 30.3845 20.2727 30.0703 20.0056C29.5868 19.5953 29.1002 19.1901 28.6006 18.7993C28.4431 18.6753 28.288 18.5482 28.1355 18.4183C28.0641 18.3594 27.9926 18.3005 27.9191 18.2398C27.8576 18.1875 27.7962 18.1351 27.7329 18.0811C27.5353 17.9709 27.5353 17.9709 27.2985 18.0469C26.9359 18.2486 26.6451 18.4997 26.3363 18.7747C26.2066 18.888 26.0767 19.0012 25.9467 19.1143C25.8831 19.1699 25.8194 19.2255 25.7539 19.2828C25.4264 19.5664 25.0891 19.8377 24.7524 20.1103C24.4266 20.375 24.1026 20.6419 23.7787 20.909C21.8097 22.5318 21.8097 22.5318 21.543 22.5318C21.543 16.1008 21.543 9.66982 21.543 3.04395Z" fill="#F07F0E"/>
</svg>
