<svg width="146" height="42" viewBox="0 0 146 42" fill="none" xmlns="http://www.w3.org/2000/svg">
<path fill-rule="evenodd" clip-rule="evenodd" d="M38.2931 23.7976C40.4092 23.7976 42.1274 25.5013 42.1274 27.5949C42.1259 28.2709 41.9432 28.9341 41.5985 29.5154C41.2538 30.0967 40.7596 30.5749 40.1673 30.9001L21.0413 42L11.4163 36.5656L5.88198 39.785C5.26844 40.1702 4.55867 40.3744 3.83433 40.3739C1.72463 40.3739 0 38.6637 0 36.5765C0 35.1586 0.797525 33.9223 1.95823 33.2686L11.4154 27.7657L21.0404 33.1581L36.2518 24.3865C36.8627 24.0013 37.571 23.7972 38.2931 23.7976ZM38.2931 12.7589C40.4092 12.7589 42.1274 14.469 42.1274 16.5553C42.1274 17.9778 41.3363 19.2123 40.1673 19.8678L21.0413 30.9522L11.4163 25.5232L5.88198 28.7417C5.28703 29.116 4.58623 29.3315 3.83433 29.3315C1.72463 29.3324 0 27.6314 0 25.5378C0 24.1199 0.797525 22.8836 1.95823 22.2308L11.4163 16.7306L21.0413 22.1194L36.2527 13.3478C36.8646 12.965 37.5714 12.7613 38.2931 12.7598V12.7589ZM21.0879 0L30.7148 5.43443L36.2536 2.20865C36.8653 1.8266 37.572 1.62413 38.2931 1.6243C40.4092 1.6243 42.1274 3.32804 42.1274 5.42257C42.1274 6.83961 41.3363 8.07678 40.1673 8.73052L30.7138 14.2289L21.0888 8.83917L5.88198 17.6099C5.26819 17.994 4.55825 18.1962 3.83433 18.1933C1.72463 18.1933 0 16.4914 0 14.395C0 12.9835 0.797525 11.7427 1.95823 11.0898L21.0879 0ZM56.7621 11.5135H57.3068C58.4803 11.5135 59.6364 11.5135 59.6364 9.99874C59.6364 8.4347 58.5615 8.41917 57.3068 8.41917H56.7621V11.5144V11.5135ZM53.5254 5.81609H58.4803C61.1558 5.81609 63.0063 7.05052 63.0063 9.90013C63.0063 12.831 61.4195 14.1157 58.5962 14.1157H56.7621V18.2317H53.5254V5.81609ZM66.7521 14.017C66.7521 15.0862 67.462 15.9107 68.6857 15.9107C69.9085 15.9107 70.6175 15.0862 70.6175 14.017C70.6175 12.9789 69.9075 12.106 68.6857 12.106C67.463 12.106 66.7521 12.9789 66.7521 14.017ZM73.7875 14.017C73.7875 16.8822 71.4104 18.512 68.6857 18.512C65.9756 18.512 63.5821 16.8986 63.5821 14.017C63.5821 11.1346 65.9601 9.50478 68.6857 9.50478C71.4104 9.50478 73.7875 11.1346 73.7875 14.017ZM78.2286 11.1683H78.2624C78.84 10.1311 79.831 9.67004 81.0045 9.67004H81.5821V12.5507C81.1687 12.3206 80.7718 12.2713 80.31 12.2713C78.642 12.2713 78.2295 13.3743 78.2295 14.8242V18.2317H75.2238V9.78509H78.2286V11.1683ZM86.7787 18.2317H83.773V12.2549H82.7984V9.78509H83.773V7.24865H86.7797V9.78509H88.4806V12.2549H86.7797L86.7787 18.2317ZM97.4796 14.017C97.4796 15.0862 98.1887 15.9107 99.4105 15.9107C100.633 15.9107 101.344 15.0862 101.344 14.017C101.344 12.9789 100.634 12.106 99.4105 12.106C98.1887 12.106 97.4796 12.9789 97.4796 14.017ZM104.515 14.017C104.515 16.8822 102.136 18.512 99.4105 18.512C96.7022 18.512 94.3078 16.8986 94.3078 14.017C94.3078 11.1346 96.6858 9.50478 99.4105 9.50478C102.136 9.50478 104.515 11.1346 104.515 14.017ZM109.665 18.2317H106.66V12.2549H105.603V9.78509H106.66V8.715C106.66 7.54448 106.693 6.68804 107.518 5.75035C107.883 5.3233 108.337 4.98118 108.848 4.74792C109.358 4.51467 109.914 4.39591 110.475 4.39996C110.937 4.39996 111.35 4.48213 111.762 4.6967V7.28061C111.415 7.13361 111.103 7.00122 110.705 7.00122C109.931 7.00122 109.665 7.4623 109.665 8.41826V9.78509H111.763V12.2549H109.665V18.2317ZM56.7621 27.846H57.076C58.1326 27.846 59.3225 27.6479 59.3225 26.2975C59.3225 24.9462 58.1326 24.749 57.076 24.749H56.7621V27.846ZM63.8796 34.6947H59.8509L56.7949 29.9204H56.7621V34.6957H53.5254V22.2783H58.3653C60.8254 22.2783 62.6924 23.447 62.6924 26.0993C62.6924 27.8113 61.7343 29.2932 59.9668 29.6054L63.8814 34.6957L63.8796 34.6947ZM67.3142 30.4801C67.3142 31.5493 68.0241 32.3738 69.2469 32.3738C70.4678 32.3738 71.1786 31.5493 71.1786 30.4801C71.1786 29.442 70.4678 28.5691 69.2469 28.5691C68.0241 28.5691 67.3142 29.442 67.3142 30.4801ZM74.3496 30.4801C74.3496 33.3453 71.9716 34.975 69.2469 34.975C66.5377 34.975 64.1424 33.3617 64.1424 30.4801C64.1424 27.5986 66.5213 25.9688 69.2469 25.9688C71.9716 25.9688 74.3496 27.5986 74.3496 30.4801ZM79.4842 34.6957H76.4784V28.7189H75.5039V26.2491H76.4784V23.7117H79.4842V26.2482H81.186V28.718H79.4842V34.6957ZM86.7495 34.6947H83.7438V28.718H82.7701V26.2482H83.7438V23.7117H86.7495V26.2482H88.4514V28.718H86.7495V34.6947ZM95.8161 29.2457C95.6674 28.4377 94.9246 27.9108 94.1152 27.9108C93.2402 27.9108 92.5138 28.3719 92.3313 29.2457H95.8161ZM98.6075 30.9741H92.2811C92.2811 32.193 92.9263 32.8513 94.1654 32.8513C94.8088 32.8513 95.2696 32.6367 95.6017 32.077H98.4916C98.0125 34.0693 96.1136 34.975 94.1819 34.975C91.3732 34.975 89.2763 33.3946 89.2763 30.4801C89.2763 27.6643 91.208 25.9688 93.9665 25.9688C96.9066 25.9688 98.6075 27.7794 98.6075 30.66V30.9741ZM103.478 27.6314H103.51C104.088 26.5942 105.08 26.1331 106.252 26.1331H106.831V29.0138C106.417 28.7837 106.022 28.7344 105.558 28.7344C103.89 28.7344 103.478 29.8373 103.478 31.2873V34.6947H100.472V26.2491H103.478V27.6314ZM111.057 30.4801C111.057 31.5493 111.766 32.3738 112.989 32.3738C114.211 32.3738 114.921 31.5493 114.921 30.4801C114.921 29.442 114.211 28.5691 112.989 28.5691C111.767 28.5691 111.057 29.442 111.057 30.4801ZM114.822 33.757H114.789C114.261 34.597 113.219 34.975 112.229 34.975C109.718 34.975 107.951 32.8842 107.951 30.4646C107.951 28.0423 109.685 25.9688 112.196 25.9688C113.171 25.9688 114.195 26.3303 114.822 27.0717V21.0274H117.828V34.6957H114.822V33.757ZM122.698 30.4801C122.698 31.5493 123.409 32.3738 124.631 32.3738C125.854 32.3738 126.564 31.5493 126.564 30.4801C126.564 29.442 125.854 28.5691 124.631 28.5691C123.408 28.5691 122.698 29.442 122.698 30.4801ZM129.47 34.6957H126.465V33.758H126.432C125.903 34.598 124.862 34.976 123.871 34.976C121.362 34.976 119.593 32.8851 119.593 30.4655C119.593 28.0432 121.328 25.9697 123.838 25.9697C124.813 25.9697 125.836 26.3313 126.465 27.0727V26.2491H129.47V34.6957ZM134.638 27.3027H134.67C135.381 26.3641 136.256 25.9697 137.346 25.9697C138.569 25.9697 139.626 26.4627 140.236 27.583C140.815 26.5294 141.954 25.9697 143.11 25.9697C145.258 25.9697 146 27.3685 146 29.3123V34.6957H142.994V30.66C142.994 29.789 143.028 28.3555 141.756 28.3555C140.369 28.3555 140.32 29.6575 140.32 30.66V34.6957H137.313V30.66C137.313 29.7232 137.313 28.2897 135.975 28.2897C134.638 28.2897 134.638 29.7232 134.638 30.66V34.6957H131.631V26.2482H134.638V27.3027Z" fill="white"/>
</svg>
