<svg width="137" height="22" viewBox="0 0 137 22" fill="none" xmlns="http://www.w3.org/2000/svg">
<g clip-path="url(#clip0_35_3881)">
<path fill-rule="evenodd" clip-rule="evenodd" d="M27.8379 10.9715C26.5131 15.3022 29.9322 19.3188 37.1202 19.477H48.0794L51.4838 13.6236H41.9623C39.8487 13.6236 39.5768 12.6791 39.5768 12.6791H52.0368L55.4356 6.84241H43.3592C43.4597 6.72991 44.403 5.90676 45.8598 5.90676H55.9817L59.3602 0.103516H47.0051C38.5082 0.103516 29.4492 5.70849 27.839 10.9704M81.5392 10.9715C80.2145 15.3022 83.6347 19.3188 90.8216 19.477H101.412L104.815 13.6236H95.6636C90.1773 13.6236 92.7455 5.90676 102.384 5.90676H108.841L112.221 0.103516H100.708C90.8825 0.103516 83.1506 5.70849 81.5404 10.9704M86.2357 0.103516H74.0962C66.6441 0.103516 58.304 4.33621 55.1986 9.66829L53.4473 12.6768H64.5848C64.5848 12.8517 63.5737 13.6236 61.7863 13.6236L52.8932 13.6281L49.4865 19.4803L62.0199 19.477C68.6211 19.477 77.0436 15.8937 79.9346 10.9236L82.3099 6.84686L70.3645 6.84241C70.3645 6.57285 71.432 5.98696 72.6146 5.98696L82.8087 5.99141L86.2357 0.103516Z" fill="white"/>
<path fill-rule="evenodd" clip-rule="evenodd" d="M135.481 4.72834C133.8 0.135869 126.024 -1.30213 118.109 1.5204C114.783 2.70333 111.964 4.4521 109.935 6.42365C110.745 6.50941 111.56 6.61634 112.387 6.77228C113.053 6.89815 113.677 7.05075 114.335 7.21226C116.455 7.73355 118.852 8.3239 123.601 8.18133C123.61 8.18133 123.144 8.96883 123.144 8.96883C118.482 9.11586 116.06 8.53999 113.996 8.0343C113.319 7.86722 112.684 7.71016 111.987 7.57761C107.951 6.81795 103.996 7.07192 100.183 7.96412L99.5298 9.0869C103.527 7.98974 107.54 7.83603 111.781 8.63578C112.448 8.76276 113.072 8.91425 113.731 9.08022C115.778 9.58034 118.09 10.1473 122.524 10.0548L122.065 10.8412C117.665 10.9459 115.394 10.3924 113.39 9.89668C112.714 9.73183 112.079 9.57366 111.382 9.44222C107.144 8.64247 103.02 8.94098 99.0197 9.96128L98.3686 11.0974C102.551 9.85769 106.739 9.665 111.176 10.5015C111.843 10.6263 112.466 10.78 113.126 10.9415C115.094 11.4271 117.31 11.9685 121.426 11.9284L120.966 12.7092C116.806 12.7671 114.594 12.2336 112.628 11.7557C111.952 11.5868 111.271 11.4356 110.586 11.3024C106.244 10.4971 102.033 10.7833 97.9342 11.8292L97.2696 12.9654C100.29 12.0865 103.441 11.7311 106.585 11.915C106.332 12.981 106.431 13.8843 106.816 14.9403C108.498 19.5327 116.275 20.9707 124.19 18.1493C132.103 15.329 137.158 9.32081 135.48 4.72723M28.5862 6.84134H20.0463C20.1705 6.50718 21.2831 5.9057 23.3695 5.9057H29.1301L32.5086 0.102453H24.3693C16.6701 0.102453 8.81068 4.44653 5.31936 10.3389L0 19.477H10.9569L14.7529 12.678H25.1874L28.5862 6.84134Z" fill="white"/>
</g>
<defs>
<clipPath id="clip0_35_3881">
<rect width="136.538" height="21.1635" fill="white"/>
</clipPath>
</defs>
</svg>
