<svg width="108" height="41" viewBox="0 0 108 41" fill="none" xmlns="http://www.w3.org/2000/svg">
<mask id="mask0_35_3887" style="mask-type:luminance" maskUnits="userSpaceOnUse" x="97" y="25" width="11" height="14">
<path d="M97.8163 25.9392H107.701V38.5158H97.8163V25.9392Z" fill="white"/>
</mask>
<g mask="url(#mask0_35_3887)">
<path d="M104.217 32.3165C104.069 32.5959 103.724 32.9858 103.018 32.9858H101.607V29.3289C101.607 29.1263 101.779 28.9605 101.983 28.9605H103.117C103.314 28.9605 103.986 28.9912 104.266 29.6974C104.399 30.0413 104.414 30.465 104.414 30.9593C104.414 31.5151 104.399 31.9726 104.217 32.3165ZM106.765 27.5358C105.961 26.7006 104.824 26.6331 104.251 26.6331H100.017C99.077 26.6331 98.3837 27.3822 98.3837 28.2021V38.4697H101.607V35.3132H103.986C104.892 35.3132 106.207 35.2303 106.996 34.1158C107.668 33.1516 107.702 31.466 107.702 30.7106C107.702 29.8785 107.637 28.4354 106.765 27.5358Z" fill="white"/>
</g>
<path d="M91.5615 28.8807C91.7895 28.7487 92.298 28.7333 92.6739 28.7333C92.8403 28.7333 93.2686 28.7487 93.5305 28.7978C94.0051 28.8961 94.1191 29.157 94.1191 29.3873C94.1191 29.5501 94.0544 29.8448 93.5953 29.8448H91.2164C91.1825 29.4027 91.2318 29.0588 91.5615 28.8807ZM91.3643 32.5775C91.2472 32.3964 91.1979 32.1016 91.2164 31.8744H95.9618C96.2545 31.8744 96.5349 31.8591 96.8123 31.6288C97.3053 31.2357 97.3392 30.5971 97.3392 30.0413C97.3392 29.0926 97.2406 27.7999 96.4024 27.1275C95.7153 26.5717 94.5659 26.541 92.8095 26.541C91.1671 26.541 89.5093 26.5717 88.702 27.3915C87.9162 28.1929 87.9963 29.4856 87.9963 31.073C87.9963 32.642 88.0641 33.5601 88.44 34.1803C89.1303 35.3072 90.2303 35.3072 91.5276 35.3072H97.028V32.9859H92.8095C92.2333 32.9859 91.6447 33.0197 91.3643 32.5775Z" fill="white"/>
<path d="M86.9477 35.3073V26.6394H83.7307V29.6822H80.8742V26.6394H77.6572V35.3073H80.8742V32.0066H83.7307V35.3073" fill="white"/>
<path d="M59.7269 28.8807C59.958 28.7487 60.4664 28.7333 60.8424 28.7333C61.0057 28.7333 61.434 28.7487 61.6959 28.7978C62.1735 28.8961 62.2875 29.157 62.2875 29.3873C62.2875 29.5501 62.2228 29.8448 61.7606 29.8448H59.3818C59.3479 29.4027 59.3972 29.0588 59.7269 28.8807ZM59.5297 32.5775C59.4157 32.3964 59.3664 32.1016 59.3818 31.8744H64.1271C64.423 31.8744 64.7003 31.8591 64.9807 31.6288C65.4737 31.2357 65.5045 30.5971 65.5045 30.0413C65.5045 29.0926 65.409 27.7999 64.5678 27.1275C63.8806 26.5717 62.7343 26.541 60.9749 26.541C59.3325 26.541 57.6747 26.5717 56.8704 27.3915C56.0816 28.1929 56.1648 29.4856 56.1648 31.073C56.1648 32.642 56.2295 33.5601 56.6085 34.1803C57.2987 35.3072 58.3957 35.3072 59.693 35.3072H65.1933V32.9859H60.9749C60.4017 32.9859 59.8101 33.0197 59.5297 32.5775Z" fill="white"/>
<path d="M52.1869 35.3076V28.9302H55.4378V26.6396H45.7159V28.9302H48.9668V35.3076" fill="white"/>
<path d="M44.8307 35.3073V26.6394H41.6106V29.6822H38.7541V26.6394H35.5371V35.3073H38.7541V32.0066H41.6106V35.3073" fill="white"/>
<path d="M30.6665 32.4946C30.5186 32.7065 30.1273 33.0842 29.2553 33.0842C28.2692 33.0842 27.8933 32.596 27.8286 32.4946C27.6961 32.3165 27.5143 31.9235 27.5143 30.9748C27.5143 29.9584 27.7115 29.5838 27.8286 29.4211C27.9919 29.2062 28.3678 28.8623 29.2553 28.8623C30.1427 28.8623 30.5186 29.2062 30.685 29.4211C30.8484 29.6483 30.9963 30.0567 30.9963 30.9748C30.9963 31.595 30.9316 32.1354 30.6665 32.4946ZM33.1286 27.4253C32.1764 26.5901 30.6357 26.541 29.2553 26.541C27.8748 26.541 26.3341 26.5901 25.3819 27.4253C24.2973 28.3894 24.2325 30.1089 24.2325 30.9748C24.2325 31.8406 24.2973 33.5601 25.3819 34.5242C26.3341 35.3594 27.8748 35.4116 29.2553 35.4116C30.6357 35.4116 32.1764 35.3594 33.1286 34.5242C34.2133 33.5601 34.278 31.8406 34.278 30.9748C34.278 30.1089 34.2133 28.3894 33.1286 27.4253Z" fill="white"/>
<path d="M75.1833 20.3142V18.1188H71.9971C71.5071 18.1188 70.6659 18.171 70.2715 17.5324C70.1883 17.3819 70.0065 17.0227 70.0065 16.0248C70.0065 15.5826 70.0404 15.2234 70.1544 14.8764C70.3362 14.3207 70.7121 13.8294 71.8183 13.8294H75.1833V11.634H70.3208C69.2854 11.634 68.3641 11.8336 67.6892 12.5367C66.7864 13.4702 66.7217 14.8273 66.7217 16.0893C66.7217 17.4157 66.8203 18.4965 67.4951 19.2825C68.2809 20.216 69.4179 20.3142 70.1544 20.3142" fill="white"/>
<path d="M65.4981 20.3142V11.634H62.275V14.6799H59.4154V11.634H56.1953V20.3142H59.4154V17.0043H62.275V20.3142" fill="white"/>
<path d="M51.8167 17.4495C51.8167 17.5969 51.7982 17.7596 51.6533 17.8732C51.5547 17.9561 51.3421 17.9868 51.1757 17.9868H49.4994C49.1297 17.9868 48.9109 17.7657 48.9263 17.4034C48.9386 17.0534 49.2067 16.9091 49.5302 16.9091H51.8167V17.4495ZM54.214 12.3894C53.835 12.0117 53.1293 11.634 52.0601 11.634H46.2948V13.7956H50.6642C50.9939 13.7956 51.4038 13.8141 51.6533 14.1395C51.7982 14.3391 51.8167 14.5663 51.8167 14.7137V14.8457H48.0019C47.4934 14.8457 46.9357 14.8611 46.4581 15.2234C45.7678 15.7454 45.7031 16.6634 45.7031 17.4157C45.7031 18.1035 45.7339 19.2518 46.4119 19.8567C46.8679 20.2804 47.4595 20.3142 48.0019 20.3142H53.1293C53.6224 20.3142 54.1986 20.2804 54.6084 19.8567C55.0028 19.4453 55.0367 18.9233 55.0367 18.4658V14.8273C55.0367 14.1242 54.9381 13.0925 54.214 12.3894Z" fill="white"/>
<path d="M41.3733 17.3175C41.2223 17.5969 40.8772 17.9868 40.1716 17.9868H38.7603V14.3299C38.7603 14.1272 38.9328 13.9614 39.1362 13.9614H40.2702C40.4674 13.9614 41.1422 13.9921 41.4195 14.6984C41.552 15.0422 41.5674 15.469 41.5674 15.9603C41.5674 16.5161 41.552 16.9736 41.3733 17.3175ZM43.9186 12.5367C43.1143 11.7016 41.9804 11.634 41.4041 11.634H37.1703C36.2304 11.634 35.5371 12.3832 35.5371 13.203V23.4707H38.7603V20.3142H41.1422C42.0451 20.3142 43.3608 20.2313 44.1497 19.1167C44.8214 18.1526 44.8553 16.4639 44.8553 15.7116C44.8553 14.8795 44.7906 13.4364 43.9186 12.5367Z" fill="white"/>
<path d="M16.4116 21.2413C13.9742 26.5901 15.7214 32.338 20.7996 35.2826H22.1153V13.8538C19.5947 16.1567 17.5949 18.6468 16.4116 21.2413ZM0 2.20142V9.26655H9.10251C11.2472 6.5891 13.8017 4.25862 16.5411 2.20142H0ZM3.75933 22.9761C3.74392 18.9139 5.19835 15.0083 7.38924 11.6339H0V35.2826H9.08094C5.78999 32.0248 3.77474 27.634 3.75933 22.9761ZM43.5312 2.20142C36.9832 4.21257 29.9237 7.63613 24.4911 11.858V23.4705H33.9942V9.26655H59.4159V2.20142" fill="white"/>
<mask id="mask1_35_3887" style="mask-type:luminance" maskUnits="userSpaceOnUse" x="4" y="0" width="44" height="41">
<path d="M4.7334 0H47.3309V40.9998H4.7334V0Z" fill="white"/>
</mask>
<g mask="url(#mask1_35_3887)">
<path d="M41.806 38.2887L41.8029 38.3317C11.4417 49.978 -12.464 20.9713 22.1712 0.00317383H46.5699C34.4383 2.89248 19.5828 11.0906 15.2072 20.695C10.8408 30.2656 17.5614 42.6795 41.806 38.2887Z" fill="white"/>
</g>
<path d="M71.4731 26.3168C73.5654 26.3168 75.1862 25.1684 75.1862 23.4705H73.0662C73.0662 24.2135 72.3667 24.6311 71.4731 24.6311C70.5826 24.6311 69.8831 24.2135 69.8831 23.4705H67.7631C67.7631 25.1684 69.3839 26.3168 71.4731 26.3168ZM74.6285 26.5409C73.6394 26.5409 73.3774 26.8664 73.1155 27.1949L69.9663 31.1374C69.8954 31.2203 69.7999 31.383 69.6674 31.383C69.538 31.383 69.5195 31.2848 69.5195 31.1374L69.6859 26.6392H66.4658V33.7719C66.4658 35.2764 67.5998 35.4084 68.3054 35.4084C69.0111 35.4084 69.3901 35.3286 69.9324 34.6561L73.0169 30.8089C73.134 30.6799 73.2141 30.5479 73.3127 30.5479C73.4452 30.5479 73.4452 30.6799 73.4452 30.8089L73.2819 35.3071H76.4989V28.2757C76.4989 27.8336 76.465 26.5409 74.6285 26.5409Z" fill="white"/>
</svg>
