<svg width="116" height="41" viewBox="0 0 116 41" fill="none" xmlns="http://www.w3.org/2000/svg">
<g clip-path="url(#clip0_35_3912)">
<path d="M38.9402 32.2537L41.8741 32.2611L41.8813 40.7909L38.9354 40.7865L38.9402 32.2537Z" fill="white"/>
<path d="M23.5623 32.2546L26.5026 32.2584L26.4944 39.0634L30.0197 39.0625L30.0118 40.787L23.5555 40.7863L23.5623 32.2546Z" fill="white"/>
<path d="M69.0136 32.2517L75.8591 32.256L75.859 33.8923L71.9515 33.8905L71.942 35.4761L75.58 35.4797L75.5729 37.1965L71.9444 37.1966L71.9425 39.0606L75.8599 39.0603L75.86 40.7859L69.0078 40.7848L69.0136 32.2517Z" fill="white"/>
<path d="M88.0177 32.0703C89.1837 31.9665 90.7914 32.1037 91.7191 32.8909C92.2988 33.3828 92.3454 34.0635 92.3838 34.7573L89.7477 34.7595C89.7093 34.3575 89.6898 33.9964 89.3607 33.713C89.1109 33.4977 88.7512 33.4948 88.4346 33.534C88.2446 33.5576 87.9989 33.7049 87.8968 33.8655C87.7799 34.0492 87.8018 34.2255 87.8235 34.4286C88.2111 35.0774 89.03 35.3282 89.6984 35.6161C90.3688 35.9048 91.1108 36.215 91.6908 36.656C92.1687 37.0195 92.3934 37.5129 92.4572 38.0925C92.5268 38.7237 92.3532 39.4243 91.9279 39.9078C91.2095 40.7242 90.1301 40.897 89.0968 40.9935L88.6931 40.9982C87.5766 41.0019 86.2581 40.8348 85.4476 40.0066C84.8691 39.4156 84.847 38.6671 84.8598 37.8995L87.5896 37.897C87.6039 38.3082 87.5688 38.8674 87.8803 39.1879C88.111 39.4251 88.4926 39.4578 88.8073 39.4329C89.0799 39.4114 89.3225 39.3212 89.4991 39.11C89.6513 38.9282 89.7009 38.6805 89.651 38.4504C89.5046 37.7742 88.1842 37.3538 87.6359 37.0949C87.1003 36.842 86.5394 36.5781 86.0482 36.2491C85.5135 35.8909 85.1599 35.4206 85.0566 34.7825C84.9718 34.2577 85.1025 33.6203 85.4349 33.198C86.043 32.4256 87.0879 32.1948 88.0177 32.0703Z" fill="white"/>
<path d="M56.7301 32.2529L59.376 32.2622L59.3528 40.7342L59.2352 40.7899L56.2779 40.7865C56.0262 40.1469 55.6954 39.5331 55.4182 38.9027C55.0919 38.1603 54.7635 37.42 54.418 36.6858C54.2297 36.2859 54.0581 35.8643 53.8078 35.4973C54.1951 37.2041 54.1749 39.0474 54.1672 40.7888L51.489 40.7855L51.496 32.2535L54.5493 32.2564C54.9281 33.0791 55.336 33.8875 55.7093 34.7126C55.975 35.3001 56.239 35.8874 56.519 36.4685C56.6772 36.7965 56.8183 37.1517 57.054 37.4331C56.7409 35.7135 56.7299 33.9929 56.7301 32.2529Z" fill="white"/>
<path d="M71.9124 6.31348L84.3482 6.31435L84.3461 11.2443L71.9102 11.2379L71.9124 6.31348Z" fill="white"/>
<path d="M103.454 6.31128L115.893 6.31377L115.886 11.2486L103.456 11.245L103.454 6.31128Z" fill="white"/>
<path d="M71.9043 0.141211L84.3571 0.13916L84.3538 5.07893L71.9082 5.08259L71.9043 0.141211Z" fill="white"/>
<path d="M103.453 0.143162L115.903 0.138184L115.894 5.08307L103.451 5.08469L103.453 0.143162Z" fill="white"/>
<path d="M87.4899 6.30957L100.696 6.31059L100.685 11.2445L87.4883 11.243L87.4899 6.30957Z" fill="white"/>
<path d="M87.4906 0.140234L100.696 0.139648L100.692 5.08352L87.4854 5.08527L87.4906 0.140234Z" fill="white"/>
<path d="M80.6583 13.1316L85.7198 13.1279L81.1323 18.8414L83.8215 23.07L85.7987 26.2068L80.6412 26.2148L78.0514 21.4849L77.0007 22.7328L76.9818 26.2157L72.0466 26.2192L72.04 13.1294L76.9904 13.129L76.9733 18.5436L80.6583 13.1316Z" fill="white"/>
<path d="M103.443 12.9688L108.33 12.9767L112.267 21.1443L111.793 12.9727L116 12.9705L115.992 26.1595L115.871 26.2211L111.071 26.216L107.095 17.766C107.57 20.6028 107.677 23.3516 107.665 26.2182L103.447 26.2216L103.443 12.9688Z" fill="white"/>
<path d="M93.3122 13.0919C95.3587 12.8788 97.9083 13.1266 99.6008 14.3589C100.573 15.0663 100.917 16.1194 101.072 17.2518C101.335 19.1719 101.478 23.1295 100.199 24.6845C99.1888 25.9121 97.3025 26.3716 95.7754 26.5116C93.6669 26.7469 90.8377 26.5197 89.136 25.174C88.1427 24.3885 87.8588 23.1288 87.7376 21.9433C87.6585 21.1709 87.6725 20.3869 87.6733 19.611C87.6749 18.1486 87.6338 16.1008 88.6523 14.9087C89.7792 13.5894 91.6553 13.2253 93.3122 13.0919Z" fill="white"/>
<path d="M93.7363 15.5271C94.2511 15.4694 94.8276 15.4455 95.3271 15.6002C95.6551 15.7016 95.9447 15.9384 96.0858 16.2499C96.5254 17.2194 96.3598 18.6889 96.3587 19.7501C96.3575 20.8548 96.5368 22.3892 96.0639 23.3925C95.8813 23.7801 95.5241 23.9199 95.137 24.052C94.3193 24.2047 93.6577 24.1223 92.9473 23.6915C92.7941 23.4386 92.6687 23.1947 92.6053 22.9048C92.3926 21.9304 92.4664 20.8654 92.4667 19.8738C92.4669 19.0626 92.4212 18.2107 92.5144 17.4068C92.5591 17.021 92.5904 16.6107 92.7479 16.2499C92.9286 15.8364 93.3323 15.6618 93.7363 15.5271Z" fill="#01761B"/>
<path d="M30.6508 7.53296L46.7777 7.53398L46.7765 11.1951L37.5378 11.1957L37.5305 14.6586L46.0868 14.6601L46.0864 18.4918L37.8025 18.4915C37.6619 18.4978 37.6499 18.4785 37.5323 18.5666L37.5324 22.5968L46.7795 22.6101L46.7789 26.4864L30.6475 26.4933L30.6508 7.53296Z" fill="white"/>
<path d="M49.8711 7.53076L59.586 7.56444C62.1596 7.66284 65.3193 7.7832 67.1825 9.7966C68.3885 11.0997 68.484 12.866 68.593 14.53C68.6912 16.028 68.6885 17.5457 68.6181 19.0449C68.5437 20.6291 68.4782 22.412 67.533 23.7695C67.2941 24.1128 66.9808 24.3883 66.6696 24.667C65.8108 25.3303 64.9248 25.6957 63.8666 25.9617C61.3562 26.5928 58.5158 26.4959 55.9412 26.4991C53.9142 26.5017 51.8872 26.5019 49.8604 26.5018L49.8711 7.53076Z" fill="white"/>
<path d="M56.8736 11.0245C58.1524 11.002 59.9398 10.8897 60.9349 11.8104C61.6792 12.4992 61.5784 14.1004 61.5929 15.0545C61.6148 16.4794 61.6282 17.9182 61.5702 19.342C61.539 20.1095 61.5313 20.9925 61.25 21.7176C61.1539 21.9652 60.9926 22.1335 60.8072 22.3209C59.6601 23.1457 58.2183 23.0528 56.8701 23.0487L56.8736 11.0245Z" fill="#01761B"/>
<path d="M17.0311 7.53008L26.6469 7.53403L26.6466 26.4898L20.0965 26.4997L20.5376 15.6315L20.6585 11.8951L15.9743 26.4918L10.7148 26.5003L5.96225 11.8395L6.56976 26.4854L0.0537258 26.4971L0.0537109 7.53286L9.74869 7.52979C10.4037 9.52209 11.0522 11.516 11.6918 13.5131C11.9092 14.1917 12.1828 14.8559 12.3727 15.5424C12.7759 16.9995 12.9808 18.5294 13.3217 20.0052L17.0311 7.53008Z" fill="white"/>
</g>
<defs>
<clipPath id="clip0_35_3912">
<rect width="116" height="41" fill="white"/>
</clipPath>
</defs>
</svg>
