<svg width="24" height="24" viewBox="0 0 24 24" fill="none" xmlns="http://www.w3.org/2000/svg">
<path d="M15.2496 6.16476C13.1024 5.75459 10.897 5.75459 8.74985 6.16476C7.8066 6.37474 6.61994 7.51206 6.38798 8.42662C6.00202 10.1837 6.00202 12.0036 6.38798 13.7606C6.61994 14.6754 7.8066 15.8125 8.74985 16.0227H8.75052C8.77093 16.0266 8.78934 16.0375 8.80262 16.0535C8.8159 16.0694 8.82323 16.0895 8.82336 16.1103V18.7029C8.82337 18.7317 8.83198 18.7598 8.84808 18.7836C8.86418 18.8074 8.88704 18.8259 8.91372 18.8366C8.9404 18.8473 8.96967 18.8498 8.99778 18.8438C9.02589 18.8377 9.05155 18.8234 9.07146 18.8027L10.3032 17.5385L11.4609 16.3497C11.4694 16.341 11.4797 16.3341 11.491 16.3296C11.5023 16.325 11.5145 16.3229 11.5267 16.3232C12.7749 16.3572 14.023 16.2564 15.2495 16.0224C16.1928 15.8122 17.3799 14.6751 17.6113 13.7603C17.9978 12.0033 17.9978 10.1833 17.6113 8.42634C17.38 7.51206 16.1934 6.37474 15.2496 6.16476ZM15.2823 13.8928C15.0936 14.2933 14.8191 14.6263 14.4232 14.8393C14.3115 14.8992 14.1779 14.9185 14.0518 14.9574C13.9067 14.9133 13.7686 14.8839 13.6402 14.8306C12.3102 14.2788 11.0864 13.567 10.1169 12.4757C9.56563 11.8553 9.1338 11.1546 8.76911 10.4134C8.59609 10.0618 8.45052 9.69645 8.30172 9.33354C8.16626 9.00251 8.36585 8.66032 8.57599 8.41105C8.77663 8.18004 9.02392 7.99414 9.30158 7.86558C9.51618 7.76261 9.7276 7.82205 9.88433 8.00378C10.2275 8.39217 10.5296 8.81503 10.7858 9.26562C10.9407 9.54592 10.8981 9.8885 10.6174 10.0792C10.5493 10.1255 10.4872 10.18 10.4236 10.2321C10.3665 10.2751 10.317 10.3274 10.2772 10.3867C10.2445 10.4423 10.2249 10.5047 10.22 10.5691C10.2151 10.6334 10.2249 10.6981 10.2488 10.758C10.5948 11.7092 11.1784 12.4492 12.136 12.8473C12.2892 12.9112 12.443 12.9852 12.6195 12.9649C12.9154 12.9303 13.0109 12.6059 13.2182 12.4365C13.3127 12.3583 13.4303 12.313 13.5529 12.3077C13.6756 12.3023 13.7966 12.3372 13.8976 12.4069C14.1158 12.545 14.3274 12.693 14.5373 12.8428C14.7458 12.9852 14.9468 13.1382 15.1394 13.3014C15.3224 13.4623 15.3855 13.674 15.2823 13.8928ZM13.5651 10.7927C13.482 10.7943 13.5154 10.7927 13.547 10.7917C13.5186 10.7927 13.4904 10.788 13.4638 10.7779C13.4373 10.7678 13.413 10.7525 13.3925 10.7329C13.372 10.7133 13.3556 10.6898 13.3443 10.6637C13.333 10.6377 13.327 10.6097 13.3267 10.5813C13.3191 10.4879 13.3054 10.3951 13.2859 10.3035C13.2461 10.1233 13.1439 9.96293 12.9974 9.85072C12.9262 9.79948 12.8466 9.76109 12.7622 9.7373C12.6555 9.70633 12.5445 9.71498 12.4382 9.68874C12.4125 9.68424 12.3878 9.6747 12.3658 9.66068C12.3437 9.64665 12.3246 9.6284 12.3096 9.60699C12.2946 9.58558 12.284 9.56142 12.2784 9.53589C12.2727 9.51036 12.2722 9.48397 12.2767 9.45823C12.2866 9.40813 12.3145 9.36339 12.3552 9.33247C12.3958 9.30155 12.4464 9.28658 12.4973 9.2904C13.1717 9.3389 13.6538 9.68774 13.7225 10.4817C13.7307 10.5378 13.7301 10.5947 13.7209 10.6506C13.7143 10.6863 13.6968 10.7191 13.6706 10.7444C13.6445 10.7696 13.611 10.786 13.5751 10.7912C13.5804 10.7913 13.5795 10.7917 13.5651 10.7927ZM13.1458 8.97678C12.9375 8.87789 12.716 8.8099 12.4882 8.77496C12.3891 8.75861 12.2889 8.74873 12.1893 8.73461C12.1632 8.73351 12.1376 8.72701 12.1141 8.71552C12.0907 8.70402 12.0698 8.68778 12.053 8.66782C12.0361 8.64786 12.0236 8.62461 12.0161 8.59955C12.0087 8.57449 12.0066 8.54816 12.0098 8.52223C12.0099 8.49595 12.0156 8.46997 12.0264 8.44602C12.0372 8.42206 12.053 8.40065 12.0726 8.38319C12.0923 8.36574 12.1154 8.35262 12.1404 8.34471C12.1655 8.33679 12.192 8.33426 12.2181 8.33727C12.6151 8.35247 13.004 8.45387 13.3579 8.63442C14.0796 9.01674 14.4921 9.61981 14.6124 10.4254C14.618 10.462 14.6264 10.4982 14.6291 10.5348C14.6361 10.6251 14.6403 10.7156 14.6472 10.8349C14.6445 10.8756 14.6388 10.9161 14.6301 10.9559C14.5838 11.1305 14.319 11.1523 14.258 10.976C14.242 10.9216 14.235 10.8649 14.2373 10.8081C14.2427 10.4385 14.1508 10.0739 13.9708 9.75098C13.7775 9.41773 13.4906 9.14855 13.1458 8.97678ZM15.3761 11.4661C15.2366 11.4678 15.1739 11.3512 15.1647 11.2261C15.1469 10.9784 15.1345 10.73 15.1004 10.4843C15.0052 9.84472 14.7129 9.25073 14.2642 8.78509C13.8155 8.31945 13.2328 8.00534 12.5972 7.88651C12.403 7.85191 12.2045 7.84298 12.0077 7.82221C11.8834 7.80932 11.7208 7.80167 11.6933 7.64718C11.6894 7.61735 11.6919 7.58703 11.7007 7.55824C11.7094 7.52946 11.7242 7.50286 11.744 7.48022C11.7638 7.45758 11.7882 7.43941 11.8156 7.42693C11.8429 7.41444 11.8726 7.40792 11.9027 7.4078C11.9362 7.40573 11.9697 7.4078 12.0035 7.4078C13.6674 7.4544 12.1178 7.41187 12.0091 7.4078C13.7462 7.45887 15.1722 8.6126 15.4781 10.3306C15.5304 10.6237 15.5489 10.9232 15.5722 11.2206C15.5818 11.346 15.511 11.4648 15.3761 11.4664V11.4661Z" fill="#6D51E0"/>
<path d="M12 0C5.3726 0 0 5.3726 0 12C0 18.6274 5.3726 24 12 24C18.6274 24 24 18.6274 24 12C24 5.3726 18.6274 0 12 0ZM18.8665 14.0446L18.8622 14.0617C18.5154 15.4636 16.9518 16.9681 15.5158 17.2813L15.4997 17.2846C14.3462 17.5052 13.1744 17.6163 12 17.6166C11.6561 17.6166 11.312 17.6059 10.9679 17.5866L9.38233 19.2349C9.29537 19.3254 9.18332 19.3879 9.0606 19.4142C8.93788 19.4405 8.81009 19.4295 8.69367 19.3826C8.57724 19.3358 8.4775 19.2551 8.40726 19.1511C8.33703 19.0471 8.29951 18.9244 8.29953 18.7989V17.2341C6.91736 16.8391 5.47027 15.4038 5.13773 14.0617L5.13382 14.0446C4.705 12.1006 4.705 10.0866 5.13382 8.14264L5.13773 8.12556C5.48484 6.72357 7.04852 5.21911 8.48394 4.90616L8.50069 4.90264C10.8128 4.45976 13.188 4.45976 15.5001 4.90264L15.5164 4.90616C16.9524 5.21911 18.5158 6.72357 18.8626 8.12556L18.8668 8.14264C19.2955 10.0866 19.2953 12.1007 18.8665 14.0446Z" fill="#6D51E0"/>
</svg>
