<svg width="24" height="24" viewBox="0 0 24 24" fill="none" xmlns="http://www.w3.org/2000/svg">
<path d="M0 12C0 5.37258 5.37258 0 12 0C18.6274 0 24 5.37258 24 12C24 18.6274 18.6274 24 12 24C5.37258 24 0 18.6274 0 12Z" fill="#4C6C91"/>
<path d="M12.6277 15.938C12.6277 15.938 12.8587 15.9128 12.977 15.7881C13.0853 15.6738 13.0816 15.4581 13.0816 15.4581C13.0816 15.4581 13.0672 14.4509 13.5436 14.3022C14.0132 14.1559 14.616 15.2762 15.2559 15.707C15.7392 16.0327 16.106 15.9614 16.106 15.9614L17.8158 15.938C17.8158 15.938 18.7098 15.884 18.2859 15.1938C18.2509 15.1373 18.0386 14.6832 17.0151 13.7503C15.9426 12.7738 16.0866 12.9318 17.3775 11.2424C18.1639 10.2137 18.4781 9.58567 18.3798 9.31713C18.2866 9.06025 17.7081 9.12847 17.7081 9.12847L15.7836 9.14014C15.7836 9.14014 15.6409 9.12109 15.5351 9.18316C15.4318 9.244 15.3648 9.38595 15.3648 9.38595C15.3648 9.38595 15.0605 10.1818 14.6542 10.859C13.7972 12.2871 13.4547 12.3627 13.3145 12.2742C12.9883 12.0671 13.0697 11.4434 13.0697 11.0003C13.0697 9.61579 13.2838 9.03874 12.6534 8.88941C12.4443 8.83964 12.2903 8.80707 11.755 8.80154C11.0682 8.79478 10.4872 8.80399 10.1579 8.96193C9.93883 9.06701 9.7698 9.30176 9.87309 9.31528C10.0002 9.33187 10.2882 9.39148 10.4409 9.59551C10.6381 9.85914 10.6312 10.4503 10.6312 10.4503C10.6312 10.4503 10.7446 12.08 10.3664 12.2822C10.1072 12.4211 9.75164 12.1378 8.98723 10.8418C8.59595 10.1781 8.30046 9.44433 8.30046 9.44433C8.30046 9.44433 8.24349 9.30729 8.14144 9.23355C8.01811 9.14444 7.84595 9.11679 7.84595 9.11679L6.01726 9.12847C6.01726 9.12847 5.74243 9.13584 5.64163 9.25321C5.55211 9.35707 5.63475 9.57277 5.63475 9.57277C5.63475 9.57277 7.06652 12.8611 8.68798 14.5185C10.1748 16.0376 11.8627 15.938 11.8627 15.938H12.6277Z" fill="white"/>
</svg>
