<svg width="24" height="24" viewBox="0 0 24 24" fill="none" xmlns="http://www.w3.org/2000/svg">
<g clip-path="url(#clip0_158_13103)">
<path d="M12 0C5.3736 0 0 5.3736 0 12C0 18.6264 5.3736 24 12 24C18.6264 24 24 18.6264 24 12C24 5.3736 18.6264 0 12 0ZM12.2543 18.9868C12.2542 18.9868 12.2545 18.9868 12.2543 18.9868H12.2514C11.0493 18.9862 9.8681 18.6848 8.81909 18.1128L5.01178 19.1113L6.03076 15.3906C5.40216 14.3018 5.07147 13.0666 5.07202 11.8011C5.07367 7.84241 8.29559 4.62177 12.2543 4.62177C14.1755 4.6225 15.9789 5.3703 17.3348 6.72729C18.6909 8.08447 19.4372 9.88843 19.4365 11.8068C19.4348 15.7657 16.2125 18.9868 12.2543 18.9868Z" fill="#2CB742"/>
<path d="M12.2567 5.83447C8.96393 5.83447 6.28601 8.51129 6.28455 11.8017C6.28418 12.9293 6.59985 14.0273 7.19733 14.9775L7.33924 15.2032L6.73608 17.4055L8.99543 16.8129L9.2135 16.9422C10.1299 17.486 11.1806 17.7737 12.2518 17.774H12.2542C15.5444 17.774 18.2223 15.097 18.2238 11.8065C18.2243 10.2118 17.604 8.71252 16.4769 7.58459C15.3499 6.45667 13.851 5.83502 12.2567 5.83447ZM15.768 14.3674C15.6184 14.7863 14.9015 15.1688 14.5567 15.2205C14.2474 15.2666 13.8563 15.2858 13.4264 15.1494C13.1657 15.0667 12.8315 14.9562 12.4032 14.7715C10.6031 13.9944 9.42737 12.1824 9.33765 12.0626C9.24793 11.9429 8.60486 11.0898 8.60486 10.2067C8.60486 9.32373 9.06849 8.88959 9.23291 8.71014C9.39753 8.53052 9.59198 8.48566 9.71155 8.48566C9.83112 8.48566 9.95087 8.48676 10.0554 8.49188C10.1657 8.49738 10.3136 8.44995 10.4592 8.79987C10.6088 9.15912 10.9677 10.0421 11.0125 10.1318C11.0574 10.2217 11.0872 10.3264 11.0275 10.4462C10.9677 10.5659 10.7688 10.8243 10.5789 11.0598C10.4993 11.1584 10.3955 11.2463 10.5002 11.426C10.6047 11.6054 10.9651 12.193 11.4985 12.6687C12.184 13.2799 12.7623 13.4692 12.9417 13.5591C13.121 13.6489 13.2257 13.6339 13.3305 13.5143C13.435 13.3945 13.7791 12.9904 13.8986 12.8108C14.0182 12.6312 14.1379 12.6612 14.3024 12.7211C14.467 12.7808 15.3492 13.2149 15.5286 13.3046C15.7081 13.3945 15.8276 13.4394 15.8725 13.5143C15.9176 13.5892 15.9176 13.9482 15.768 14.3674Z" fill="#2CB742"/>
</g>
<defs>
<clipPath id="clip0_158_13103">
<rect width="24" height="24" fill="white"/>
</clipPath>
</defs>
</svg>
