<svg width="187" height="29" viewBox="0 0 187 29" fill="none" xmlns="http://www.w3.org/2000/svg">
<g clip-path="url(#clip0_97_7212)">
<path d="M15.4672 -0.0139046C15.5653 -0.0140031 15.6634 -0.0141017 15.7646 -0.0142032C16.0953 -0.014394 16.426 -0.0137573 16.7568 -0.0131287C16.9931 -0.0130962 17.2294 -0.0131144 17.4657 -0.0131797C18.109 -0.0132129 18.7522 -0.0125332 19.3954 -0.0117298C20.067 -0.0110108 20.7386 -0.0109414 21.4102 -0.0108044C22.6827 -0.0104455 23.9552 -0.0094985 25.2277 -0.00834264C26.676 -0.00705547 28.1244 -0.00642021 29.5728 -0.00584097C32.5529 -0.00463448 35.533 -0.00260523 38.5131 -3.82178e-05C38.5131 0.0760655 38.5131 0.152169 38.5131 0.230579C38.3574 0.384023 38.3574 0.384023 38.1338 0.567428C37.4817 1.12265 36.8833 1.72987 36.2792 2.33606C36.1496 2.46571 36.02 2.59534 35.8903 2.72494C35.5409 3.07436 35.1918 3.42414 34.8427 3.77398C34.477 4.14045 34.1109 4.50659 33.7449 4.87277C33.0529 5.56512 32.3612 6.25776 31.6696 6.95051C30.8817 7.73964 30.0936 8.52844 29.3054 9.31721C27.685 10.9388 26.0651 12.5607 24.4455 14.1829C24.4835 14.2971 24.5216 14.4112 24.5608 14.5289C24.6369 14.5289 24.713 14.5289 24.7914 14.5289C24.9908 14.7162 25.1787 14.908 25.3679 15.1054C25.543 15.2811 25.7184 15.4564 25.894 15.6315C26.0646 15.8021 26.2351 15.9726 26.4057 16.1432C26.5357 16.266 26.5357 16.266 26.6683 16.3914C26.8669 16.6044 26.8669 16.6044 26.8669 16.835C26.943 16.835 27.0191 16.835 27.0976 16.835C27.2471 16.9913 27.2471 16.9913 27.4147 17.2026C27.6433 17.4793 27.8489 17.6915 28.1281 17.9233C28.4896 18.2257 28.7769 18.5474 29.0817 18.9047C29.4018 19.2708 29.7482 19.6085 30.0956 19.9484C30.6721 20.5249 30.6721 20.5249 30.9388 20.7988C31.1849 21.0392 31.4337 21.261 31.6955 21.4834C32.0901 21.8249 32.4272 22.1901 32.7643 22.5874C33.1588 23.0367 33.5902 23.4497 34.0161 23.8689C34.3986 24.2502 34.7791 24.6335 35.1589 25.0176C35.4541 25.3159 35.7499 25.6136 36.0458 25.9113C36.2019 26.0685 36.3578 26.226 36.5135 26.3836C36.739 26.6119 36.9652 26.8395 37.1916 27.0669C37.2611 27.1376 37.3307 27.2084 37.4023 27.2813C37.7903 27.672 37.7903 27.672 38.2825 27.9047C38.2444 28.0949 38.2064 28.2852 38.1672 28.4812C37.4573 28.4955 36.7475 28.5059 36.0375 28.5129C35.7962 28.5158 35.5548 28.5197 35.3135 28.5247C34.966 28.5317 34.6186 28.535 34.271 28.5375C34.1099 28.542 34.1099 28.542 33.9455 28.5465C33.4366 28.5468 33.0909 28.5347 32.6881 28.2043C32.2019 27.6956 32.2019 27.6956 31.991 27.4434C31.681 27.0804 31.3603 26.7389 31.0181 26.4057C30.8257 26.2136 30.6335 26.0214 30.4415 25.8291C30.3391 25.7267 30.2367 25.6243 30.1312 25.5188C26.391 21.7786 22.6508 18.0384 18.9106 14.2982C19.294 13.8437 19.6798 13.3993 20.1022 12.9801C20.1942 12.8885 20.2862 12.7969 20.381 12.7025C20.4783 12.6061 20.5756 12.5098 20.6758 12.4105C20.7779 12.3089 20.8799 12.2073 20.9851 12.1026C21.3642 11.7251 21.7438 11.3482 22.1235 10.9713C22.4965 10.601 22.869 10.2302 23.2415 9.85931C23.3385 9.76319 23.4356 9.66707 23.5356 9.56804C24.0261 9.07963 24.4957 8.58259 24.9469 8.05781C25.259 7.70239 25.5924 7.36935 25.9274 7.0356C25.9991 6.96377 26.0708 6.89195 26.1447 6.81795C26.2947 6.66783 26.4449 6.51785 26.5952 6.36801C26.8244 6.13949 27.0529 5.91036 27.2813 5.68117C27.4281 5.53444 27.575 5.38775 27.7218 5.2411C27.7895 5.17323 27.8571 5.10536 27.9268 5.03544C28.2126 4.7513 28.4945 4.48641 28.8098 4.23429C29.0677 4.05627 29.0677 4.05627 29.1731 3.80515C27.8508 3.81767 26.5285 3.83068 25.2061 3.84428C24.5918 3.85058 23.9775 3.85673 23.3632 3.86249C22.7681 3.86808 22.1729 3.87412 21.5778 3.88044C21.3531 3.88275 21.1284 3.88492 20.9037 3.88691C20.2713 3.89259 19.6391 3.90163 19.0068 3.91472C18.7793 3.91872 18.5517 3.92135 18.3242 3.92293C17.9641 3.92561 17.6043 3.93239 17.2443 3.93986C17.1344 3.93977 17.0245 3.93969 16.9112 3.9396C16.2543 3.95814 15.8759 4.06195 15.3879 4.51094C15.177 4.73958 14.9878 4.98359 14.8006 5.23176C14.6328 5.43318 14.4551 5.59211 14.2546 5.76089C13.7816 6.16264 13.3446 6.59413 12.9074 7.03379C12.8336 7.10796 12.7598 7.18213 12.6838 7.25854C12.453 7.4909 12.2225 7.72353 11.9921 7.95626C11.6874 8.2641 11.3822 8.57153 11.0768 8.87873C11.0088 8.9477 10.9408 9.01667 10.8707 9.08773C10.5271 9.43336 10.177 9.76445 9.808 10.083C9.32263 10.5025 8.86933 10.949 8.41754 11.4043C8.33438 11.4876 8.25123 11.5709 8.16555 11.6567C7.90335 11.9196 7.64155 12.1828 7.37976 12.4461C7.20067 12.6258 7.02155 12.8054 6.8424 12.985C6.40623 13.4225 5.9704 13.8602 5.53482 14.2982C5.5943 14.3495 5.65379 14.4007 5.71507 14.4535C6.18238 14.8588 6.63528 15.2701 7.06987 15.7108C7.12268 15.764 7.17549 15.8173 7.22991 15.8721C7.45084 16.0949 7.67105 16.3184 7.89133 16.5418C8.64094 17.3058 8.64094 17.3058 9.4337 18.0242C10.2521 18.7242 10.9901 19.517 11.7469 20.282C11.9581 20.4954 12.1696 20.7084 12.3813 20.9213C12.449 20.9895 12.5167 21.0576 12.5865 21.1279C12.9322 21.4735 13.2822 21.8044 13.6573 22.1185C13.9717 22.3832 14.2088 22.6581 14.4528 22.9887C15.0066 23.7054 15.5559 24.383 16.4902 24.546C17.5967 24.6812 18.7235 24.6323 19.8331 24.5607C19.5683 24.2178 19.3118 23.9138 18.9768 23.6392C18.2551 23.0216 17.5975 22.3373 16.9288 21.6636C16.7934 21.5277 16.6581 21.3918 16.5227 21.256C16.2741 21.0064 16.0257 20.7567 15.7774 20.5068C15.7227 20.4519 15.668 20.3969 15.6116 20.3402C15.4548 20.1825 15.2985 20.0242 15.1422 19.866C14.8694 19.5898 14.8694 19.5898 14.5289 19.3142C14.2017 19.0415 13.9053 18.7516 13.6064 18.4494C13.4577 18.3004 13.3088 18.1516 13.1599 18.0028C11.9251 16.768 10.6902 15.5331 9.45532 14.2982C9.64078 13.9063 9.84646 13.6482 10.1553 13.3411C10.2492 13.2474 10.3432 13.1537 10.4399 13.0571C10.5383 12.9601 10.6367 12.8631 10.7381 12.7632C10.8817 12.6197 10.8817 12.6197 11.0282 12.4733C11.4456 12.0589 11.8638 11.6512 12.3119 11.27C13.0327 10.65 13.6879 9.95795 14.3559 9.28231C14.6282 9.00691 14.901 8.73191 15.1739 8.45714C15.2646 8.36503 15.2646 8.36503 15.3571 8.27107C15.477 8.1504 15.5981 8.03096 15.7205 7.9128C15.8571 7.77975 15.9899 7.64279 16.1199 7.50335C16.5346 7.08847 16.8322 6.87023 17.4267 6.82685C17.6463 6.82698 17.866 6.83144 18.0855 6.83966C18.2601 6.84137 18.2601 6.84137 18.4383 6.84312C18.8073 6.84761 19.1759 6.85774 19.5448 6.86804C19.7962 6.87209 20.0475 6.87577 20.2988 6.87907C20.9125 6.88794 21.5258 6.90141 22.1393 6.91849C21.9325 7.36554 21.6456 7.67323 21.2961 8.01392C21.2141 8.09575 21.2141 8.09575 21.1306 8.17922C20.8751 8.43157 20.6161 8.66736 20.3349 8.8909C20.0102 9.15245 19.7659 9.44614 19.5029 9.76742C19.3007 9.98442 19.1022 10.167 18.8769 10.3579C18.0776 11.0474 17.3479 11.8131 16.6045 12.5614C16.4476 12.7189 16.2907 12.8763 16.1338 13.0337C15.7522 13.4165 15.3711 13.7996 14.9901 14.1829C15.5425 14.8474 16.1348 15.4598 16.7463 16.0698C16.8469 16.1705 16.9475 16.2711 17.0511 16.3749C17.2625 16.5864 17.4741 16.7977 17.6858 17.0089C17.9026 17.2253 18.1193 17.4419 18.3356 17.6588C18.6488 17.9726 18.9623 18.286 19.2759 18.5993C19.4213 18.7451 19.4213 18.7451 19.5697 18.8938C19.6597 18.9835 19.7498 19.0732 19.8426 19.1657C19.9217 19.2447 20.0008 19.3237 20.0823 19.405C20.3049 19.6229 20.3049 19.6229 20.6403 19.8331C20.6403 19.9092 20.6403 19.9853 20.6403 20.0637C20.7054 20.0912 20.7705 20.1188 20.8375 20.1472C21.1588 20.3263 21.3762 20.5423 21.6353 20.8037C21.7403 20.9092 21.8454 21.0146 21.9536 21.1232C22.0673 21.2385 22.181 21.3537 22.2947 21.469C22.412 21.5871 22.5295 21.7051 22.647 21.8231C22.9558 22.1334 23.2639 22.4444 23.5718 22.7555C24.065 23.2536 24.5589 23.751 25.0532 24.248C25.2256 24.4216 25.3976 24.5956 25.5696 24.7696C25.6743 24.875 25.779 24.9804 25.8868 25.0891C25.9789 25.1821 26.071 25.2751 26.1658 25.371C26.4101 25.6156 26.4101 25.6156 26.7516 25.8291C26.7516 25.9052 26.7516 25.9813 26.7516 26.0597C26.8277 26.0597 26.9038 26.0597 26.9822 26.0597C27.1692 26.2534 27.1692 26.2534 27.3786 26.5066C27.6261 26.8049 27.8088 26.9951 28.1353 27.2128C28.1353 27.2889 28.1353 27.365 28.1353 27.4434C28.2114 27.4434 28.2875 27.4434 28.3659 27.4434C28.3659 27.5195 28.3659 27.5956 28.3659 27.6741C28.4349 27.705 28.5039 27.7359 28.5749 27.7677C28.827 27.9046 28.9902 28.0311 29.1731 28.2506C29.1731 28.3267 29.1731 28.4028 29.1731 28.4812C27.2947 28.5001 25.4164 28.5143 23.5379 28.523C22.6656 28.5272 21.7934 28.5329 20.9212 28.5421C20.1607 28.5502 19.4003 28.5554 18.6398 28.5572C18.2373 28.5582 17.8349 28.5607 17.4324 28.5666C16.9825 28.5731 16.5326 28.5732 16.0826 28.5729C15.9501 28.5758 15.8176 28.5787 15.681 28.5816C15.028 28.5758 14.6244 28.5331 14.1219 28.0958C13.9873 27.9564 13.8538 27.8158 13.7217 27.6741C13.5698 27.5446 13.4163 27.4169 13.2605 27.2921C13.0587 27.1277 13.0587 27.1277 12.9146 26.9822C12.9146 26.9061 12.9146 26.83 12.9146 26.7516C12.8131 26.7064 12.8131 26.7064 12.7095 26.6603C12.4381 26.5127 12.2617 26.3564 12.0451 26.1371C11.9674 26.0589 11.8896 25.9808 11.8094 25.9002C11.7264 25.8157 11.6434 25.7311 11.5579 25.644C11.4712 25.5567 11.3844 25.4693 11.2951 25.3793C11.0176 25.0998 10.7409 24.8195 10.4643 24.5391C10.1892 24.2609 9.914 23.9828 9.63842 23.705C9.46713 23.5324 9.29615 23.3594 9.12554 23.186C8.752 22.8089 8.37559 22.4433 7.97263 22.0977C7.43695 21.636 6.94106 21.1371 6.44341 20.635C6.27287 20.463 6.10195 20.2913 5.93094 20.1198C5.50663 19.6939 5.08296 19.2675 4.65926 18.841C4.29981 18.4793 3.94011 18.1178 3.58009 17.7566C3.41329 17.589 3.24685 17.4212 3.08043 17.2533C2.5539 16.7248 2.02261 16.2112 1.45468 15.7273C1.21413 15.5199 0.991949 15.2975 0.771127 15.0694C0.517925 14.808 0.305631 14.6173 0 14.4136C0.181255 13.9687 0.466497 13.7091 0.807161 13.3758C0.923081 13.2596 1.0388 13.1433 1.15435 13.0268C1.49576 12.6833 1.83752 12.3402 2.17941 11.9972C2.32586 11.8502 2.47221 11.703 2.61846 11.5558C2.83193 11.3409 3.04579 11.1264 3.25972 10.912C3.32378 10.8473 3.38783 10.7827 3.45382 10.716C3.78734 10.3825 4.12785 10.0637 4.48519 9.75565C4.98834 9.32014 5.45632 8.85452 5.92399 8.38146C6.01263 8.29238 6.10128 8.2033 6.19261 8.11152C6.4733 7.82943 6.75361 7.54697 7.03383 7.26441C7.40344 6.89172 7.77344 6.51942 8.14368 6.14736C8.22683 6.06326 8.30997 5.97915 8.39564 5.8925C8.77572 5.51061 9.15919 5.14005 9.56753 4.78837C10.086 4.3414 10.5659 3.86011 11.0471 3.37364C11.14 3.28036 11.2328 3.18708 11.3285 3.09097C11.622 2.79601 11.9152 2.50067 12.2083 2.20524C12.5969 1.81364 12.9858 1.42243 13.3749 1.03143C13.4642 0.941239 13.5534 0.851043 13.6453 0.758115C13.7278 0.675312 13.8102 0.592508 13.8951 0.507196C13.9676 0.434094 14.0401 0.360992 14.1148 0.285675C14.5171 -0.087944 14.9487 -0.0157843 15.4672 -0.0139046Z" fill="#CF1738"/>
<path d="M43.1426 3.79132C43.3051 3.7917 43.3051 3.7917 43.4708 3.7921C43.5932 3.79211 43.7155 3.79211 43.8416 3.79212C43.9746 3.79272 44.1077 3.79331 44.2448 3.79393C44.3803 3.79409 44.5158 3.79425 44.6554 3.79442C45.0901 3.79507 45.5249 3.79652 45.9596 3.79798C46.2535 3.79856 46.5474 3.79908 46.8413 3.79956C47.5636 3.80083 48.2858 3.80276 49.0081 3.80519C49.15 4.3731 49.1578 4.94185 49.1788 5.52384C49.1833 5.63849 49.1879 5.75315 49.1925 5.87128C49.2073 6.25067 49.2215 6.63009 49.2356 7.00951C49.2457 7.27489 49.2559 7.54027 49.2661 7.80564C49.2874 8.36299 49.3084 8.92035 49.3292 9.47772C49.3556 10.1863 49.3828 10.8948 49.4102 11.6032C49.4314 12.1523 49.4522 12.7014 49.4728 13.2505C49.4827 13.5113 49.4926 13.7721 49.5027 14.0329C49.5625 15.5828 49.5986 17.1289 49.5846 18.68C50.0254 18.627 50.0254 18.627 50.3404 18.3397C50.4158 18.192 50.4158 18.192 50.4927 18.0413C50.5507 17.9305 50.6087 17.8198 50.6685 17.7057C50.7294 17.5848 50.7903 17.464 50.853 17.3396C50.9866 17.0837 51.1204 16.828 51.2544 16.5725C51.3559 16.3772 51.3559 16.3772 51.4595 16.178C51.7568 15.614 52.0715 15.0606 52.3881 14.5073C53.0756 13.3 53.7468 12.084 54.4142 10.8655C54.4902 10.7273 54.5661 10.589 54.642 10.4508C54.7092 10.3281 54.7763 10.2055 54.8455 10.0792C55.0041 9.80124 55.0041 9.80124 55.1195 9.68593C55.124 9.39869 55.1214 9.11446 55.1145 8.82742C55.1119 8.6465 55.1094 8.46558 55.1071 8.28466C55.1028 8.00057 55.098 7.71656 55.091 7.43251C55.0608 6.13908 55.1714 5.03898 55.5807 3.80519C56.4325 3.80227 57.2843 3.80025 58.1361 3.79885C58.4262 3.79827 58.7162 3.79748 59.0063 3.79649C59.4221 3.7951 59.838 3.79444 60.2538 3.79393C60.4497 3.79303 60.4497 3.79303 60.6495 3.79212C60.8295 3.79211 60.8295 3.79211 61.0132 3.7921C61.1195 3.79184 61.2258 3.79158 61.3352 3.79132C61.5767 3.80519 61.5767 3.80519 61.6921 3.9205C61.7135 4.26125 61.7275 4.59969 61.7369 4.94085C61.7403 5.04815 61.7437 5.15544 61.7472 5.26599C61.7583 5.62419 61.7687 5.98241 61.779 6.34063C61.7865 6.59125 61.7941 6.84188 61.8018 7.0925C61.8177 7.62111 61.8333 8.14973 61.8485 8.67836C61.8679 9.34631 61.8881 10.0142 61.9086 10.6822C62.0725 16.0353 62.0725 16.0353 62.038 18.68C62.2282 18.68 62.4185 18.68 62.6145 18.68C62.6463 18.5788 62.6782 18.4777 62.7109 18.3734C62.835 18.0173 62.9781 17.6952 63.1476 17.3589C63.2081 17.2383 63.2686 17.1176 63.331 16.9933C63.4292 16.7993 63.4292 16.7993 63.5293 16.6013C63.5984 16.4639 63.6674 16.3265 63.7364 16.189C63.9184 15.8264 64.101 15.4641 64.2837 15.1019C64.607 14.4609 64.9296 13.8196 65.2518 13.1781C65.287 13.108 65.3222 13.0379 65.3585 12.9657C65.8829 11.9212 66.3938 10.8709 66.8951 9.81517C67.4135 8.72436 67.9529 7.64444 68.4953 6.56539C68.5921 6.37224 68.689 6.17909 68.7858 5.98592C68.9959 5.56676 69.2063 5.1477 69.4168 4.72874C69.5712 4.42104 69.725 4.11309 69.879 3.80519C72.124 3.80519 74.3691 3.80519 76.6822 3.80519C76.4358 5.16015 76.1441 6.22551 75.5219 7.43021C75.4726 7.52764 75.4234 7.62507 75.3726 7.72546C75.1162 8.22974 74.8548 8.73126 74.5897 9.23099C73.9284 10.4783 73.2868 11.7343 72.6579 12.9982C72.4969 13.3217 72.3356 13.645 72.1742 13.9683C71.8317 14.6547 71.4895 15.3413 71.1474 16.0279C70.75 16.8254 70.3525 17.6228 69.9545 18.42C69.7979 18.734 69.6415 19.0482 69.4852 19.3624C68.9665 20.4027 68.4413 21.4384 67.8884 22.4611C67.399 23.3767 66.9794 24.3082 66.535 25.2526C63.3387 25.2526 60.1423 25.2526 56.8491 25.2526C56.5838 21.4059 56.5838 21.4059 56.5464 20.0853C56.5419 19.9464 56.5375 19.8075 56.5329 19.6644C56.5224 19.3363 56.5125 19.0082 56.5032 18.68C56.351 18.68 56.1987 18.68 56.0419 18.68C56.0119 18.7781 55.9819 18.8761 55.951 18.9772C55.8045 19.3911 55.6242 19.763 55.4217 20.1525C55.3838 20.2256 55.346 20.2987 55.3069 20.3741C55.1849 20.6096 55.0621 20.8448 54.9393 21.0799C54.8554 21.2414 54.7715 21.403 54.6877 21.5646C54.2022 22.4996 53.7141 23.4333 53.2141 24.3607C53.0556 24.6563 52.9197 24.9334 52.8133 25.2526C49.693 25.2526 46.5728 25.2526 43.358 25.2526C43.2913 24.6523 43.2277 24.0739 43.1981 23.4744C43.1912 23.3364 43.1842 23.1985 43.1771 23.0563C43.1664 22.8342 43.1664 22.8342 43.1555 22.6075C43.1475 22.4474 43.1396 22.2872 43.1316 22.127C43.1101 21.6943 43.089 21.2616 43.068 20.8288C43.0503 20.4656 43.0325 20.1024 43.0147 19.7391C42.9725 18.8803 42.9307 18.0215 42.8891 17.1627C42.8465 16.2823 42.8032 15.402 42.7596 14.5216C42.722 13.7616 42.6848 13.0015 42.648 12.2414C42.626 11.7894 42.6039 11.3374 42.5815 10.8854C42.421 7.65534 42.421 7.65534 42.4144 6.33179C42.4136 6.2492 42.4129 6.16662 42.4121 6.08153C42.4231 3.8319 42.4231 3.8319 43.1426 3.79132Z" fill="#CF1738"/>
<path d="M170.737 3.67305C170.866 3.67014 170.996 3.66722 171.129 3.66422C171.554 3.65609 171.979 3.65481 172.404 3.65433C172.702 3.65165 172.999 3.64883 173.297 3.64585C173.919 3.64086 174.542 3.63955 175.164 3.64062C175.881 3.64173 176.597 3.63301 177.313 3.61963C178.006 3.60715 178.699 3.60438 179.392 3.6052C179.685 3.60433 179.978 3.60068 180.271 3.59415C182.675 3.54582 182.675 3.54582 183.358 4.17977C183.669 4.53292 183.915 4.90965 184.142 5.32075C184.327 5.64453 184.553 5.9263 184.783 6.2195C184.864 6.32979 184.944 6.44008 185.027 6.55371C185.238 6.83349 185.453 7.10167 185.678 7.36988C185.774 7.48873 185.774 7.48873 185.872 7.60999C185.998 7.76437 186.126 7.91671 186.257 8.06643C186.578 8.46908 186.728 8.75868 186.676 9.27819C186.553 10.3401 186.291 11.3819 186.054 12.4227C186.001 12.6543 185.949 12.8858 185.896 13.1173C185.787 13.6005 185.676 14.0835 185.565 14.5664C185.423 15.1838 185.285 15.8018 185.147 16.42C185.04 16.8976 184.931 17.3747 184.821 17.8516C184.769 18.0793 184.717 18.3071 184.667 18.5351C184.596 18.8541 184.522 19.1722 184.448 19.4902C184.428 19.5835 184.408 19.6767 184.387 19.7727C184.175 20.6523 183.663 21.2086 182.953 21.7501C182.435 22.152 181.925 22.561 181.417 22.9753C181.198 23.1542 180.979 23.3321 180.755 23.5052C180.529 23.6947 180.338 23.8786 180.137 24.0915C179.04 25.1851 178.023 25.3207 176.512 25.3385C176.227 25.3371 175.943 25.3354 175.658 25.3333C175.361 25.3351 175.065 25.3373 174.768 25.3398C174.149 25.3434 173.53 25.3419 172.911 25.3367C172.199 25.3309 171.487 25.3364 170.775 25.3475C170.085 25.3579 169.395 25.3586 168.704 25.3553C168.413 25.355 168.122 25.3574 167.83 25.3625C165.446 25.398 165.446 25.398 164.764 24.7645C164.455 24.4125 164.211 24.0367 163.983 23.628C163.776 23.273 163.52 22.9644 163.264 22.6438C163.172 22.5234 163.08 22.403 162.985 22.2789C162.786 22.0183 162.585 21.7598 162.382 21.5024C162.303 21.4018 162.303 21.4018 162.222 21.2991C162.076 21.1128 161.929 20.927 161.783 20.7412C161.298 20.056 161.298 20.056 161.338 19.6012C161.391 19.309 161.455 19.0215 161.524 18.7326C161.561 18.5674 161.561 18.5674 161.599 18.3988C161.681 18.0348 161.766 17.6714 161.851 17.3081C161.909 17.0549 161.967 16.8017 162.025 16.5485C162.148 16.0176 162.271 15.4871 162.395 14.9567C162.554 14.2782 162.71 13.5988 162.864 12.9192C162.983 12.3959 163.104 11.8731 163.226 11.3505C163.284 11.1003 163.342 10.8499 163.398 10.5994C163.478 10.2483 163.561 9.89813 163.644 9.54797C163.667 9.44503 163.69 9.34209 163.713 9.23604C163.963 8.21474 164.569 7.63914 165.39 7.02666C165.532 6.91788 165.673 6.80887 165.815 6.69965C165.89 6.64231 165.964 6.58497 166.041 6.5259C166.542 6.13374 167.03 5.72479 167.52 5.31839C167.671 5.19304 167.823 5.06849 167.976 4.94487C168.151 4.7988 168.322 4.6475 168.488 4.49162C169.229 3.82979 169.756 3.66815 170.737 3.67305ZM170.773 10.6084C170.659 10.6845 170.545 10.7606 170.427 10.8391C170.314 11.1333 170.314 11.1333 170.238 11.4875C170.205 11.6234 170.172 11.7593 170.139 11.8993C170.105 12.0469 170.071 12.1945 170.036 12.3466C170 12.4995 169.964 12.6523 169.928 12.8052C169.853 13.1259 169.779 13.4469 169.705 13.768C169.611 14.1782 169.514 14.5877 169.417 14.997C169.342 15.3129 169.269 15.629 169.195 15.9452C169.143 16.1694 169.09 16.3933 169.037 16.6172C168.767 17.7182 168.767 17.7182 169.039 18.788C169.287 19.1579 169.492 19.3406 169.929 19.4472C170.318 19.481 170.699 19.4868 171.089 19.4832C171.231 19.4842 171.374 19.4852 171.52 19.4863C171.898 19.4876 172.276 19.485 172.654 19.4811C173.035 19.4793 173.417 19.4869 173.799 19.4924C174.092 19.4923 174.385 19.4916 174.678 19.4904C174.882 19.4937 174.882 19.4937 175.091 19.4971C175.809 19.483 176.231 19.4111 176.777 18.9249C176.929 18.7669 177.08 18.6085 177.23 18.4494C177.352 18.37 177.352 18.37 177.477 18.289C177.775 18.0316 177.807 17.8092 177.894 17.4277C177.927 17.2888 177.959 17.1498 177.993 17.0067C178.027 16.8549 178.06 16.7031 178.094 16.5513C178.129 16.3955 178.165 16.2397 178.201 16.0839C178.276 15.7575 178.35 15.4308 178.422 15.1039C178.515 14.6856 178.611 14.2679 178.708 13.8504C178.782 13.5287 178.855 13.2068 178.928 12.8847C178.963 12.7306 178.998 12.5766 179.033 12.4227C179.083 12.2072 179.13 11.9912 179.178 11.7753C179.206 11.6527 179.233 11.5301 179.262 11.4037C179.334 10.8603 179.221 10.4622 178.927 10.0038C178.694 9.70947 178.559 9.58797 178.195 9.48333C177.815 9.44631 177.445 9.43979 177.063 9.44409C176.924 9.44293 176.785 9.44177 176.641 9.44058C176.346 9.43945 176.052 9.44067 175.757 9.44406C175.309 9.44811 174.862 9.44177 174.414 9.4344C172.342 9.39359 172.342 9.39359 170.773 10.6084Z" fill="#CF1738"/>
<path d="M78.7551 3.80518C85.2239 3.80518 91.6927 3.80518 98.3576 3.80518C98.0726 5.15877 97.7855 6.5088 97.4711 7.85539C97.4353 8.01109 97.3995 8.16679 97.3637 8.32249C97.3297 8.4683 97.2958 8.61412 97.2608 8.76435C97.2305 8.89473 97.2002 9.0251 97.169 9.15943C97.0892 9.4553 97.0892 9.4553 96.9739 9.57061C96.8105 9.58162 96.6466 9.58467 96.4828 9.58448C96.324 9.58472 96.324 9.58472 96.1619 9.58496C95.9862 9.58434 95.9862 9.58434 95.807 9.5837C95.6844 9.58372 95.5618 9.58374 95.4355 9.58375C95.028 9.58367 94.6206 9.58277 94.2132 9.58187C93.9316 9.58166 93.65 9.58149 93.3683 9.58138C92.6254 9.58094 91.8825 9.5798 91.1396 9.57853C90.3822 9.57735 89.6248 9.57682 88.8673 9.57624C87.38 9.575 85.8926 9.57306 84.4052 9.57061C84.3933 9.69666 84.3814 9.82271 84.3692 9.95257C84.2793 10.5654 84.1069 11.1639 83.944 11.7615C86.9881 11.7615 90.0323 11.7615 93.1687 11.7615C93.0389 12.7994 93.0389 12.7994 92.9574 13.1555C92.9393 13.2355 92.9212 13.3155 92.9026 13.3979C92.8834 13.4807 92.8642 13.5635 92.8444 13.6488C92.8243 13.7365 92.8043 13.8242 92.7836 13.9146C92.7416 14.0982 92.6993 14.2817 92.6569 14.4652C92.5918 14.7466 92.5275 15.0283 92.4633 15.3099C92.4222 15.4889 92.3811 15.6679 92.3399 15.8468C92.3111 15.9731 92.3111 15.9731 92.2816 16.102C92.1442 16.6931 92.1442 16.6931 92.0156 16.9504C88.9334 16.9504 85.8512 16.9504 82.6756 16.9504C82.6375 17.2928 82.5995 17.6353 82.5603 17.9881C82.4461 18.4448 82.332 18.9014 82.2143 19.3719C86.4381 19.3719 90.6619 19.3719 95.0136 19.3719C94.8839 20.4097 94.8839 20.4097 94.7918 20.8064C94.7612 20.9396 94.7612 20.9396 94.73 21.0756C94.7082 21.1681 94.6865 21.2607 94.6641 21.356C94.6415 21.4537 94.6189 21.5514 94.5956 21.652C94.5481 21.8568 94.5004 22.0616 94.4525 22.2663C94.3792 22.5799 94.3065 22.8936 94.2339 23.2074C94.1876 23.4071 94.1412 23.6067 94.0947 23.8063C94.073 23.9 94.0513 23.9937 94.0289 24.0902C93.9458 24.4446 93.8604 24.7917 93.7452 25.1373C87.2003 25.1373 80.6554 25.1373 73.9121 25.1373C74.0418 23.9698 74.0418 23.9698 74.1339 23.5774C74.1547 23.4875 74.1755 23.3977 74.1969 23.3051C74.2195 23.2103 74.242 23.1154 74.2653 23.0177C74.2894 22.9143 74.3134 22.811 74.3382 22.7045C74.418 22.3628 74.4986 22.0213 74.5792 21.6798C74.6362 21.4365 74.6931 21.1932 74.7499 20.9498C74.8709 20.4325 74.9922 19.9154 75.1138 19.3983C75.3035 18.5918 75.4924 17.7851 75.6812 16.9784C75.8709 16.1675 76.0608 15.3566 76.2508 14.5457C76.7789 12.293 77.3027 10.0394 77.8243 7.78516C77.9566 7.21345 78.0889 6.64175 78.2213 6.07006C78.2863 5.78953 78.3512 5.50899 78.4161 5.22844C78.4442 5.10707 78.4723 4.9857 78.5012 4.86066C78.5254 4.75617 78.5496 4.65167 78.5745 4.54401C78.6325 4.29721 78.6936 4.05113 78.7551 3.80518Z" fill="#CF1738"/>
<path d="M141.598 3.80518C143.957 3.80518 146.316 3.80518 148.747 3.80518C148.596 4.70976 148.435 5.59077 148.224 6.48C148.195 6.60074 148.167 6.72148 148.138 6.84588C148.077 7.10525 148.016 7.36458 147.955 7.62387C147.858 8.03428 147.762 8.44484 147.666 8.85545C147.393 10.0219 147.119 11.1882 146.844 12.3541C146.675 13.0695 146.508 13.7851 146.341 14.5009C146.277 14.7731 146.213 15.0452 146.148 15.3173C146.058 15.6964 145.97 16.0759 145.882 16.4556C145.841 16.6239 145.841 16.6239 145.8 16.7956C145.764 16.9509 145.764 16.9509 145.728 17.1094C145.707 17.1989 145.686 17.2884 145.664 17.3807C145.608 17.8608 145.694 18.1468 145.987 18.5287C146.097 18.6607 146.097 18.6607 146.21 18.7953C146.21 18.8714 146.21 18.9475 146.21 19.0259C146.877 19.0352 147.543 19.0375 148.21 19.0337C148.436 19.0333 148.662 19.0348 148.888 19.0382C150.43 19.084 150.43 19.084 151.815 18.4922C152.219 18.0593 152.405 17.715 152.543 17.1412C152.562 17.0675 152.58 16.9938 152.599 16.9178C152.662 16.66 152.722 16.4017 152.783 16.1432C152.831 15.9398 152.88 15.7365 152.929 15.5332C153.098 14.8202 153.264 14.1064 153.429 13.3925C153.49 13.1298 153.551 12.8671 153.613 12.6044C153.772 11.9182 153.931 11.232 154.091 10.5457C154.285 9.70891 154.479 8.87221 154.674 8.03549C154.825 7.38539 154.976 6.73527 155.127 6.08511C155.155 5.96607 155.182 5.84704 155.211 5.7244C155.262 5.50237 155.314 5.28034 155.365 5.0583C155.4 4.9112 155.4 4.9112 155.434 4.76113C155.454 4.67621 155.474 4.5913 155.494 4.50382C155.549 4.27046 155.607 4.03781 155.666 3.80518C158.025 3.80518 160.384 3.80518 162.815 3.80518C162.253 6.47095 161.684 9.13433 161.091 11.7933C160.902 12.6422 160.716 13.4915 160.535 14.3422C160.375 15.0912 160.211 15.8391 160.042 16.586C159.953 16.9791 159.867 17.3724 159.785 17.7671C159.201 20.5923 159.201 20.5923 158.182 21.3329C157.925 21.4989 157.664 21.6451 157.395 21.7933C157.21 21.9373 157.027 22.0846 156.849 22.2379C156.772 22.302 156.695 22.366 156.615 22.432C156.539 22.4947 156.464 22.5575 156.386 22.6221C155.061 23.7188 155.061 23.7188 154.555 24.1054C154.28 24.3202 154.28 24.3202 154.067 24.5696C153.43 25.2227 152.858 25.3383 151.982 25.3573C151.519 25.3605 151.057 25.3522 150.595 25.3427C150.348 25.341 150.102 25.3397 149.855 25.3387C149.209 25.3352 148.564 25.3262 147.918 25.3159C147.258 25.3065 146.598 25.3023 145.938 25.2976C144.645 25.2878 143.352 25.2721 142.059 25.2526C141.946 25.0519 141.833 24.8512 141.721 24.6505C141.552 24.3683 141.35 24.1257 141.137 23.8761C140.636 23.2765 140.163 22.66 139.7 22.0309C139.419 21.6503 139.135 21.2775 138.828 20.9173C138.774 20.8521 138.719 20.7869 138.663 20.7197C138.516 20.544 138.366 20.3706 138.216 20.1975C137.782 19.3764 138.267 18.1643 138.469 17.3015C138.503 17.1551 138.537 17.0087 138.572 16.8579C138.663 16.4595 138.756 16.0613 138.849 15.6631C138.946 15.2459 139.042 14.8285 139.139 14.4111C139.321 13.622 139.504 12.8331 139.688 12.0442C139.935 10.9773 140.182 9.91013 140.429 8.84299C140.818 7.16354 141.208 5.48438 141.598 3.80518Z" fill="#CF1738"/>
<path d="M100.571 3.79099C100.741 3.79115 100.741 3.79115 100.914 3.79131C101.108 3.79108 101.108 3.79108 101.305 3.79083C101.52 3.79145 101.52 3.79145 101.739 3.79209C101.963 3.79206 101.963 3.79206 102.192 3.79204C102.603 3.792 103.015 3.79268 103.426 3.79349C103.856 3.79421 104.285 3.79428 104.715 3.79441C105.529 3.79477 106.342 3.79572 107.156 3.79687C108.083 3.79816 109.009 3.7988 109.935 3.79938C111.842 3.80058 113.748 3.80261 115.654 3.80518C115.618 4.00622 115.581 4.20723 115.545 4.40823C115.525 4.52017 115.505 4.63211 115.484 4.74744C115.403 5.18242 115.305 5.61249 115.203 6.04289C115.173 6.1695 115.173 6.1695 115.143 6.29866C115.101 6.47424 115.06 6.64978 115.018 6.82528C114.954 7.09409 114.891 7.36303 114.827 7.63199C114.787 7.80376 114.746 7.97552 114.706 8.14727C114.677 8.26726 114.677 8.26726 114.648 8.38967C114.572 8.71185 114.49 9.02558 114.385 9.34C112.977 9.34 111.569 9.34 110.119 9.34C110.081 9.68247 110.043 10.0249 110.004 10.3778C109.941 10.6934 109.875 11.0047 109.802 11.3176C109.782 11.4051 109.762 11.4926 109.741 11.5827C109.675 11.8681 109.609 12.1533 109.542 12.4385C109.496 12.6381 109.45 12.8377 109.404 13.0373C109.308 13.4537 109.211 13.8699 109.114 14.2861C108.99 14.8201 108.867 15.3544 108.743 15.8886C108.648 16.2999 108.553 16.7111 108.458 17.1222C108.412 17.3193 108.367 17.5164 108.321 17.7135C108.258 17.9879 108.194 18.2622 108.13 18.5365C108.111 18.6182 108.092 18.6998 108.073 18.7839C107.941 19.3455 107.941 19.3455 107.813 19.6025C109.183 19.6025 110.552 19.6025 111.964 19.6025C111.834 20.6405 111.834 20.6405 111.742 21.0407C111.711 21.175 111.711 21.175 111.68 21.3121C111.648 21.452 111.648 21.452 111.614 21.5947C111.58 21.7421 111.58 21.7421 111.546 21.8924C111.498 22.0982 111.451 22.3039 111.403 22.5095C111.329 22.8257 111.257 23.142 111.184 23.4583C111.138 23.6587 111.091 23.8591 111.045 24.0594C111.023 24.1543 111.001 24.2492 110.979 24.3469C110.824 25.0087 110.824 25.0087 110.695 25.1373C110.497 25.1484 110.298 25.1514 110.099 25.1512C109.97 25.1513 109.841 25.1515 109.708 25.1516C109.493 25.151 109.493 25.151 109.275 25.1504C109.05 25.1504 109.05 25.1504 108.821 25.1504C108.41 25.1505 107.998 25.1498 107.587 25.149C107.157 25.1483 106.728 25.1482 106.298 25.1481C105.484 25.1477 104.671 25.1468 103.857 25.1456C102.93 25.1443 102.004 25.1437 101.078 25.1431C99.1716 25.1419 97.2655 25.1399 95.3594 25.1373C95.4321 24.7711 95.505 24.4049 95.578 24.0388C95.5984 23.9361 95.6187 23.8334 95.6398 23.7276C95.8083 22.8823 95.9923 22.0418 96.1882 21.2024C96.2181 21.0717 96.2481 20.9411 96.2789 20.8065C96.4976 19.8628 96.4976 19.8628 96.6278 19.6025C97.9976 19.5644 99.3675 19.5264 100.779 19.4872C101.54 16.1767 102.301 12.8661 103.085 9.45531C101.087 9.39823 101.087 9.39823 99.0493 9.34C99.179 8.1723 99.179 8.1723 99.2711 7.78401C99.2915 7.69673 99.3119 7.60946 99.3329 7.51954C99.3546 7.42941 99.3764 7.33928 99.3988 7.24642C99.4327 7.10315 99.4327 7.10315 99.4673 6.95698C99.5146 6.75731 99.5623 6.55772 99.6103 6.35819C99.684 6.05148 99.7565 5.74452 99.8289 5.43752C99.8753 5.24292 99.9217 5.04834 99.9681 4.85377C99.9899 4.76177 100.012 4.66978 100.034 4.575C100.219 3.81071 100.219 3.81071 100.571 3.79099Z" fill="#CF1738"/>
<path d="M117.155 3.80518C124.499 3.80518 131.843 3.80518 139.41 3.80518C139.28 4.84295 139.28 4.84295 139.175 5.27694C139.152 5.37515 139.129 5.47337 139.105 5.57456C139.08 5.67441 139.056 5.77425 139.031 5.87713C139.008 5.9714 138.986 6.06568 138.963 6.16281C138.879 6.51093 138.795 6.85885 138.711 7.20678C138.523 7.98685 138.335 8.76691 138.141 9.57061C135.63 9.60866 133.118 9.64672 130.531 9.68592C129.351 14.7849 128.172 19.8838 126.956 25.1373C124.635 25.1373 122.314 25.1373 119.923 25.1373C120.182 23.5806 120.182 23.5806 120.303 23.0591C120.33 22.9401 120.357 22.8211 120.385 22.6986C120.415 22.5734 120.444 22.4483 120.474 22.3194C120.505 22.1835 120.537 22.0475 120.569 21.9075C120.654 21.5394 120.739 21.1714 120.825 20.8035C120.914 20.4169 121.004 20.0303 121.093 19.6436C121.243 18.9959 121.393 18.3483 121.544 17.7008C121.718 16.9521 121.891 16.2032 122.064 15.4543C122.231 14.7321 122.398 14.0099 122.566 13.2878C122.637 12.9809 122.708 12.6741 122.779 12.3672C122.878 11.9402 122.977 11.5132 123.076 11.0862C123.105 10.9588 123.135 10.8313 123.165 10.7C123.192 10.5843 123.219 10.4686 123.247 10.3493C123.27 10.2485 123.294 10.1476 123.318 10.0436C123.382 9.80123 123.382 9.80123 123.497 9.57061C120.986 9.57061 118.474 9.57061 115.887 9.57061C116.21 7.62962 116.702 5.71997 117.155 3.80518Z" fill="#CF1738"/>
</g>
<defs>
<clipPath id="clip0_97_7212">
<rect width="186.685" height="28.4813" fill="white"/>
</clipPath>
</defs>
</svg>
