<svg width="1440" height="34" viewBox="0 0 1440 34" fill="none" xmlns="http://www.w3.org/2000/svg">
<path d="M1426 10.3561L1440 14.4985L1440 33.5001L0 33.5L2.79286e-06 1.5534L12.0042 4.14239L22.5078 1.5534L64.5223 1.55341L80.0277 4.1424L100.035 4.1424L108.037 7.767L122.042 4.1424L133.046 4.1424L143.05 7.76701L157.054 7.76701L168.058 4.14241L177.061 7.76701L193.067 8.80261L212.074 7.76701L227.579 8.80261L243.084 14.4984L272.094 7.76702L284.599 8.80262L311.608 8.80262L319.111 10.356L329.614 7.76702L343.619 7.76702L352.122 4.14242L362.126 4.14242L374.13 7.76703L392.636 3.05069e-05L410.643 4.14243L430.149 3.37864e-05L445.155 4.14243L457.659 4.14243L478.166 4.14243L485.669 7.76704L500.174 7.76704L520.681 4.14244L528.183 4.14244L533.685 7.76704L548.69 7.76704L561.195 8.80264L562.695 7.76704L568.197 10.8738L592.206 7.76705L597.708 7.76705L610.212 7.76705L622.716 4.14245L636.721 4.14245L659.229 4.14245C666.431 7.04213 678.902 5.35065 684.238 4.14245C690.24 5.35065 702.744 7.76706 704.745 7.76706L713.248 7.76706C714.048 7.76706 719.25 5.35065 721.751 4.14245L748.76 10.356L755.262 7.76706L776.77 10.3561L776.77 6.21366L807.28 10.3561L821.785 10.3561L831.289 10.3561L844.293 16.0519L885.808 16.0519L899.312 10.3561L907.815 10.3561L923.821 10.3561L933.324 10.3561C936.825 12.2547 944.528 16.0519 947.329 16.0519C950.13 16.0519 958.499 12.2547 962.334 10.3561L981.341 10.3561C984.675 13.9807 993.545 20.1943 1002.35 16.0519C1011.15 11.9095 1023.69 10.5287 1028.86 10.3561L1035.36 5.17808C1038.19 6.90408 1044.76 10.3561 1048.36 10.3561C1051.97 10.3561 1057.2 6.90408 1059.37 5.17808C1060.7 3.62468 1066.17 1.44993 1077.37 5.17808C1088.58 8.90624 1100.38 6.73148 1104.88 5.17809L1116.39 5.17809L1126.89 5.17809L1132.89 5.17809L1158.4 10.3561L1184.91 10.3561L1196.92 10.3561L1210.92 5.1781L1236.93 5.1781L1258.44 5.1781L1276.94 5.1781L1302.45 10.3561L1308.45 0.517902L1321.46 0.517903L1344.97 5.17811L1359.97 5.17811L1378.48 5.17811C1381.68 5.17811 1394.15 8.63011 1399.99 10.3561L1417.49 14.4985L1426 18.1231L1426 10.3561Z" fill="#002308"/>
</svg>
