<svg width="742" height="248" viewBox="0 0 742 248" fill="none" xmlns="http://www.w3.org/2000/svg">
<g opacity="0.02">
<path d="M130.63 97.7909C138.013 100.918 144.523 104.992 150.014 110.192C152.196 112.229 154.123 114.447 155.942 116.774C159.397 111.428 163.506 105.428 168.379 98.6637L239.513 0H199.437L147.141 73.8977C140.74 82.6258 135.322 90.5175 130.667 97.7909" fill="white"/>
<path d="M232.349 122.194C242.677 132.304 247.878 145.832 247.878 162.815C247.878 165.688 247.659 168.452 247.369 171.18H282.026C282.244 168.234 282.39 165.216 282.39 162.125C282.39 136.777 274.935 116.338 260.061 100.773C245.186 85.2083 225.076 77.4258 199.728 77.4258L177.762 107.065H190.672C208.129 107.065 221.984 112.12 232.313 122.23L232.349 122.194Z" fill="white"/>
<path d="M6.21875 0.364746H110.81C135.212 0.364746 147.432 9.12919 147.432 26.6217C147.432 36.1862 143.577 44.6961 135.94 52.1514L84.6987 100.083C110.265 100.083 129.903 106.556 143.613 119.539C157.324 132.486 164.197 150.779 164.197 174.344C164.197 197.91 156.742 215.766 141.868 229.877C126.994 243.987 107.719 251.042 84.0078 251.042H0V217.548H73.5704C91.463 217.548 105.173 213.621 114.702 205.766C124.23 197.91 128.994 186.782 128.994 172.417C128.994 158.998 124.521 148.269 115.574 140.305C106.628 132.304 94.4815 128.304 79.1346 128.304H34.5123V105.356L113.32 32.0768H6.29149V0.364746H6.21875Z" fill="white"/>
<path d="M220.639 251.041V221.656C220.639 215.365 218.893 210.346 215.402 206.6C211.911 202.854 207.365 201 201.801 201C196.237 201 191.763 202.854 188.199 206.6C184.599 210.346 182.817 215.256 182.817 221.292C182.817 227.329 184.635 232.421 188.236 236.276C191.873 240.131 196.528 242.058 202.273 242.058C207.365 242.058 212.311 240.276 217.075 236.676L212.893 249.913C209.874 251.259 205.91 251.95 201.073 251.95C193.291 251.95 186.599 249.222 181.035 243.695C175.144 237.876 172.198 230.493 172.198 221.474C172.198 212.455 174.998 205.364 180.562 199.618C186.127 193.872 193.182 191.035 201.692 191.035C207.438 191.035 212.602 192.417 217.22 195.217C221.839 198.018 225.403 201.909 227.949 206.928C229.294 209.619 230.167 212.455 230.567 215.328C230.967 218.238 231.149 221.874 231.149 226.238V250.968H220.639V251.041Z" fill="white"/>
<path d="M280.935 201.944H260.388C257.442 201.944 255.369 202.526 254.169 203.726C252.969 204.926 252.387 206.963 252.387 209.8V251.003H241.768V211.363C241.768 204.454 243.005 199.471 245.478 196.489C247.951 193.507 252.315 192.016 258.606 192.016H280.935V201.908V201.944Z" fill="white"/>
<path d="M289.991 277.77V226.02C289.991 221.183 290.136 217.474 290.464 214.928C290.791 212.382 291.7 209.691 293.228 206.818C295.773 201.799 299.374 197.872 304.028 194.999C308.683 192.126 313.884 190.708 319.594 190.708C328.103 190.708 335.159 193.581 340.796 199.363C346.396 205.145 349.196 212.491 349.196 221.401C349.196 230.311 346.396 237.112 340.796 242.967C335.195 248.822 328.285 251.731 320.066 251.731C317.666 251.731 315.52 251.55 313.629 251.186C311.702 250.822 309.92 250.349 308.247 249.695L304.065 236.457C309.011 240.021 313.957 241.84 318.975 241.84C324.612 241.84 329.267 239.985 332.94 236.239C336.613 232.493 338.432 227.62 338.432 221.547C338.432 215.473 336.65 210.237 333.122 206.454C329.594 202.672 324.976 200.781 319.339 200.781C313.702 200.781 309.338 202.672 305.774 206.454C302.21 210.237 300.465 215.219 300.465 221.401V277.77H289.954H289.991Z" fill="white"/>
<path d="M386.218 191.107C394.4 191.107 401.456 194.162 407.274 200.271C413.093 206.381 416.039 213.473 416.039 221.619C416.039 229.765 413.166 237.184 407.384 243.221C401.601 249.258 394.546 252.24 386.182 252.24C377.817 252.24 370.871 249.221 365.125 243.221C359.343 237.184 356.47 230.02 356.47 221.619C356.47 213.218 359.343 206.272 365.125 200.199C370.907 194.125 377.926 191.107 386.182 191.107H386.218ZM386.218 200.999C380.981 200.999 376.544 202.963 372.98 206.854C369.416 210.781 367.598 215.655 367.598 221.473C367.598 227.292 369.38 232.093 372.98 236.093C376.581 240.093 380.981 242.093 386.218 242.093C391.455 242.093 395.928 240.13 399.601 236.238C403.274 232.311 405.092 227.401 405.092 221.51C405.092 215.618 403.274 210.818 399.601 206.89C395.928 202.963 391.491 201.035 386.218 201.035V200.999Z" fill="white"/>
<path d="M423.348 221.475C423.348 213.329 426.221 206.237 432.004 200.164C437.786 194.091 444.805 191.072 453.06 191.072C457.824 191.072 462.261 192.163 466.37 194.345C470.48 196.527 474.153 199.764 477.426 204.092L469.68 211.62C468.08 208.347 465.789 205.765 462.807 203.873C459.824 201.946 456.588 201 453.06 201C447.896 201 443.459 202.964 439.823 206.928C436.186 210.892 434.331 215.765 434.331 221.584C434.331 227.403 436.15 232.094 439.823 236.058C443.496 240.022 447.896 242.059 453.06 242.059C456.879 242.059 460.297 240.968 463.316 238.786C465.934 236.931 468.043 234.385 469.644 231.185L478.008 238.386C475.535 242.313 472.298 245.477 468.334 247.878C463.643 250.751 458.552 252.205 453.06 252.205C444.769 252.205 437.75 249.187 432.004 243.186C426.221 237.149 423.348 229.912 423.348 221.475Z" fill="white"/>
<path d="M532.595 251.041V221.656C532.595 215.365 530.849 210.346 527.358 206.6C523.867 202.854 519.321 201 513.757 201C508.193 201 503.72 202.854 500.156 206.6C496.555 210.346 494.773 215.256 494.773 221.292C494.773 227.329 496.592 232.421 500.192 236.276C503.829 240.131 508.484 242.058 514.23 242.058C519.321 242.058 524.267 240.276 529.031 236.676L524.849 249.913C521.83 251.259 517.866 251.95 513.03 251.95C505.247 251.95 498.556 249.222 492.991 243.695C487.1 237.876 484.154 230.493 484.154 221.474C484.154 212.455 486.954 205.364 492.519 199.618C498.083 193.872 505.138 191.035 513.648 191.035C519.394 191.035 524.558 192.417 529.177 195.217C533.795 198.018 537.359 201.909 539.905 206.928C541.25 209.619 542.123 212.455 542.523 215.328C542.923 218.238 543.105 221.874 543.105 226.238V250.968H532.595V251.041Z" fill="white"/>
<path d="M601.838 251.04V217C601.838 212.236 600.565 208.418 598.019 205.545C595.474 202.672 592.091 201.253 587.873 201.253C583.654 201.253 580.381 202.672 577.836 205.545C575.29 208.418 574.017 212.236 574.017 217V233.22C574.017 238.566 572.053 242.857 568.162 246.13C564.271 249.403 558.816 251.04 551.797 251.04V240.421C555.47 240.421 558.234 239.73 560.161 238.384C562.452 236.784 563.616 234.275 563.616 230.856V219.037C563.616 210.2 565.798 203.326 570.126 198.453C574.453 193.544 580.381 191.107 587.873 191.107C595.364 191.107 601.292 193.544 605.656 198.38C610.02 203.217 612.239 210.091 612.239 218.928V251.04H601.838Z" fill="white"/>
<path d="M652.097 191.107C660.28 191.107 667.335 194.162 673.154 200.271C679.009 206.381 681.918 213.473 681.918 221.619C681.918 229.765 679.045 237.184 673.263 243.221C667.48 249.258 660.425 252.24 652.061 252.24C643.696 252.24 636.75 249.221 631.004 243.221C625.222 237.184 622.349 230.02 622.349 221.619C622.349 213.218 625.222 206.272 631.004 200.199C636.787 194.125 643.805 191.107 652.061 191.107H652.097ZM652.097 200.999C646.86 200.999 642.423 202.963 638.86 206.854C635.259 210.781 633.477 215.655 633.477 221.473C633.477 227.292 635.259 232.093 638.86 236.093C642.423 240.093 646.86 242.093 652.097 242.093C657.334 242.093 661.807 240.13 665.48 236.238C669.153 232.347 670.972 227.401 670.972 221.51C670.972 215.618 669.153 210.818 665.48 206.89C661.807 202.963 657.37 201.035 652.097 201.035V200.999Z" fill="white"/>
<path d="M691.992 192.053H702.393V213.437H731.632V192.053H742.033V251.04H731.632V223.328H702.393V251.04H691.992V192.053Z" fill="white"/>
</g>
</svg>
