<svg width="157" height="59" viewBox="0 0 157 59" fill="none" xmlns="http://www.w3.org/2000/svg">
<path d="M27.6389 20.6907C29.2009 21.3524 30.5782 22.2142 31.7401 23.3145C32.2018 23.7454 32.6096 24.2148 32.9943 24.7073C33.7253 23.5762 34.5948 22.3066 35.6259 20.8754L50.6765 0H42.197L31.1323 15.6354C29.778 17.4821 28.6315 19.1518 27.6466 20.6907" fill="white"/>
<path d="M49.1606 25.8538C51.3459 27.9929 52.4462 30.8553 52.4462 34.4487C52.4462 35.0566 52.4 35.6413 52.3385 36.2184H59.6714C59.7176 35.5952 59.7484 34.9565 59.7484 34.3025C59.7484 28.9394 58.171 24.615 55.0239 21.3217C51.8768 18.0285 47.6217 16.3818 42.2586 16.3818L37.6111 22.6529H40.3427C44.0361 22.6529 46.9677 23.7225 49.1529 25.8615L49.1606 25.8538Z" fill="white"/>
<path d="M1.31577 0.0771484H23.4454C28.6084 0.0771484 31.1938 1.93154 31.1938 5.63263C31.1938 7.6563 30.3782 9.45683 28.7623 11.0342L17.9206 21.1757C23.3299 21.1757 27.485 22.5453 30.3859 25.2923C33.2867 28.0315 34.741 31.9019 34.741 36.888C34.741 41.8741 33.1636 45.6521 30.0165 48.6376C26.8694 51.6231 22.7913 53.1158 17.7745 53.1158H0V46.0291H15.5661C19.3518 46.0291 22.2527 45.1981 24.2687 43.5361C26.2846 41.8741 27.2926 39.5195 27.2926 36.4802C27.2926 33.6409 26.3462 31.371 24.4533 29.6859C22.5605 27.993 19.9905 27.1466 16.7434 27.1466H7.30215V22.2914L23.9763 6.78681H1.33116V0.0771484H1.31577Z" fill="white"/>
<path d="M46.6829 53.1155V46.8983C46.6829 45.5671 46.3136 44.5053 45.5749 43.7127C44.8362 42.9202 43.8744 42.5277 42.6972 42.5277C41.5199 42.5277 40.5735 42.9202 39.8194 43.7127C39.0576 44.5053 38.6806 45.544 38.6806 46.8213C38.6806 48.0986 39.0653 49.1759 39.8271 49.9915C40.5965 50.8071 41.5814 51.2149 42.7972 51.2149C43.8744 51.2149 44.9209 50.8379 45.9289 50.0761L45.044 52.8769C44.4053 53.1616 43.5666 53.3078 42.5433 53.3078C40.8966 53.3078 39.4808 52.7307 38.3036 51.5612C37.057 50.33 36.4338 48.768 36.4338 46.8598C36.4338 44.9515 37.0263 43.4511 38.2035 42.2354C39.3808 41.0196 40.8735 40.4194 42.6741 40.4194C43.8898 40.4194 44.9824 40.7118 45.9597 41.3043C46.9369 41.8968 47.6909 42.7201 48.2296 43.782C48.5143 44.3514 48.6989 44.9515 48.7836 45.5594C48.8682 46.175 48.9067 46.9444 48.9067 47.8678V53.1001H46.6829V53.1155Z" fill="white"/>
<path d="M59.4406 42.7276H55.0931C54.4699 42.7276 54.0313 42.8507 53.7774 43.1046C53.5234 43.3585 53.4003 43.7894 53.4003 44.3896V53.1075H51.1535V44.7205C51.1535 43.2585 51.4151 42.2043 51.9384 41.5734C52.4616 40.9424 53.3849 40.627 54.7161 40.627H59.4406V42.7199V42.7276Z" fill="white"/>
<path d="M61.3565 58.7709V47.8215C61.3565 46.7981 61.3873 46.0133 61.4565 45.4747C61.5258 44.9361 61.7182 44.3667 62.0413 43.7588C62.5799 42.6969 63.3417 41.8659 64.3266 41.2581C65.3115 40.6502 66.4118 40.3501 67.6199 40.3501C69.4204 40.3501 70.9132 40.958 72.1058 42.1814C73.2908 43.4048 73.8833 44.9591 73.8833 46.8443C73.8833 48.7295 73.2908 50.1684 72.1058 51.4072C70.9209 52.646 69.4589 53.2616 67.7199 53.2616C67.2121 53.2616 66.7581 53.2231 66.358 53.1462C65.9502 53.0692 65.5731 52.9692 65.2192 52.8307L64.3343 50.0299C65.3808 50.7839 66.4272 51.1687 67.4891 51.1687C68.6817 51.1687 69.6667 50.7762 70.4438 49.9837C71.221 49.1912 71.6057 48.1601 71.6057 46.8751C71.6057 45.5901 71.2286 44.4821 70.4823 43.6818C69.7359 42.8816 68.7587 42.4815 67.566 42.4815C66.3734 42.4815 65.45 42.8816 64.696 43.6818C63.9419 44.4821 63.5725 45.5362 63.5725 46.8443V58.7709H61.3488H61.3565Z" fill="white"/>
<path d="M81.7163 40.4346C83.4476 40.4346 84.9404 41.0809 86.1715 42.3736C87.4026 43.6663 88.0259 45.1667 88.0259 46.8903C88.0259 48.6139 87.418 50.1836 86.1946 51.4609C84.9711 52.7382 83.4784 53.3691 81.7086 53.3691C79.9389 53.3691 78.4692 52.7305 77.2535 51.4609C76.03 50.1836 75.4222 48.6678 75.4222 46.8903C75.4222 45.1129 76.03 43.6432 77.2535 42.3582C78.4769 41.0732 79.962 40.4346 81.7086 40.4346H81.7163ZM81.7163 42.5275C80.6083 42.5275 79.6696 42.943 78.9155 43.7663C78.1614 44.5973 77.7767 45.6284 77.7767 46.8595C77.7767 48.0907 78.1537 49.1063 78.9155 49.9528C79.6773 50.7992 80.6083 51.2224 81.7163 51.2224C82.8244 51.2224 83.7708 50.8068 84.5479 49.9835C85.3251 49.1525 85.7098 48.1138 85.7098 46.8672C85.7098 45.6207 85.3251 44.605 84.5479 43.774C83.7708 42.943 82.832 42.5352 81.7163 42.5352V42.5275Z" fill="white"/>
<path d="M89.5724 46.8599C89.5724 45.1363 90.1803 43.6359 91.4037 42.3509C92.6272 41.0659 94.1122 40.4272 95.8589 40.4272C96.8669 40.4272 97.8056 40.6581 98.6751 41.1198C99.5446 41.5814 100.322 42.2662 101.014 43.1819L99.3753 44.7747C99.0368 44.0822 98.552 43.5359 97.921 43.1357C97.2901 42.7279 96.6053 42.5279 95.8589 42.5279C94.7663 42.5279 93.8275 42.9434 93.0581 43.7821C92.2886 44.6208 91.8962 45.6519 91.8962 46.883C91.8962 48.1141 92.2809 49.1067 93.0581 49.9454C93.8352 50.7841 94.7663 51.215 95.8589 51.215C96.6668 51.215 97.3901 50.9842 98.0288 50.5225C98.5828 50.1301 99.0291 49.5915 99.3676 48.9144L101.137 50.4379C100.614 51.2689 99.9293 51.9383 99.0906 52.4462C98.098 53.054 97.0208 53.3618 95.8589 53.3618C94.1045 53.3618 92.6195 52.7232 91.4037 51.4536C90.1803 50.1763 89.5724 48.645 89.5724 46.8599Z" fill="white"/>
<path d="M112.687 53.1155V46.8983C112.687 45.5671 112.318 44.5053 111.579 43.7127C110.84 42.9202 109.878 42.5277 108.701 42.5277C107.524 42.5277 106.577 42.9202 105.823 43.7127C105.062 44.5053 104.685 45.544 104.685 46.8213C104.685 48.0986 105.069 49.1759 105.831 49.9915C106.601 50.8071 107.585 51.2149 108.801 51.2149C109.878 51.2149 110.925 50.8379 111.933 50.0761L111.048 52.8769C110.409 53.1616 109.571 53.3078 108.547 53.3078C106.901 53.3078 105.485 52.7307 104.308 51.5612C103.061 50.33 102.438 48.768 102.438 46.8598C102.438 44.9515 103.03 43.4511 104.208 42.2354C105.385 41.0196 106.878 40.4194 108.678 40.4194C109.894 40.4194 110.986 40.7118 111.964 41.3043C112.941 41.8968 113.695 42.7201 114.234 43.782C114.518 44.3514 114.703 44.9515 114.788 45.5594C114.872 46.175 114.911 46.9444 114.911 47.8678V53.1001H112.687V53.1155Z" fill="white"/>
<path d="M127.337 53.1152V45.9131C127.337 44.9051 127.068 44.0972 126.529 43.4893C125.991 42.8814 125.275 42.5814 124.383 42.5814C123.49 42.5814 122.798 42.8814 122.259 43.4893C121.72 44.0972 121.451 44.9051 121.451 45.9131V49.3449C121.451 50.476 121.036 51.3839 120.212 52.0765C119.389 52.769 118.235 53.1152 116.75 53.1152V50.8684C117.527 50.8684 118.112 50.7222 118.519 50.4375C119.004 50.099 119.25 49.568 119.25 48.8447V46.344C119.25 44.4742 119.712 43.0199 120.628 41.9889C121.543 40.9501 122.798 40.4346 124.383 40.4346C125.968 40.4346 127.222 40.9501 128.145 41.9735C129.069 42.9969 129.538 44.4511 129.538 46.3209V53.1152H127.337Z" fill="white"/>
<path d="M137.971 40.4346C139.703 40.4346 141.195 41.0809 142.426 42.3736C143.665 43.6663 144.281 45.1667 144.281 46.8903C144.281 48.6139 143.673 50.1836 142.45 51.4609C141.226 52.7382 139.733 53.3691 137.964 53.3691C136.194 53.3691 134.724 52.7305 133.508 51.4609C132.285 50.1836 131.677 48.6678 131.677 46.8903C131.677 45.1129 132.285 43.6432 133.508 42.3582C134.732 41.0732 136.217 40.4346 137.964 40.4346H137.971ZM137.971 42.5275C136.863 42.5275 135.925 42.943 135.17 43.7663C134.409 44.5973 134.032 45.6284 134.032 46.8595C134.032 48.0907 134.409 49.1063 135.17 49.9528C135.925 50.7992 136.863 51.2224 137.971 51.2224C139.079 51.2224 140.026 50.8068 140.803 49.9835C141.58 49.1602 141.965 48.1138 141.965 46.8672C141.965 45.6207 141.58 44.605 140.803 43.774C140.026 42.943 139.087 42.5352 137.971 42.5352V42.5275Z" fill="white"/>
<path d="M146.412 40.6348H148.613V45.1592H154.799V40.6348H157V53.1154H154.799V47.2521H148.613V53.1154H146.412V40.6348Z" fill="white"/>
</svg>
