<svg width="157" height="59" viewBox="0 0 157 59" fill="none" xmlns="http://www.w3.org/2000/svg">
<path d="M27.6389 20.6907C29.2009 21.3524 30.5782 22.2142 31.7401 23.3145C32.2018 23.7454 32.6096 24.2148 32.9943 24.7073C33.7253 23.5762 34.5948 22.3066 35.6259 20.8754L50.6765 0H42.197L31.1323 15.6354C29.778 17.4821 28.6315 19.1518 27.6466 20.6907" fill="#EA591C"/>
<path d="M49.1606 25.8538C51.3459 27.9928 52.4462 30.8552 52.4462 34.4486C52.4462 35.0565 52.4 35.6412 52.3385 36.2183H59.6714C59.7176 35.5951 59.7484 34.9564 59.7484 34.3024C59.7484 28.9393 58.171 24.6149 55.0239 21.3216C51.8768 18.0284 47.6217 16.3817 42.2586 16.3817L37.6111 22.6528H40.3427C44.0361 22.6528 46.9677 23.7224 49.1529 25.8614L49.1606 25.8538Z" fill="#EA591C"/>
<path d="M1.31577 0.0769463H23.4454C28.6084 0.0769463 31.1938 1.93134 31.1938 5.63243C31.1938 7.6561 30.3782 9.45663 28.7623 11.034L17.9206 21.1755C23.3299 21.1755 27.485 22.5451 30.3859 25.292C33.2867 28.0313 34.741 31.9017 34.741 36.8878C34.741 41.8738 33.1636 45.6519 30.0165 48.6374C26.8694 51.6229 22.7913 53.1156 17.7745 53.1156H0V46.0289H15.5661C19.3518 46.0289 22.2527 45.1979 24.2687 43.5359C26.2846 41.8738 27.2926 39.5193 27.2926 36.48C27.2926 33.6407 26.3462 31.3708 24.4533 29.6857C22.5605 27.9928 19.9905 27.1464 16.7434 27.1464H7.30215V22.2912L23.9763 6.78661H1.33116V0.0769463H1.31577Z" fill="#EA591C"/>
<path d="M46.6829 53.1156V46.8984C46.6829 45.5672 46.3136 44.5054 45.5749 43.7129C44.8362 42.9203 43.8744 42.5279 42.6972 42.5279C41.5199 42.5279 40.5735 42.9203 39.8194 43.7129C39.0576 44.5054 38.6806 45.5442 38.6806 46.8215C38.6806 48.0988 39.0653 49.176 39.8271 49.9916C40.5965 50.8072 41.5814 51.2151 42.7972 51.2151C43.8744 51.2151 44.9209 50.838 45.9289 50.0763L45.044 52.8771C44.4053 53.1618 43.5666 53.308 42.5433 53.308C40.8966 53.308 39.4808 52.7309 38.3036 51.5613C37.057 50.3302 36.4338 48.7682 36.4338 46.8599C36.4338 44.9517 37.0263 43.4512 38.2035 42.2355C39.3808 41.0198 40.8735 40.4196 42.6741 40.4196C43.8898 40.4196 44.9824 40.712 45.9597 41.3045C46.9369 41.8969 47.6909 42.7203 48.2296 43.7821C48.5143 44.3515 48.6989 44.9517 48.7836 45.5596C48.8682 46.1751 48.9067 46.9446 48.9067 47.8679V53.1002H46.6829V53.1156Z" fill="#EA591C"/>
<path d="M59.4406 42.728H55.0931C54.4699 42.728 54.0313 42.8511 53.7774 43.105C53.5234 43.3589 53.4003 43.7898 53.4003 44.39V53.1079H51.1535V44.7208C51.1535 43.2589 51.4151 42.2047 51.9384 41.5738C52.4616 40.9428 53.3849 40.6273 54.7161 40.6273H59.4406V42.7203V42.728Z" fill="#EA591C"/>
<path d="M61.3565 58.7711V47.8218C61.3565 46.7984 61.3873 46.0135 61.4565 45.4749C61.5258 44.9363 61.7182 44.3669 62.0413 43.759C62.5799 42.6972 63.3417 41.8662 64.3266 41.2583C65.3115 40.6504 66.4118 40.3503 67.6199 40.3503C69.4204 40.3503 70.9132 40.9582 72.1058 42.1816C73.2908 43.4051 73.8833 44.9594 73.8833 46.8445C73.8833 48.7297 73.2908 50.1686 72.1058 51.4074C70.9209 52.6462 69.4589 53.2618 67.7199 53.2618C67.2121 53.2618 66.7581 53.2233 66.358 53.1464C65.9502 53.0695 65.5731 52.9694 65.2192 52.8309L64.3343 50.0301C65.3808 50.7842 66.4272 51.1689 67.4891 51.1689C68.6817 51.1689 69.6667 50.7765 70.4438 49.9839C71.221 49.1914 71.6057 48.1603 71.6057 46.8753C71.6057 45.5903 71.2286 44.4823 70.4823 43.6821C69.7359 42.8818 68.7587 42.4817 67.566 42.4817C66.3734 42.4817 65.45 42.8818 64.696 43.6821C63.9419 44.4823 63.5725 45.5365 63.5725 46.8445V58.7711H61.3488H61.3565Z" fill="#EA591C"/>
<path d="M81.7163 40.435C83.4476 40.435 84.9404 41.0813 86.1715 42.374C87.4026 43.6667 88.0259 45.1671 88.0259 46.8907C88.0259 48.6143 87.418 50.184 86.1946 51.4613C84.9711 52.7386 83.4784 53.3695 81.7086 53.3695C79.9389 53.3695 78.4692 52.7309 77.2535 51.4613C76.03 50.184 75.4222 48.6682 75.4222 46.8907C75.4222 45.1133 76.03 43.6436 77.2535 42.3586C78.4769 41.0736 79.962 40.435 81.7086 40.435H81.7163ZM81.7163 42.5279C80.6083 42.5279 79.6696 42.9434 78.9155 43.7667C78.1614 44.5977 77.7767 45.6288 77.7767 46.8599C77.7767 48.0911 78.1537 49.1067 78.9155 49.9531C79.6773 50.7996 80.6083 51.2228 81.7163 51.2228C82.8244 51.2228 83.7708 50.8072 84.5479 49.9839C85.3251 49.1529 85.7098 48.1141 85.7098 46.8676C85.7098 45.6211 85.3251 44.6054 84.5479 43.7744C83.7708 42.9434 82.832 42.5356 81.7163 42.5356V42.5279Z" fill="#EA591C"/>
<path d="M89.5724 46.8599C89.5724 45.1364 90.1803 43.6359 91.4037 42.3509C92.6272 41.0659 94.1122 40.4273 95.8589 40.4273C96.8669 40.4273 97.8056 40.6581 98.6751 41.1198C99.5446 41.5815 100.322 42.2663 101.014 43.1819L99.3753 44.7747C99.0368 44.0822 98.552 43.5359 97.921 43.1358C97.2901 42.728 96.6053 42.5279 95.8589 42.5279C94.7663 42.5279 93.8275 42.9434 93.0581 43.7821C92.2886 44.6208 91.8962 45.6519 91.8962 46.883C91.8962 48.1142 92.2809 49.1068 93.0581 49.9455C93.8352 50.7842 94.7663 51.2151 95.8589 51.2151C96.6668 51.2151 97.3901 50.9842 98.0288 50.5226C98.5828 50.1301 99.0291 49.5915 99.3676 48.9144L101.137 50.4379C100.614 51.2689 99.9293 51.9384 99.0906 52.4462C98.098 53.0541 97.0208 53.3618 95.8589 53.3618C94.1045 53.3618 92.6195 52.7232 91.4037 51.4536C90.1803 50.1763 89.5724 48.6451 89.5724 46.8599Z" fill="#EA591C"/>
<path d="M112.687 53.1156V46.8984C112.687 45.5672 112.318 44.5054 111.579 43.7129C110.84 42.9203 109.878 42.5279 108.701 42.5279C107.524 42.5279 106.577 42.9203 105.823 43.7129C105.062 44.5054 104.685 45.5442 104.685 46.8215C104.685 48.0988 105.069 49.176 105.831 49.9916C106.601 50.8072 107.585 51.2151 108.801 51.2151C109.878 51.2151 110.925 50.838 111.933 50.0763L111.048 52.8771C110.409 53.1618 109.571 53.308 108.547 53.308C106.901 53.308 105.485 52.7309 104.308 51.5613C103.061 50.3302 102.438 48.7682 102.438 46.8599C102.438 44.9517 103.03 43.4512 104.208 42.2355C105.385 41.0198 106.878 40.4196 108.678 40.4196C109.894 40.4196 110.986 40.712 111.964 41.3045C112.941 41.8969 113.695 42.7203 114.234 43.7821C114.518 44.3515 114.703 44.9517 114.788 45.5596C114.872 46.1751 114.911 46.9446 114.911 47.8679V53.1002H112.687V53.1156Z" fill="#EA591C"/>
<path d="M127.337 53.1156V45.9135C127.337 44.9055 127.068 44.0976 126.529 43.4897C125.991 42.8818 125.275 42.5818 124.383 42.5818C123.49 42.5818 122.798 42.8818 122.259 43.4897C121.72 44.0976 121.451 44.9055 121.451 45.9135V49.3453C121.451 50.4764 121.036 51.3843 120.212 52.0769C119.389 52.7694 118.235 53.1156 116.75 53.1156V50.8688C117.527 50.8688 118.112 50.7226 118.519 50.4379C119.004 50.0993 119.25 49.5684 119.25 48.8451V46.3444C119.25 44.4746 119.712 43.0203 120.628 41.9893C121.543 40.9505 122.798 40.435 124.383 40.435C125.968 40.435 127.222 40.9505 128.145 41.9739C129.069 42.9973 129.538 44.4515 129.538 46.3213V53.1156H127.337Z" fill="#EA591C"/>
<path d="M137.971 40.435C139.703 40.435 141.195 41.0813 142.426 42.374C143.665 43.6667 144.281 45.1671 144.281 46.8907C144.281 48.6143 143.673 50.184 142.45 51.4613C141.226 52.7386 139.733 53.3695 137.964 53.3695C136.194 53.3695 134.724 52.7309 133.508 51.4613C132.285 50.184 131.677 48.6682 131.677 46.8907C131.677 45.1133 132.285 43.6436 133.508 42.3586C134.732 41.0736 136.217 40.435 137.964 40.435H137.971ZM137.971 42.5279C136.863 42.5279 135.925 42.9434 135.17 43.7667C134.409 44.5977 134.032 45.6288 134.032 46.8599C134.032 48.0911 134.409 49.1067 135.17 49.9531C135.925 50.7996 136.863 51.2228 137.971 51.2228C139.079 51.2228 140.026 50.8072 140.803 49.9839C141.58 49.1606 141.965 48.1141 141.965 46.8676C141.965 45.6211 141.58 44.6054 140.803 43.7744C140.026 42.9434 139.087 42.5356 137.971 42.5356V42.5279Z" fill="#EA591C"/>
<path d="M146.412 40.635H148.613V45.1594H154.799V40.635H157V53.1156H154.799V47.2524H148.613V53.1156H146.412V40.635Z" fill="#EA591C"/>
</svg>
